<?xml version="1.0" standalone="no"?>
<!DOCTYPE svg PUBLIC "-//W3C//DTD SVG 1.1//EN" "http://www.w3.org/Graphics/SVG/1.1/DTD/svg11.dtd" >
<svg>
<metadata>
Created by FontForge 20090914 at Sun Jul 23 09:41:54 2017
 By www-data
Copyright (c) 2014 Indian Type Foundry (info@indiantypefoundry.com)
</metadata>
<defs>
<font id="Poppins-Light" horiz-adv-x="265" >
  <font-face 
    font-family="Poppins Light"
    font-weight="300"
    font-stretch="normal"
    units-per-em="1000"
    panose-1="2 0 0 0 0 0 0 0 0 0"
    ascent="800"
    descent="-200"
    x-height="546"
    cap-height="690"
    bbox="-529 -440 2631 1066"
    underline-thickness="50"
    underline-position="-100"
    unicode-range="U+000D-U+F03E4"
  />
<missing-glyph horiz-adv-x="750" 
d="M234 651v-601h282v601h-282zM180 0v701h390v-701h-390z" />
    <glyph glyph-name="uniFB01" unicode="fi" horiz-adv-x="548" 
d="M403 737c10 10 22.167 15 36.5 15s26.333 -5 36 -15s14.5 -22.167 14.5 -36.5s-4.83301 -26.5 -14.5 -36.5s-21.667 -15 -36 -15s-26.5 5 -36.5 15s-15 22.167 -15 36.5s5 26.5 15 36.5zM169 599v-52.999h304v-546h-70v491h-234v-491h-70v491h-76v55h76v53
c0 57.333 15 99 45 125s78 39 144 39v-56c-44 0 -74.833 -8.33301 -92.5 -25s-26.5 -44.334 -26.5 -83.001z" />
    <glyph glyph-name="uniFB02" unicode="fl" horiz-adv-x="548" 
d="M403 740h70v-740h-70v740zM169 599v-52.999h127v-55h-127v-491h-70v491h-76v55h76v53c0 57.333 15 99 45 125s78 39 144 39v-56c-44 0 -74.833 -8.33301 -92.5 -25s-26.5 -44.334 -26.5 -83.001z" />
    <glyph glyph-name=".notdef" horiz-adv-x="750" 
d="M234 651v-601h282v601h-282zM180 0v701h390v-701h-390z" />
    <glyph glyph-name="uni0000" horiz-adv-x="0" 
 />
    <glyph glyph-name="uni000D" unicode="&#xd;" horiz-adv-x="300" 
 />
    <glyph glyph-name="space" unicode=" " horiz-adv-x="300" 
 />
    <glyph glyph-name="exclam" unicode="!" horiz-adv-x="406" 
d="M209 0c-13.333 0 -24.833 4.83301 -34.5 14.5s-14.5 21.167 -14.5 34.5s4.83301 24.833 14.5 34.5s21.167 14.5 34.5 14.5s24.833 -4.83301 34.5 -14.5s14.5 -21.167 14.5 -34.5s-4.83301 -24.833 -14.5 -34.5s-21.167 -14.5 -34.5 -14.5zM179 195l-8 552h71l-8 -552h-55
z" />
    <glyph glyph-name="quotedbl" unicode="&#x22;" horiz-adv-x="253" 
d="M162 602l-12 193h73l-12 -193h-49zM42 602l-12 193h73l-12 -193h-49z" />
    <glyph glyph-name="numbersign" unicode="#" horiz-adv-x="827" 
d="M769 465h-158l-40 -189h143v-58h-155l-47 -218h-69l47 218h-220l-47 -218h-69l47 218h-158v58h170l40 189h-155v58h168l46 217h69l-46 -217h220l46 217h69l-46 -217h145v-58zM502 276l40 189h-220l-40 -189h220z" />
    <glyph glyph-name="dollar" unicode="$" horiz-adv-x="655" 
d="M459 59c-34.667 -38 -84.334 -59.6689 -149.001 -65.002v-81h-55v81c-56.667 4.66699 -103.334 22 -140.001 52s-55 69 -55 117h74c2.66699 -28.667 13.834 -53 33.501 -73s48.834 -32 87.501 -36v266c-30 6.66699 -54.333 13.334 -73 20.001s-38.667 16.667 -60 30
c-41.333 27.333 -62 73 -62 137c0 52.667 17.167 96.167 51.5 130.5s82.166 53.833 143.499 58.5v81h55v-81c52.667 -4.66699 95.334 -21.667 128.001 -51s52.667 -67 60 -113h-79c-2 23.333 -12.5 44.833 -31.5 64.5s-44.833 32.167 -77.5 37.5v-261
c80.667 -17.333 134 -39.666 160 -66.999c27.333 -28 41 -66.667 41 -116s-17.333 -93 -52 -131zM160.5 598.498c-23.667 -21.667 -35.5 -51.167 -35.5 -88.5s11.167 -64.833 33.5 -82.5s54.5 -31.5 96.5 -41.5v250c-39.333 -3.33301 -70.833 -15.833 -94.5 -37.5z
M410 96.998c24 24.667 36 54.832 36 90.499s-11.667 62 -35 79s-57 30.833 -101 41.5v-255c42.667 4.66699 76 19.334 100 44.001z" />
    <glyph glyph-name="percent" unicode="%" horiz-adv-x="650" 
d="M459.5 230c-49.667 0 -74.5 -32.5 -74.5 -97.5s24.833 -97.5 74.5 -97.5s74.5 32.5 74.5 97.5s-24.833 97.5 -74.5 97.5zM320 133c0 42.667 13.167 77 39.5 103s59.833 39 100.5 39s74.167 -13 100.5 -39s39.5 -60.333 39.5 -103s-13.167 -77.167 -39.5 -103.5
s-59.833 -39.5 -100.5 -39.5s-74.167 13.167 -100.5 39.5s-39.5 60.833 -39.5 103.5zM84 0l410 690h71l-410 -690h-71zM189.5 655c-49.667 0 -74.5 -32.5 -74.5 -97.5s24.833 -97.5 74.5 -97.5s74.5 32.5 74.5 97.5s-24.833 97.5 -74.5 97.5zM50 558
c0 42.667 13.167 77 39.5 103s59.833 39 100.5 39s74.167 -13 100.5 -39s39.5 -60.333 39.5 -103s-13.167 -77.167 -39.5 -103.5s-59.833 -39.5 -100.5 -39.5s-74.167 13.167 -100.5 39.5s-39.5 60.833 -39.5 103.5z" />
    <glyph glyph-name="ampersand" unicode="&#x26;" horiz-adv-x="659" 
d="M366.5 38c-35.667 -30.667 -79.999 -46.002 -132.999 -46.002s-98.5 18.333 -136.5 55s-57 84.334 -57 143.001s19 106.334 57 143.001s85 55 141 55c6 0 11.667 -0.333008 17 -1l-27 35c-48 60 -72 112.667 -72 158s15.667 83.333 47 114s73.333 46 126 46
s94.667 -15.333 126 -46s47 -67 47 -109c0 -14 -1.66699 -27.667 -5 -41h-73c3.33301 13.333 5 27 5 41c0 28 -9.33301 51.5 -28 70.5s-42.667 28.5 -72 28.5s-53.333 -9.5 -72 -28.5s-28 -44.167 -28 -75.5s17.667 -70 53 -116l358 -464h-88l-119 155
c-8.66699 -47.333 -30.834 -86.333 -66.501 -117zM238.001 47.998c36 0 66.833 13.833 92.5 41.5s38.5 61.5 38.5 101.5s-12.833 73.5 -38.5 100.5s-56.5 40.5 -92.5 40.5s-66.5 -13.5 -91.5 -40.5s-37.5 -60.5 -37.5 -100.5s12.5 -73.833 37.5 -101.5
s55.5 -41.5 91.5 -41.5z" />
    <glyph glyph-name="quotesingle" unicode="'" horiz-adv-x="133" 
d="M42 602l-12 193h73l-12 -193h-49z" />
    <glyph glyph-name="parenleft" unicode="(" horiz-adv-x="583" 
d="M245.5 61c-47.667 104.667 -71.5 218.5 -71.5 341.5s23.833 236.833 71.5 341.5s111.167 186 190.5 244h78v-7c-91.333 -70.667 -159.5 -157 -204.5 -259s-67.5 -208.333 -67.5 -319s22.5 -217.167 67.5 -319.5s113.167 -188.833 204.5 -259.5v-7h-78
c-79.333 58 -142.833 139.333 -190.5 244z" />
    <glyph glyph-name="parenright" unicode=")" horiz-adv-x="583" 
d="M337.5 744c47.667 -104.667 71.5 -218.5 71.5 -341.5s-23.833 -236.833 -71.5 -341.5s-111.167 -186 -190.5 -244h-78v7c91.333 70.667 159.5 157.167 204.5 259.5s67.5 208.833 67.5 319.5s-22.5 217 -67.5 319s-113.167 188.333 -204.5 259v7h78
c79.333 -58 142.833 -139.333 190.5 -244z" />
    <glyph glyph-name="asterisk" unicode="*" horiz-adv-x="481" 
d="M275 732l-19 -157l125 92l35 -64l-148 -57l148 -57l-35 -64l-125 92l19 -157h-73l16 157l-127 -94l-37 66l147 57l-147 57l37 66l127 -94l-16 157h73z" />
    <glyph glyph-name="plus" unicode="+" horiz-adv-x="765" 
d="M637 400v-60h-222v-225h-65v225h-222v60h222v225h65v-225h222z" />
    <glyph glyph-name="comma" unicode="," horiz-adv-x="172" 
d="M41 56h81c13.333 -68.667 13 -117.167 -1 -145.5s-41 -42.5 -81 -42.5v38c30.667 0 46 16.333 46 49v25h-45v76z" />
    <glyph glyph-name="hyphen" unicode="-" horiz-adv-x="589" 
d="M100 340v60h389v-60h-389z" />
    <glyph glyph-name="period" unicode="." horiz-adv-x="218" 
d="M109 0c-13.333 0 -24.833 4.83301 -34.5 14.5s-14.5 21.167 -14.5 34.5s4.83301 24.833 14.5 34.5s21.167 14.5 34.5 14.5s24.833 -4.83301 34.5 -14.5s14.5 -21.167 14.5 -34.5s-4.83301 -24.833 -14.5 -34.5s-21.167 -14.5 -34.5 -14.5z" />
    <glyph glyph-name="slash" unicode="/" horiz-adv-x="562" 
d="M101 -166l274 1106h71l-275 -1106h-70z" />
    <glyph glyph-name="zero" unicode="0" horiz-adv-x="632" 
d="M315 733c39.333 0 73.5 -6.33301 102.5 -19s52.333 -29.667 70 -51s31.834 -48.166 42.501 -80.499s18 -65.5 22 -99.5s6 -72.667 6 -116s-2 -82 -6 -116s-11.333 -67.167 -22 -99.5s-24.834 -59.166 -42.501 -80.499s-41 -38.333 -70 -51s-63.167 -19 -102.5 -19
s-73.5 6.33301 -102.5 19s-52.333 29.667 -70 51s-31.834 48.166 -42.501 80.499s-18 65.5 -22 99.5s-6 72.667 -6 116s2 82 6 116s11.333 67.167 22 99.5s24.834 59.166 42.501 80.499s41 38.333 70 51s63.167 19 102.5 19zM315 673c-30.667 0 -57 -5.83301 -79 -17.5
s-39.167 -26.334 -51.5 -44.001s-22 -40.667 -29 -69s-11.5 -55.666 -13.5 -81.999s-3 -57.5 -3 -93.5s1 -67.167 3 -93.5s6.5 -53.666 13.5 -81.999s16.667 -51.333 29 -69s29.5 -32.334 51.5 -44.001s48.333 -17.5 79 -17.5s57 5.83301 79 17.5s39.167 26.334 51.5 44.001
s22 40.667 29 69s11.5 55.666 13.5 81.999s3 57.5 3 93.5s-1 67.167 -3 93.5s-6.5 53.666 -13.5 81.999s-16.667 51.333 -29 69s-29.5 32.334 -51.5 44.001s-48.333 17.5 -79 17.5z" />
    <glyph glyph-name="one" unicode="1" horiz-adv-x="295" 
d="M130 0v650h-71v60h136v-710h-65z" />
    <glyph glyph-name="two" unicode="2" horiz-adv-x="581" 
d="M61 10l0.00195312 48l68.5 59l69.5 60l62.5 56.5c25.667 23.667 45.667 43.334 60 59.001s30.333 34.334 48 56.001s31.167 41.167 40.5 58.5c21.333 42 32 83.167 32 123.5s-12 74.666 -36 102.999s-62 42.5 -114 42.5s-91.833 -15.667 -119.5 -47
s-42.834 -72.333 -45.501 -123h-66c3.33301 73.333 25.666 130 66.999 170s94.833 60 160.5 60s118.834 -18.5 159.501 -55.5s61 -89.167 61 -156.5c0 -29.333 -6 -59.833 -18 -91.5s-25.667 -59.334 -41 -83.001s-37.333 -51 -66 -82s-51.834 -54.667 -69.501 -71
l-77.5 -69l-65 -57.5h361v-60h-472z" />
    <glyph glyph-name="three" unicode="3" horiz-adv-x="585" 
d="M136 699.5c42.667 31.667 96.3281 47.499 160.995 47.499s116.167 -17.5 154.5 -52.5s57.5 -79.5 57.5 -133.5c0 -38 -11.167 -72 -33.5 -102s-52.166 -50.667 -89.499 -62v-5c42.667 -10.667 76 -33 100 -67s36 -78.333 36 -133s-19.667 -101 -59 -139
s-93.833 -57 -163.5 -57s-126.5 17.5 -170.5 52.5s-69.333 83.833 -76 146.5h65c4.66699 -40 22.834 -73.167 54.501 -99.5s73.334 -39.5 125.001 -39.5s91.334 13.667 119.001 41s41.5 63 41.5 107c0 58 -18.5 99.167 -55.5 123.5s-92.5 36.5 -166.5 36.5h-22v59h23
c138 0.666992 207 44.334 207 131.001c0 40.667 -13 73 -39 97s-62.833 36 -110.5 36s-85.667 -10.167 -114 -30.5s-45.5 -49.5 -51.5 -87.5h-67c6.66699 55.333 31.334 98.833 74.001 130.5z" />
    <glyph glyph-name="four" unicode="4" horiz-adv-x="623" 
d="M426 230v435l-298 -435h298zM426 0v170h-382v45l351 505h96v-490h102v-60h-102v-170h-65z" />
    <glyph glyph-name="five" unicode="5" horiz-adv-x="630" 
d="M89 731l426.997 -0.000976562v-60h-362v-256c15.333 24.667 39.333 45.334 72 62.001s68.667 25 108 25s74.833 -7.16699 106.5 -21.5s56.167 -33.833 73.5 -58.5c32.667 -48 49 -106.333 49 -175s-20.5 -127 -61.5 -175s-98.667 -72 -173 -72
s-132.666 17.167 -174.999 51.5s-69.166 80.5 -80.499 138.5h65c11.333 -40.667 32.833 -72.5 64.5 -95.5s70.834 -34.5 117.501 -34.5c58.667 0 103 17.833 133 53.5s45 82.5 45 140.5c0 124.667 -59.333 187 -178 187c-39.333 0 -73.5 -10.333 -102.5 -31
s-51.167 -49 -66.5 -85h-62v406z" />
    <glyph glyph-name="six" unicode="6" horiz-adv-x="646" 
d="M468.5 375.5c-29 32.333 -70 48.5 -123 48.5s-98 -15 -135 -45s-55.5 -73.667 -55.5 -131s15.5 -103 46.5 -137s75.167 -51 132.5 -51s101.333 16 132 48s46 76.5 46 133.5s-14.5 101.667 -43.5 134zM338 687c-66 0 -114.667 -23.6689 -146 -71.002
s-48 -129.666 -50 -246.999c18 36 45.5 64.333 82.5 85s79.5 31 127.5 31c66.667 0 120.667 -21.833 162 -65.5s62 -101.667 62 -174s-19.667 -131.333 -59 -177s-97.333 -68.5 -174 -68.5c-44 0 -81.833 7 -113.5 21s-56.667 32 -75 54s-32.833 50.667 -43.5 86
s-17.667 70.333 -21 105s-5 75.667 -5 123c0 112 20.5 199.667 61.5 263s104.833 95 191.5 95c61.333 0 110.5 -16.5 147.5 -49.5s58.5 -73.5 64.5 -121.5h-62c-9.33301 38.667 -25.833 66.834 -49.5 84.501s-57.167 26.5 -100.5 26.5z" />
    <glyph glyph-name="seven" unicode="7" horiz-adv-x="560" 
d="M40 730h482v-53l-293 -677h-78l306 670h-417v60z" />
    <glyph glyph-name="eight" unicode="8" horiz-adv-x="631" 
d="M448.5 317c-34.333 26 -78.666 39 -132.999 39s-98.666 -13 -132.999 -39s-51.5 -64.5 -51.5 -115.5s16.667 -90.833 50 -119.5s78.166 -43 134.499 -43s101.166 14.333 134.499 43s50 68.5 50 119.5s-17.167 89.5 -51.5 115.5zM315 691c-52 0 -92.5 -12 -121.5 -36
s-43.5 -57.167 -43.5 -99.5s15.333 -76.333 46 -102s70.5 -38.5 119.5 -38.5s88.833 12.833 119.5 38.5s46 59.667 46 102s-14.667 75.5 -44 99.5s-70 36 -122 36zM85 556c0 57.333 20.001 104.165 60.001 140.498s96.833 54.5 170.5 54.5s130.5 -18.167 170.5 -54.5
s60 -83.166 60 -140.499c0 -39.333 -10.5 -74 -31.5 -104s-48.167 -51.667 -81.5 -65c39.333 -12 71.166 -34.667 95.499 -68s36.5 -73.666 36.5 -120.999c0 -66.667 -22.667 -119.834 -68 -159.501s-105.833 -59.5 -181.5 -59.5s-136.167 19.833 -181.5 59.5
s-68 92.834 -68 159.501c0 48 12 88.5 36 121.5s56 55.5 96 67.5c-75.333 34.667 -113 91 -113 169z" />
    <glyph glyph-name="nine" unicode="9" horiz-adv-x="634" 
d="M198 383c30 -32 72.333 -48 127 -48s96 15.5 124 46.5s42 73.5 42 127.5s-15 97.167 -45 129.5s-71 48.5 -123 48.5s-93.333 -16 -124 -48s-46 -74.667 -46 -128s15 -96 45 -128zM335 61c58 0 100.668 22.5 128.001 67.5s41 124.167 41 237.5
c-38 -61.333 -99.333 -92 -184 -92c-64.667 0 -119.5 21.333 -164.5 64s-67.5 99.667 -67.5 171s20.667 128.833 62 172.5s101.333 65.5 180 65.5s137 -29.5 175 -88.5s57 -152.5 57 -280.5s-17.167 -222.833 -51.5 -284.5s-93.833 -92.5 -178.5 -92.5
c-64 0 -115.167 16.667 -153.5 50s-61.5 75.333 -69.5 126h63c17.333 -77.333 71.666 -116 162.999 -116z" />
    <glyph glyph-name="colon" unicode=":" horiz-adv-x="297" 
d="M139 434c-13.333 0 -24.833 4.83301 -34.5 14.5s-14.5 21.167 -14.5 34.5s4.83301 24.833 14.5 34.5s21.167 14.5 34.5 14.5s24.833 -4.83301 34.5 -14.5s14.5 -21.167 14.5 -34.5s-4.83301 -24.833 -14.5 -34.5s-21.167 -14.5 -34.5 -14.5zM139 0
c-13.333 0 -24.833 4.83301 -34.5 14.5s-14.5 21.167 -14.5 34.5s4.83301 24.833 14.5 34.5s21.167 14.5 34.5 14.5s24.833 -4.83301 34.5 -14.5s14.5 -21.167 14.5 -34.5s-4.83301 -24.833 -14.5 -34.5s-21.167 -14.5 -34.5 -14.5z" />
    <glyph glyph-name="semicolon" unicode=";" horiz-adv-x="251" 
d="M139 436c-13.333 0 -24.833 4.83301 -34.5 14.5s-14.5 21.167 -14.5 34.5s4.83301 24.833 14.5 34.5s21.167 14.5 34.5 14.5s24.833 -4.83301 34.5 -14.5s14.5 -21.167 14.5 -34.5s-4.83301 -24.833 -14.5 -34.5s-21.167 -14.5 -34.5 -14.5zM93 56h81
c13.333 -68.667 13 -117.167 -1 -145.5s-41 -42.5 -81 -42.5v38c30.667 0 46 16.333 46 49v25h-45v76z" />
    <glyph glyph-name="less" unicode="&#x3c;" horiz-adv-x="658" 
d="M212 370l252 -232h-88l-252 232l252 232h88z" />
    <glyph glyph-name="equal" unicode="=" horiz-adv-x="769" 
d="M130 443v60h509v-60h-509zM130 237v60h509v-60h-509z" />
    <glyph glyph-name="greater" unicode="&#x3e;" horiz-adv-x="614" 
d="M150 138l252 232l-252 232h88l252 -232l-252 -232h-88z" />
    <glyph glyph-name="question" unicode="?" horiz-adv-x="619" 
d="M204 39c0 13.333 4.83301 24.833 14.5 34.5s21.167 14.5 34.5 14.5s24.833 -4.83301 34.5 -14.5s14.5 -21.167 14.5 -34.5s-4.83301 -24.833 -14.5 -34.5s-21.167 -14.5 -34.5 -14.5s-24.833 4.83301 -34.5 14.5s-14.5 21.167 -14.5 34.5zM101 539
c0 60.667 19.833 108.833 59.5 144.5s91.5 53.5 155.5 53.5s115.167 -18.167 153.5 -54.5s57.5 -88.666 57.5 -156.999s-20 -118.333 -60 -150s-101 -47.834 -183 -48.501v-142h-66v194h33c71.333 -0.666992 124.333 9.5 159 30.5s52 62.5 52 124.5
c0 45.333 -13 80.5 -39 105.5s-62 37.5 -108 37.5s-82.333 -12 -109 -36s-40 -58 -40 -102h-65z" />
    <glyph glyph-name="at" unicode="@" horiz-adv-x="1125" 
d="M123 -42c-42 67.333 -62.9961 150.665 -62.9961 249.998s23.5 192.833 70.5 280.5s114 157.667 201 210s185.167 78.5 294.5 78.5c131.333 0 237.333 -38.667 318 -116s121 -177.666 121 -300.999c0 -102.667 -26.167 -190 -78.5 -262s-109.833 -108 -172.5 -108
c-38 0 -64.833 12.5 -80.5 37.5s-21.167 53.5 -16.5 85.5c-52.667 -82 -123.334 -123 -212.001 -123c-70.667 0 -127 27.333 -169 82s-56.833 123.334 -44.5 206.001s47.666 149.667 105.999 201s124.166 77 197.499 77s130.333 -27.167 171 -81.5
s54.667 -119.833 42 -196.5l-27 -171c-6 -38.667 7.33301 -58 40 -58c41.333 0 80.166 30.167 116.499 90.5s54.5 133.833 54.5 220.5c0 108 -33 194.5 -99 259.5s-158.333 97.5 -277 97.5c-140 0 -255.5 -49.667 -346.5 -149s-136.5 -222.333 -136.5 -369
c0 -122.667 37.667 -216.667 113 -282s174.666 -100.333 297.999 -105l-15 -60c-189.333 7.33301 -324.666 76 -405.999 206zM704.504 430.499c-29.667 43.667 -69.998 65.5 -120.998 65.5s-98 -21.833 -141 -65.5s-69.167 -96.334 -78.5 -158.001
s0.666992 -114.334 30 -158.001s69.666 -65.5 120.999 -65.5s98.5 21.833 141.5 65.5s69.167 96.334 78.5 158.001s-0.833984 114.334 -30.501 158.001z" />
    <glyph glyph-name="A" unicode="A" horiz-adv-x="685" 
d="M562 0l-58 161h-322l-59 -161h-70l254 690h72l253 -690h-70zM202 217h281l-140 386z" />
    <glyph glyph-name="B" unicode="B" horiz-adv-x="595" 
d="M75 690h232.999c70.667 0 124.834 -17.167 162.501 -51.5s56.5 -78.5 56.5 -132.5c0 -76.667 -44 -126.667 -132 -150c44 -7.33301 79.667 -27.5 107 -60.5s41 -72.833 41 -119.5s-20.667 -87.667 -62 -123s-95.333 -53 -162 -53h-244v690zM144.999 633v-249h163
c46.667 0 83 11.167 109 33.5s39 52.5 39 90.5s-13 68.333 -39 91s-62.333 34 -109 34h-163zM144.999 56h173c50 0 88.667 12 116 36s41 57 41 99s-15.167 75.167 -45.5 99.5s-70.5 36.5 -120.5 36.5h-164v-271z" />
    <glyph glyph-name="C" unicode="C" horiz-adv-x="780" 
d="M40 345c0 102 33.833 186.165 101.5 252.498s150.834 99.5 249.501 99.5c70.667 0 133.5 -16 188.5 -48s96.5 -78.667 124.5 -140h-85c-21.333 40.667 -52 72 -92 94s-85.333 33 -136 33c-80.667 0 -147.334 -26.667 -200.001 -80s-79 -123.666 -79 -210.999
s26.333 -157.666 79 -210.999s119.334 -80 200.001 -80c50.667 0 96 11.167 136 33.5s70.667 53.833 92 94.5h85c-28 -61.333 -69.5 -108 -124.5 -140s-117.833 -48 -188.5 -48c-98.667 0 -181.834 33 -249.501 99s-101.5 150 -101.5 252z" />
    <glyph glyph-name="D" unicode="D" horiz-adv-x="685" 
d="M145 54h142c92.667 0 163.167 25.167 211.5 75.5s72.5 120.833 72.5 211.5s-24.167 161.167 -72.5 211.5s-118.833 75.5 -211.5 75.5h-142v-574zM287 690c111.333 0 198.5 -30.833 261.5 -92.5s94.5 -147.167 94.5 -256.5s-31.333 -193.5 -94 -252.5
s-150 -88.5 -262 -88.5h-212v690h212z" />
    <glyph glyph-name="E" unicode="E" horiz-adv-x="487" 
d="M426 690v-57h-281v-258h251v-56h-251v-263h281v-56h-351v690h351z" />
    <glyph glyph-name="F" unicode="F" horiz-adv-x="468" 
d="M75 0v690h372v-57h-302v-258h241v-56h-241v-319h-70z" />
    <glyph glyph-name="G" unicode="G" horiz-adv-x="780" 
d="M40 345c0 102 33.832 186.164 101.499 252.497s150.834 99.5 249.501 99.5c70.667 0 133.5 -16 188.5 -48s96.5 -78.667 124.5 -140h-85c-21.333 40.667 -52 72 -92 94s-85.333 33 -136 33c-80.667 0 -147.334 -26.667 -200.001 -80s-79 -123.666 -79 -210.999
s26.333 -157.666 79 -210.999s118.834 -80 198.501 -80s144.167 23.333 193.5 70s77.666 110.334 84.999 191.001h-310v56h383v-56c-9.33301 -96 -46.666 -173.5 -111.999 -232.5s-146 -88.5 -242 -88.5s-177.833 33 -245.5 99s-101.5 150 -101.5 252z" />
    <glyph glyph-name="H" unicode="H" horiz-adv-x="660" 
d="M515 690h70v-690h-70v319h-370v-319h-70v690h70v-315h370v315z" />
    <glyph glyph-name="I" unicode="I" horiz-adv-x="220" 
d="M75 0v690h70v-690h-70z" />
    <glyph glyph-name="J" unicode="J" horiz-adv-x="541" 
d="M352 170l-0.00195312 520h70v-520c0 -53.333 -16.5 -96.166 -49.5 -128.499s-77.333 -48.5 -133 -48.5s-100.167 16.167 -133.5 48.5s-50 75.166 -50 128.499h72c0.666992 -33.333 9.83398 -61.166 27.501 -83.499s45.834 -33.5 84.501 -33.5s67 11.167 85 33.5
s27 50.166 27 83.499z" />
    <glyph glyph-name="K" unicode="K" horiz-adv-x="565" 
d="M145 0h-70v690h70v-323l299 323h91l-335 -350l335 -340h-95l-295 310v-310z" />
    <glyph glyph-name="L" unicode="L" horiz-adv-x="416" 
d="M75 690h70v-636h251v-54h-321v690z" />
    <glyph glyph-name="M" unicode="M" horiz-adv-x="833" 
d="M758 690v-690h-70v531l-251 -531h-41l-251 529v-529h-70v690h65l277 -589l276 589h65z" />
    <glyph glyph-name="N" unicode="N" horiz-adv-x="677" 
d="M532 690h70v-690h-70l-387 578v-578h-70v690h70l387 -578v578z" />
    <glyph glyph-name="O" unicode="O" horiz-adv-x="781" 
d="M670 345c0 87.333 -26.332 157.666 -78.999 210.999s-119.334 80 -200.001 80s-147.5 -26.667 -200.5 -80s-79.5 -123.666 -79.5 -210.999s26.5 -157.833 79.5 -211.5s119.667 -80.5 200 -80.5s147 26.833 200 80.5s79.5 124.167 79.5 211.5zM40.001 345
c0 102 33.833 186.167 101.5 252.5s151 99.5 250 99.5s182.167 -33.167 249.5 -99.5s101 -150.5 101 -252.5s-33.667 -186.167 -101 -252.5s-150.5 -99.5 -249.5 -99.5s-182.333 33.167 -250 99.5s-101.5 150.5 -101.5 252.5z" />
    <glyph glyph-name="P" unicode="P" horiz-adv-x="562" 
d="M522 489c0 -60 -19.833 -108.333 -59.5 -145s-98.5 -55 -176.5 -55h-141v-289h-70v690h211c77.333 0 136 -18.5 176 -55.5s60 -85.5 60 -145.5zM145 346h141c110 0 165 47.833 165 143.5s-55 143.5 -165 143.5h-141v-287z" />
    <glyph glyph-name="Q" unicode="Q" horiz-adv-x="782" 
d="M391 -7c-98.667 0 -181.834 33.167 -249.501 99.5s-101.5 150.5 -101.5 252.5s33.833 186.167 101.5 252.5s151 99.5 250 99.5s182.167 -33.167 249.5 -99.5s101 -150.5 101 -252.5c0 -67.333 -15.667 -127.833 -47 -181.5s-73.666 -95.5 -126.999 -125.5l186 -173h-97
l-156 144c-37.333 -10.667 -74 -16 -110 -16zM111 345c0 -87.333 26.501 -157.833 79.501 -211.5s119.667 -80.5 200 -80.5s147 26.833 200 80.5s79.5 124.167 79.5 211.5s-26.333 157.666 -79 210.999s-119.334 80 -200.001 80s-147.5 -26.667 -200.5 -80
s-79.5 -123.666 -79.5 -210.999z" />
    <glyph glyph-name="R" unicode="R" horiz-adv-x="603" 
d="M145 289v-289h-70v690h211c77.333 0 136 -18.5 176 -55.5s60 -83.833 60 -140.5s-15.667 -102.5 -47 -137.5s-78 -56.5 -140 -64.5l196 -292h-91l-187 289h-108zM145 633v-287h141c110 0 165 47.833 165 143.5s-55 143.5 -165 143.5h-141z" />
    <glyph glyph-name="S" unicode="S" horiz-adv-x="571" 
d="M125 508c0 -27.333 7.16895 -49.668 21.502 -67.001s32.833 -30.166 55.5 -38.499s47.667 -15.5 75 -21.5s54.666 -12.667 81.999 -20s52.333 -16.833 75 -28.5s41.167 -29.5 55.5 -53.5s21.5 -53.667 21.5 -89c0 -52.667 -19.667 -98.667 -59 -138
s-93.166 -59 -161.499 -59s-123.833 15.333 -166.5 46s-64 72 -64 124h74c2.66699 -32 16.334 -58.5 41.001 -79.5s61.5 -31.5 110.5 -31.5s88 12.667 117 38s43.5 56.833 43.5 94.5s-13.333 66 -40 85s-58.834 32.167 -96.501 39.5s-75.334 15.833 -113.001 25.5
s-69.834 28.5 -96.501 56.5s-40 68.667 -40 122s19.833 97.333 59.5 132s92 52 157 52s116.167 -15 153.5 -45s60 -70 68 -120h-79c-2.66699 28 -16.667 52.5 -42 73.5s-60 31.5 -104 31.5s-79.667 -11 -107 -33s-41 -54 -41 -96z" />
    <glyph glyph-name="T" unicode="T" horiz-adv-x="529" 
d="M49 633v57h431v-57h-181v-633h-69v633h-181z" />
    <glyph glyph-name="U" unicode="U" horiz-adv-x="658" 
d="M75 232l0.000976562 458h70v-458c0 -61.333 16.5 -106.833 49.5 -136.5s78.167 -44.5 135.5 -44.5s102.333 14.833 135 44.5s49 75.167 49 136.5v458h70v-458c0 -78.667 -23.667 -138.167 -71 -178.5s-108.333 -60.5 -183 -60.5s-135.834 20.167 -183.501 60.5
s-71.5 99.833 -71.5 178.5z" />
    <glyph glyph-name="V" unicode="V" horiz-adv-x="668" 
d="M300 0l-271 690h74l230 -611l232 611h74l-271 -690h-68z" />
    <glyph glyph-name="W" unicode="W" horiz-adv-x="963" 
d="M861 690h73l-214 -690h-76l-165 590l-179 -590l-76 -1l-195 691h73l162 -611l179 611h76l164 -608z" />
    <glyph glyph-name="X" unicode="X" horiz-adv-x="601" 
d="M551 690l-212 -345l212 -345h-76l-180 292l-169 -292h-76l212 345l-212 345h76l180 -292l169 292h76z" />
    <glyph glyph-name="Y" unicode="Y" horiz-adv-x="541" 
d="M306 0h-70v272l-221 418h75l180 -354l180 354h76l-220 -418v-272z" />
    <glyph glyph-name="Z" unicode="Z" horiz-adv-x="528" 
d="M478 690v-57l-348 -577h348v-56h-428v56l348 577h-348v57h428z" />
    <glyph glyph-name="bracketleft" unicode="[" horiz-adv-x="465" 
d="M170 -166v1106h136v-60h-71v-986h71v-60h-136z" />
    <glyph glyph-name="backslash" unicode="\" horiz-adv-x="651" 
d="M220 940l324 -1106h-70l-325 1106h71z" />
    <glyph glyph-name="bracketright" unicode="]" horiz-adv-x="465" 
d="M295 940v-1106h-136v60h71v986h-71v60h136z" />
    <glyph glyph-name="asciicircum" unicode="^" horiz-adv-x="611" 
d="M495 171l-189 428l-190 -428h-76l234 519h63l234 -519h-76z" />
    <glyph glyph-name="underscore" unicode="_" horiz-adv-x="813" 
d="M158 -100v60h509v-60h-509z" />
    <glyph glyph-name="grave" unicode="`" horiz-adv-x="225" 
d="M10 700v70l205 -128v-57z" />
    <glyph glyph-name="a" unicode="a" horiz-adv-x="662" 
d="M517 273c0 66.667 -19.835 120.5 -59.502 161.5s-87.5 61.5 -143.5 61.5s-103.667 -19.667 -143 -59s-59 -92.5 -59 -159.5s19.833 -121.667 59.5 -164s87.334 -63.5 143.001 -63.5s103.334 20.5 143.001 61.5s59.5 94.833 59.5 161.5zM114.998 71
c-50 54 -75.001 122.833 -75.001 206.5s24.833 151 74.5 202s112.834 76.5 189.501 76.5c49.333 0 92.666 -12 129.999 -36s65 -55 83 -93v119h70v-546h-70v120c-18 -38 -45.667 -69.167 -83 -93.5s-80.666 -36.5 -129.999 -36.5c-76 0 -139 27 -189 81z" />
    <glyph glyph-name="b" unicode="b" horiz-adv-x="662" 
d="M490.5 113.5c39.667 42.333 59.498 97 59.498 164s-19.667 120.167 -59 159.5s-87.166 59 -143.499 59s-104.166 -20.5 -143.499 -61.5s-59 -94.833 -59 -161.5s19.667 -120.5 59 -161.5s87 -61.5 143 -61.5s103.833 21.167 143.5 63.5zM357.998 556
c76.667 0 139.833 -25.5 189.5 -76.5s74.5 -118.333 74.5 -202s-25 -152.5 -75 -206.5s-113 -81 -189 -81c-49.333 0 -92.666 12.167 -129.999 36.5s-65 55.5 -83 93.5v-120h-70v740h70v-313c18 38 45.667 69 83 93s80.666 36 129.999 36z" />
    <glyph glyph-name="c" unicode="c" horiz-adv-x="600" 
d="M40 273c0 84.667 24.333 153 73 205s112 78 190 78c128 0 209.333 -57.333 244 -172h-75c-11.333 36.667 -31.5 65.167 -60.5 85.5s-65.167 30.5 -108.5 30.5c-56.667 0 -102.667 -19.5 -138 -58.5s-53 -95 -53 -168s17.667 -129.167 53 -168.5s81.333 -59 138 -59
c43.333 0 79.5 10.167 108.5 30.5s49.167 48.833 60.5 85.5h75c-17.333 -52 -46.333 -93.667 -87 -125s-93 -47 -157 -47c-78 0 -141.333 26 -190 78s-73 120.333 -73 205z" />
    <glyph glyph-name="d" unicode="d" horiz-adv-x="662" 
d="M517 273c0 66.667 -19.835 120.5 -59.502 161.5s-87.5 61.5 -143.5 61.5s-103.667 -19.667 -143 -59s-59 -92.5 -59 -159.5s19.833 -121.667 59.5 -164s87.334 -63.5 143.001 -63.5s103.334 20.5 143.001 61.5s59.5 94.833 59.5 161.5zM114.998 71
c-50 54 -75.001 122.833 -75.001 206.5s24.833 151 74.5 202s112.834 76.5 189.501 76.5c49.333 0 92.666 -12 129.999 -36s65 -55 83 -93v313h70v-740h-70v120c-18 -38 -45.667 -69.167 -83 -93.5s-80.666 -36.5 -129.999 -36.5c-76 0 -139 27 -189 81z" />
    <glyph glyph-name="e" unicode="e" horiz-adv-x="605" 
d="M303 -10c-78 0 -141.333 26.001 -190 78.001s-73 120.5 -73 205.5s24.833 153.333 74.5 205s114 77.5 193 77.5s141.833 -24.333 188.5 -73s70 -109 70 -181c0 -19.333 -1.33301 -37.333 -4 -54h-450c2.66699 -62.667 21.667 -112 57 -148s80 -54 134 -54
c42 0 77.833 9.66699 107.5 29s50.167 44.666 61.5 75.999h75c-18 -46.667 -47.333 -85.167 -88 -115.5s-92.667 -45.5 -156 -45.5zM494 303.001c0 60 -18.166 107.833 -54.499 143.5s-81.333 53.5 -135 53.5s-98.334 -17.5 -134.001 -52.5s-55.167 -83.167 -58.5 -144.5
h382z" />
    <glyph glyph-name="f" unicode="f" horiz-adv-x="328" 
d="M296 546v-54.999h-127v-491h-70v491h-76v55h76v53c0 57.333 15 99 45 125s78 39 144 39v-56c-44 0 -74.833 -8.33301 -92.5 -25s-26.5 -44.334 -26.5 -83.001v-53h127z" />
    <glyph glyph-name="g" unicode="g" horiz-adv-x="662" 
d="M115 71c-50 54 -74.999 122.832 -74.999 206.499s24.833 151 74.5 202s112.834 76.5 189.501 76.5c49.333 0 92.666 -12 129.999 -36s65 -55 83 -93v119h70v-565c0 -74 -24.5 -134 -73.5 -180s-108.833 -69 -179.5 -69s-130.334 17.333 -179.001 52
s-76.667 77.667 -84 129h69c8.66699 -34 30.667 -62.667 66 -86s78.666 -35 129.999 -35s94.333 16.833 129 50.5s52 79.834 52 138.501v139c-18 -38 -45.667 -69.167 -83 -93.5s-80.666 -36.5 -129.999 -36.5c-76 0 -139 27 -189 81zM517.001 272.999
c0 66.667 -19.835 120.5 -59.502 161.5s-87.5 61.5 -143.5 61.5s-103.667 -19.667 -143 -59s-59 -92.5 -59 -159.5s19.833 -121.667 59.5 -164s87.334 -63.5 143.001 -63.5s103.334 20.5 143.001 61.5s59.5 94.833 59.5 161.5z" />
    <glyph glyph-name="h" unicode="h" horiz-adv-x="609" 
d="M145 740l-0.000976562 -282.999c36.667 66 97 99 181 99c60.667 0 111.334 -19.833 152.001 -59.5s61 -96.834 61 -171.501v-325h-69v312c0 60 -14.5 105.667 -43.5 137s-68.667 47 -119 47s-90 -15.667 -119 -47s-43.5 -77 -43.5 -137v-312h-70v740h70z" />
    <glyph glyph-name="i" unicode="i" horiz-adv-x="220" 
d="M147.5 664c-9.66699 -10 -21.667 -15 -36 -15s-26.5 5 -36.5 15s-15 22.167 -15 36.5s5 26.5 15 36.5s22.167 15 36.5 15s26.333 -5 36 -15s14.5 -22.167 14.5 -36.5s-4.83301 -26.5 -14.5 -36.5zM75 0v546h70v-546h-70z" />
    <glyph glyph-name="j" unicode="j" horiz-adv-x="220" 
d="M75 546h70v-674c0 -86.667 -42.667 -130 -128 -130h-53v56h38c27.333 0 46.333 5.5 57 16.5s16 30.167 16 57.5v674zM147.5 664c-9.66699 -10 -21.667 -15 -36 -15s-26.5 5 -36.5 15s-15 22.167 -15 36.5s5 26.5 15 36.5s22.167 15 36.5 15s26.333 -5 36 -15
s14.5 -22.167 14.5 -36.5s-4.83301 -26.5 -14.5 -36.5z" />
    <glyph glyph-name="k" unicode="k" horiz-adv-x="476" 
d="M145 0h-70v740h70v-438l220 244h101l-265 -270l265 -276h-96l-225 245v-245z" />
    <glyph glyph-name="l" unicode="l" horiz-adv-x="220" 
d="M75 0v740h70v-740h-70z" />
    <glyph glyph-name="m" unicode="m" horiz-adv-x="1003" 
d="M145 546v-88.999c36.667 66 97 99 181 99c43.333 0 82.166 -10.333 116.499 -31s59.833 -51 76.5 -91c18.667 38.667 45.5 68.667 80.5 90s75.167 32 120.5 32c60.667 0 111.334 -19.833 152.001 -59.5s61 -96.834 61 -171.501v-325h-69v312
c0 60 -14.5 105.667 -43.5 137s-68.667 47 -119 47s-90 -15.667 -119 -47s-43.5 -77 -43.5 -137v-312h-69v312c0 60 -14.5 105.667 -43.5 137s-68.667 47 -119 47s-90 -15.667 -119 -47s-43.5 -77 -43.5 -137v-312h-70v546h70z" />
    <glyph glyph-name="n" unicode="n" horiz-adv-x="609" 
d="M145 546l-0.000976562 -88.999c36.667 66 97 99 181 99c60.667 0 111.334 -19.833 152.001 -59.5s61 -96.834 61 -171.501v-325h-69v312c0 60 -14.5 105.667 -43.5 137s-68.667 47 -119 47s-90 -15.667 -119 -47s-43.5 -77 -43.5 -137v-312h-70v546h70z" />
    <glyph glyph-name="o" unicode="o" horiz-adv-x="626" 
d="M451 107c41.333 40.667 62 96.168 62 166.501s-19.667 125.666 -59 165.999s-87.333 60.5 -144 60.5s-104 -20 -142 -60s-57 -95.667 -57 -167s18 -127 54 -167s82.333 -60 139 -60s105.667 20.333 147 61zM113.5 68.001c-49 52 -73.5 120.169 -73.5 204.502
s26 152.666 78 204.999s117 78.5 195 78.5s143 -26.167 195 -78.5s78 -120.333 78 -204s-27.333 -151.834 -82 -204.501s-121.167 -79 -199.5 -79s-142 26 -191 78z" />
    <glyph glyph-name="p" unicode="p" horiz-adv-x="662" 
d="M490.5 113.5c39.667 42.333 59.498 97 59.498 164s-19.667 120.167 -59 159.5s-87.166 59 -143.499 59s-104.166 -20.5 -143.499 -61.5s-59 -94.833 -59 -161.5s19.667 -120.5 59 -161.5s87 -61.5 143 -61.5s103.833 21.167 143.5 63.5zM357.998 556
c76.667 0 139.833 -25.5 189.5 -76.5s74.5 -118.333 74.5 -202s-25 -152.5 -75 -206.5s-113 -81 -189 -81c-49.333 0 -92.666 12.167 -129.999 36.5s-65 55.5 -83 93.5v-378h-70v804h70v-119c18 38 45.667 69 83 93s80.666 36 129.999 36z" />
    <glyph glyph-name="q" unicode="q" horiz-adv-x="662" 
d="M517 273c0 66.667 -19.835 120.5 -59.502 161.5s-87.5 61.5 -143.5 61.5s-103.667 -19.667 -143 -59s-59 -92.5 -59 -159.5s19.833 -121.667 59.5 -164s87.334 -63.5 143.001 -63.5s103.334 20.5 143.001 61.5s59.5 94.833 59.5 161.5zM114.998 71
c-50 54 -75.001 122.833 -75.001 206.5s24.833 151 74.5 202s112.834 76.5 189.501 76.5c49.333 0 92.666 -12 129.999 -36s65 -55 83 -93v119h70v-804h-70v378c-18 -38 -45.667 -69.167 -83 -93.5s-80.666 -36.5 -129.999 -36.5c-76 0 -139 27 -189 81z" />
    <glyph glyph-name="r" unicode="r" horiz-adv-x="353" 
d="M145 546v-90c30 66.667 86.333 100 169 100v-73h-20c-48 0 -84.833 -13 -110.5 -39s-38.5 -70.667 -38.5 -134v-310h-70v546h70z" />
    <glyph glyph-name="s" unicode="s" horiz-adv-x="518" 
d="M60 395c0 45.333 18.668 83.4941 56.001 114.494s85 46.5 143 46.5s103.167 -15.167 135.5 -45.5s50.166 -72.166 53.499 -125.499h-72c-1.33301 33.333 -12.666 60.833 -33.999 82.5s-51 32.5 -89 32.5s-67.833 -9.33301 -89.5 -28s-32.5 -41.167 -32.5 -67.5
s8 -47.166 24 -62.499s36.167 -25.666 60.5 -30.999s50.666 -11.666 78.999 -18.999s54.666 -15.166 78.999 -23.499s44.5 -23.333 60.5 -45s24 -49.5 24 -83.5c0 -44 -18.333 -80 -55 -108s-84.834 -42 -144.501 -42s-106.834 15.333 -141.501 46
s-53.667 72.334 -57 125.001h72c1.33301 -34 13.333 -61.667 36 -83s53.834 -32 93.501 -32s70.5 8.5 92.5 25.5s33 38.833 33 65.5s-8 47.667 -24 63s-36.167 25.833 -60.5 31.5s-50.666 12.167 -78.999 19.5s-54.666 15 -78.999 23s-44.5 22.333 -60.5 43
s-24 46.667 -24 78z" />
    <glyph glyph-name="t" unicode="t" horiz-adv-x="339" 
d="M318 491h-151v-362c0 -27.333 5.33301 -46.5 16 -57.5s29.667 -16.5 57 -16.5h78v-55h-93c-85.333 0 -128 43 -128 129v362h-76v55h76v137h70v-137h151v-55z" />
    <glyph glyph-name="u" unicode="u" horiz-adv-x="609" 
d="M464 546l70.001 -0.000976562v-546h-70v89c-36.667 -66 -97 -99 -181 -99c-60.667 0 -111.334 19.833 -152.001 59.5s-61 96.834 -61 171.501v325h69v-312c0 -60 14.5 -105.667 43.5 -137s68.667 -47 119 -47s90 15.667 119 47s43.5 77 43.5 137v312z" />
    <glyph glyph-name="v" unicode="v" horiz-adv-x="537" 
d="M14 546h75l179 -477l180 477h75l-219 -546h-71z" />
    <glyph glyph-name="w" unicode="w" horiz-adv-x="792" 
d="M704 546h74l-174 -546h-71l-136 460l-136 -460h-71l-176 546h74l137 -471l141 471h70l132 -470z" />
    <glyph glyph-name="x" unicode="x" horiz-adv-x="459" 
d="M445 546l-176 -273l175 -273h-80l-141 219l-129 -219h-80l175 273l-175 273h80l141 -220l130 220h80z" />
    <glyph glyph-name="y" unicode="y" horiz-adv-x="535" 
d="M231 8l-217 538h75l180 -464l180 464h71l-324 -800h-71z" />
    <glyph glyph-name="z" unicode="z" horiz-adv-x="437" 
d="M396 546v-55l-279 -435h279v-56h-356v56l279 435h-279v55h356z" />
    <glyph glyph-name="braceleft" unicode="{" horiz-adv-x="556" 
d="M328 232c0 -20 -2.66699 -49.498 -8 -88.498s-8 -73.833 -8 -104.5c0 -128.667 42 -208.667 126 -240v-16h-69c-11.333 5.33301 -20.666 10 -27.999 14s-17.666 12.167 -30.999 24.5s-24 26.166 -32 41.499c-20.667 39.333 -31 92.333 -31 159c0 24 2.83301 57 8.5 99
s8.5 74.333 8.5 97c0 73.333 -33.667 118.666 -101 135.999v36c67.333 15.333 101 60.666 101 135.999c0 22.667 -2.83301 55 -8.5 97s-8.5 77.833 -8.5 107.5s3.16699 58.334 9.5 86.001s13.5 49.167 21.5 64.5s18.667 29.166 32 41.499s23.666 20.5 30.999 24.5
s16.666 8.66699 27.999 14h69v-16c-84 -31.333 -126 -111.333 -126 -240c0 -30.667 2.66699 -65.5 8 -104.5s8 -68.5 8 -88.5c0 -35.333 -8.66699 -65.5 -26 -90.5s-43.333 -41.167 -78 -48.5v-2c69.333 -13.333 104 -59.666 104 -138.999z" />
    <glyph glyph-name="bar" unicode="|" horiz-adv-x="280" 
d="M105 790h70v-890h-70v890z" />
    <glyph glyph-name="braceright" unicode="}" horiz-adv-x="556" 
d="M228 512c0 20 2.66699 49.498 8 88.498s8 73.833 8 104.5c0 128.667 -42 208.667 -126 240v16h69c11.333 -5.33301 20.666 -10 27.999 -14s17.666 -12.167 30.999 -24.5s24 -26.166 32 -41.499c20.667 -39.333 31 -92.333 31 -159c0 -24 -2.83301 -57 -8.5 -99
s-8.5 -74.333 -8.5 -97c0 -75.333 33.667 -120.666 101 -135.999v-36c-67.333 -17.333 -101 -62.666 -101 -135.999c0 -22.667 2.83301 -55 8.5 -97s8.5 -77.833 8.5 -107.5s-3.16699 -58.334 -9.5 -86.001s-13.5 -49.167 -21.5 -64.5s-18.667 -29.166 -32 -41.499
s-23.666 -20.5 -30.999 -24.5s-16.666 -8.66699 -27.999 -14h-69v16c84 31.333 126 111.333 126 240c0 30.667 -2.66699 65.5 -8 104.5s-8 68.5 -8 88.5c0 79.333 34.667 125.666 104 138.999v2c-34.667 7.33301 -60.667 23.5 -78 48.5s-26 55.167 -26 90.5z" />
    <glyph glyph-name="asciitilde" unicode="~" horiz-adv-x="491" 
d="M87 355c23.333 20.667 49.666 31 78.999 31s58.833 -10.667 88.5 -32s53.167 -32 70.5 -32s33.166 5.5 47.499 16.5s22.833 25.5 25.5 43.5h53c-8 -41.333 -23.667 -72.333 -47 -93s-49.666 -31 -78.999 -31s-58.666 10.667 -87.999 32s-52.833 32 -70.5 32
s-33.667 -5.5 -48 -16.5s-22.833 -25.5 -25.5 -43.5h-53c8 41.333 23.667 72.333 47 93z" />
    <glyph glyph-name="uni00A0" unicode="&#xa0;" horiz-adv-x="300" 
 />
    <glyph glyph-name="exclamdown" unicode="&#xa1;" horiz-adv-x="418" 
d="M171 -191l8 552h55l8 -552h-71zM209 556c13.333 0 24.833 -4.83301 34.5 -14.5s14.5 -21.167 14.5 -34.5s-4.83301 -24.833 -14.5 -34.5s-21.167 -14.5 -34.5 -14.5s-24.833 4.83301 -34.5 14.5s-14.5 21.167 -14.5 34.5s4.83301 24.833 14.5 34.5s21.167 14.5 34.5 14.5
z" />
    <glyph glyph-name="cent" unicode="&#xa2;" horiz-adv-x="737" 
d="M331 464c-58 0 -104.333 -18 -139 -54s-52 -85.333 -52 -148s17.333 -112 52 -148s81 -54 139 -54c84 0 137.667 33.667 161 101h65c-8 -42 -29.167 -78 -63.5 -108s-79.5 -47.333 -135.5 -52v-91h-55v91c-73.333 6 -129.666 34 -168.999 84s-59 109 -59 177
s19.667 127 59 177s95.666 78 168.999 84v91h55v-91c56 -4.66699 101.167 -22 135.5 -52s55.5 -66 63.5 -108h-65c-23.333 67.333 -77 101 -161 101z" />
    <glyph glyph-name="sterling" unicode="&#xa3;" horiz-adv-x="632" 
d="M534 60l0.000976562 -60.001h-426l-17 45c25.333 32.667 44.166 62.834 56.499 90.501s18.5 58 18.5 91s-3.66699 62.167 -11 87.5h-108v50h90c-16.667 42 -25 84.667 -25 128c0 60 19.833 109.667 59.5 149s91.5 59 155.5 59s112.833 -18.833 146.5 -56.5
s51.167 -86.167 52.5 -145.5h-62c0 43.333 -11.5 77.833 -34.5 103.5s-57 38.5 -102 38.5s-81.333 -12.167 -109 -36.5s-41.5 -62.833 -41.5 -115.5c0 -32.667 8.33301 -74 25 -124h203v-50h-186c8.66699 -30.667 13 -55.667 13 -75c0 -65.333 -22.667 -125 -68 -179h370z
" />
    <glyph glyph-name="currency" unicode="&#xa4;" horiz-adv-x="526" 
d="M404 479c18.667 -29.333 28.002 -63 28.002 -101s-9.66699 -72 -29 -102l63 -62l-39 -39l-62 62c-30.667 -23.333 -66.167 -35 -106.5 -35s-73.833 10.667 -100.5 32l-59 -59l-39 39l61 61c-18 28.667 -27 63 -27 103s9.66699 73.667 29 101l-63 62l39 39l61 -61
c29.333 22 63.666 33 102.999 33s73.666 -11 102.999 -33l61 61l39 -39zM181.002 281.5c20 -22.333 45.832 -33.499 77.499 -33.499s58.834 11.333 81.501 34s34 54.167 34 94.5s-11 72.166 -33 95.499s-48.667 35 -80 35s-57.5 -11.5 -78.5 -34.5s-31.5 -55 -31.5 -96
s10 -72.667 30 -95z" />
    <glyph glyph-name="yen" unicode="&#xa5;" horiz-adv-x="541" 
d="M506 372v-57l-179 -3l-21 -40v-75h200v-57h-200v-140h-70v140h-200v57h200v75l-21 40l-179 3v57h147l-168 318h75l180 -354l180 354h76l-167 -318h147z" />
    <glyph glyph-name="brokenbar" unicode="&#xa6;" horiz-adv-x="280" 
d="M175 420h-70v370h70v-370zM105 270h70v-370h-70v370z" />
    <glyph glyph-name="section" unicode="&#xa7;" horiz-adv-x="571" 
d="M480 544l-64 -0.00195312c-2 28 -13.667 51 -35 69s-52.666 27 -93.999 27c-93.333 0 -140 -32 -140 -96c0 -24 10.833 -43.333 32.5 -58s67.167 -32.5 136.5 -53.5s121 -45.667 155 -74s51 -64.666 51 -108.999s-14 -81.666 -42 -111.999s-65.667 -49.833 -113 -58.5
c26.667 -10.667 47.334 -20.167 62.001 -28.5s28.5 -21.5 41.5 -39.5s19.5 -39.333 19.5 -64c0 -43.333 -18.167 -79.166 -54.5 -107.499s-84.5 -42.5 -144.5 -42.5s-108.333 13.333 -145 40s-55 62.334 -55 107.001h64c2 -28 13.667 -51 35 -69s52.666 -27 93.999 -27
c93.333 0 140 32 140 96c0 24 -10.833 43.333 -32.5 58s-67.167 32.5 -136.5 53.5s-121 45.667 -155 74s-51 64.833 -51 109.5s14.167 82 42.5 112s65.833 49.333 112.5 58c-26.667 10.667 -47.334 20.167 -62.001 28.5s-28.5 21.5 -41.5 39.5s-19.5 39.333 -19.5 64
c0 43.333 18.167 79.166 54.5 107.499s84.5 42.5 144.5 42.5s108.333 -13.333 145 -40s55 -62.334 55 -107.001zM162 331.998c-30 -24 -45.001 -53.168 -45.001 -87.501s15.833 -63.666 47.5 -87.999s72.834 -36.5 123.501 -36.5s91 12 121 36s45 53.5 45 88.5
s-16 64.333 -48 88s-73.167 35.5 -123.5 35.5s-90.5 -12 -120.5 -36z" />
    <glyph glyph-name="dieresis" unicode="&#xa8;" horiz-adv-x="268" 
d="M209 620c-13.333 0 -24.833 4.83301 -34.5 14.5s-14.5 21.167 -14.5 34.5s4.83301 24.833 14.5 34.5s21.167 14.5 34.5 14.5s24.833 -4.83301 34.5 -14.5s14.5 -21.167 14.5 -34.5s-4.83301 -24.833 -14.5 -34.5s-21.167 -14.5 -34.5 -14.5zM59 620
c-13.333 0 -24.833 4.83301 -34.5 14.5s-14.5 21.167 -14.5 34.5s4.83301 24.833 14.5 34.5s21.167 14.5 34.5 14.5s24.833 -4.83301 34.5 -14.5s14.5 -21.167 14.5 -34.5s-4.83301 -24.833 -14.5 -34.5s-21.167 -14.5 -34.5 -14.5z" />
    <glyph glyph-name="copyright" unicode="&#xa9;" horiz-adv-x="790" 
d="M740 344c0 -104 -32 -189 -96 -255s-147 -99 -249 -99s-185 33 -249 99s-96 151 -96 255s32 188.833 96 254.5s147 98.5 249 98.5s185 -32.833 249 -98.5s96 -150.5 96 -254.5zM173 575c-54.667 -57.333 -82 -134.166 -82 -230.499s27.5 -173.5 82.5 -231.5
s128.833 -87 221.5 -87s166.5 29 221.5 87s82.5 135.167 82.5 231.5s-27.333 173.166 -82 230.499s-128.667 86 -222 86s-167.333 -28.667 -222 -86zM395 112c-60.667 0 -111.834 21.666 -153.501 64.999s-62.5 99.333 -62.5 168s20.833 124.667 62.5 168
s90.167 65 145.5 65s100.5 -12.667 135.5 -38s59.5 -60 73.5 -104h-71c-16.667 58 -60 87 -130 87c-42.667 0 -77.5 -14.667 -104.5 -44s-40.5 -73.666 -40.5 -132.999s13.667 -104 41 -134s62 -45 104 -45c66.667 0 110 29 130 87h71c-14 -42 -38.667 -76.167 -74 -102.5
s-77.666 -39.5 -126.999 -39.5z" />
    <glyph glyph-name="ordfeminine" unicode="&#xaa;" horiz-adv-x="445" 
d="M337 528c0 40 -11.667 72 -35 96s-51.5 36 -84.5 36s-61.333 -11.667 -85 -35s-35.5 -54.833 -35.5 -94.5s11.833 -72 35.5 -97s52 -37.5 85 -37.5s61.167 12 84.5 36s35 56 35 96zM35 531c0 52 15.832 94.667 47.499 128s70.834 50 117.501 50
c32 0 59.833 -7.16699 83.5 -21.5s41.5 -32.5 53.5 -54.5v70h58v-350h-58v71c-12 -22.667 -29.833 -41.167 -53.5 -55.5s-51.5 -21.5 -83.5 -21.5c-46 0 -85 17.667 -117 53s-48 79 -48 131z" />
    <glyph glyph-name="guillemotleft" unicode="&#xab;" horiz-adv-x="435" 
d="M283 295l102 -175h-71l-99 175l99 175h71zM113 295l102 -175h-71l-99 175l99 175h71z" />
    <glyph glyph-name="logicalnot" unicode="&#xac;" horiz-adv-x="729" 
d="M49 373v57h630v-200h-69v143h-561z" />
    <glyph glyph-name="uni00AD" unicode="&#xad;" horiz-adv-x="589" 
d="M100 340v60h389v-60h-389z" />
    <glyph glyph-name="registered" unicode="&#xae;" horiz-adv-x="790" 
d="M395 697c102 0 185 -32.833 249 -98.5s96 -150.5 96 -254.5s-32 -189 -96 -255s-147 -99 -249 -99s-185 33 -249 99s-96 151 -96 255s32 188.833 96 254.5s147 98.5 249 98.5zM395 26c92.667 0 166.5 29 221.5 87s82.5 135.167 82.5 231.5s-27.333 173.166 -82 230.499
s-128.667 86 -222 86s-167.333 -28.667 -222 -86s-82 -134.166 -82 -230.499s27.5 -173.5 82.5 -231.5s128.833 -87 221.5 -87zM255 589l144.001 -0.000976562c53.333 0 93.666 -12.5 120.999 -37.5s41 -56.833 41 -95.5s-10.667 -70.167 -32 -94.5s-53 -39.166 -95 -44.499
l133 -199h-62l-128 197h-74v-197h-48v471zM303.001 549.999v-196h96c75.333 0 113 32.667 113 98s-37.667 98 -113 98h-96z" />
    <glyph glyph-name="macron" unicode="&#xaf;" horiz-adv-x="359" 
d="M10 640v60h339v-60h-339z" />
    <glyph glyph-name="degree" unicode="&#xb0;" horiz-adv-x="398" 
d="M310 522c0 40 -11.001 71.667 -33.001 95s-48.667 35 -80 35s-57.5 -11.5 -78.5 -34.5s-31.5 -55 -31.5 -96s10 -72.667 30 -95s45.833 -33.5 77.5 -33.5s58.834 11.5 81.501 34.5s34 54.5 34 94.5zM75.499 395c-30.333 32 -45.499 74.168 -45.499 126.501
s16 94.666 48 126.999s72.333 48.5 121 48.5s89 -16.167 121 -48.5s48 -74.5 48 -126.5s-16.833 -94.167 -50.5 -126.5s-74.834 -48.5 -123.501 -48.5s-88.167 16 -118.5 48z" />
    <glyph glyph-name="plusminus" unicode="&#xb1;" horiz-adv-x="769" 
d="M639 380h-222v-184h222v-60h-509v60h222v184h-222v60h222v185h65v-185h222v-60z" />
    <glyph glyph-name="uni00B2" unicode="&#xb2;" horiz-adv-x="306" 
d="M258 402l-0.000976562 -49.999h-237v39l97 82c49.333 42.667 74 83 74 121c0 20 -5.66699 36 -17 48s-25.333 18 -42 18c-31.333 0 -49.666 -14.667 -54.999 -44h-58c2 27.333 12.667 49.666 32 66.999s46.5 26 81.5 26s63.667 -11.167 86 -33.5
s33.5 -47.666 33.5 -75.999s-6.83301 -52.833 -20.5 -73.5s-36.167 -44.334 -67.5 -71.001l-68 -53h161z" />
    <glyph glyph-name="uni00B3" unicode="&#xb3;" horiz-adv-x="317" 
d="M64.5 685.5c23.667 15.667 51.999 23.502 84.999 23.502s62.5 -9.83301 88.5 -29.5s39 -41.5 39 -65.5s-6 -43.167 -18 -57.5s-27.333 -24.5 -46 -30.5v-2c42.667 -13.333 64 -40 64 -80c0 -26.667 -12 -49.5 -36 -68.5s-55.333 -28.5 -94 -28.5
c-78 0 -120.333 33 -127 99h56c6 -35.333 29.333 -53 70 -53c20.667 0 37.5 5.16699 50.5 15.5s19.5 24.166 19.5 41.499s-6.5 30.833 -19.5 40.5s-29.833 14.5 -50.5 14.5h-48v43h48c21.333 0 38.333 4.66699 51 14s19 22.666 19 39.999s-6.16699 31.333 -18.5 42
s-29.166 16 -50.499 16c-34 0 -56 -12.333 -66 -37h-58c4 26 17.833 46.833 41.5 62.5z" />
    <glyph glyph-name="acute" unicode="&#xb4;" horiz-adv-x="225" 
d="M10 642l205 128v-70l-205 -115v57z" />
    <glyph glyph-name="uni00B5" unicode="&#xb5;" horiz-adv-x="614" 
d="M469 546h70v-546h-70v89c-36.667 -66 -97 -99 -181 -99c-58.667 0 -106.667 17.333 -144 52v-300h-69v804h69v-312c0 -60 14.5 -105.667 43.5 -137s68.667 -47 119 -47s90 15.667 119 47s43.5 77 43.5 137v312z" />
    <glyph glyph-name="paragraph" unicode="&#xb6;" horiz-adv-x="569" 
d="M276 690h218v-690h-70v633h-70v-633h-70v289h-8c-78 0 -136.833 18.333 -176.5 55s-59.5 85 -59.5 145s20 108.5 60 145.5s98.667 55.5 176 55.5z" />
    <glyph glyph-name="periodcentered" unicode="&#xb7;" horiz-adv-x="218" 
d="M109 300c-13.333 0 -24.833 4.83301 -34.5 14.5s-14.5 21.167 -14.5 34.5s4.83301 24.833 14.5 34.5s21.167 14.5 34.5 14.5s24.833 -4.83301 34.5 -14.5s14.5 -21.167 14.5 -34.5s-4.83301 -24.833 -14.5 -34.5s-21.167 -14.5 -34.5 -14.5z" />
    <glyph glyph-name="cedilla" unicode="&#xb8;" horiz-adv-x="253" 
d="M113 7v-64c40 0 71.667 -9.16699 95 -27.5s35 -42.5 35 -72.5s-11.5 -54.333 -34.5 -73s-53.5 -28 -91.5 -28h-107v55h105c37.333 0 56 15.167 56 45.5s-18.667 45.5 -56 45.5h-55v119h53z" />
    <glyph glyph-name="uni00B9" unicode="&#xb9;" horiz-adv-x="177" 
d="M69 352v309h-49v43h107v-352h-58z" />
    <glyph glyph-name="ordmasculine" unicode="&#xba;" horiz-adv-x="429" 
d="M295.5 429.5c24.333 23.667 36.5 56.499 36.5 98.499s-11.5 75 -34.5 99s-51.167 36 -84.5 36s-61 -12 -83 -36s-33 -57.167 -33 -99.5s10.5 -75.166 31.5 -98.499s48 -35 81 -35s61.667 11.833 86 35.5zM84.5 396.999c-33 33.333 -49.501 76.832 -49.501 130.499
s17.5 97.334 52.5 131.001s77.5 50.5 127.5 50.5s92.333 -16.833 127 -50.5s52 -77.167 52 -130.5s-18.167 -96.833 -54.5 -130.5s-79.666 -50.5 -129.999 -50.5s-92 16.667 -125 50z" />
    <glyph glyph-name="guillemotright" unicode="&#xbb;" horiz-adv-x="435" 
d="M121 120h-71l102 175l-102 175h71l99 -175zM291 120h-71l102 175l-102 175h71l99 -175z" />
    <glyph glyph-name="onequarter" unicode="&#xbc;" horiz-adv-x="600" 
d="M79 352v309h-49v43h107v-352h-58zM447 113v179l-116 -179h116zM505 113h50v-42h-50v-71h-58v71h-178v35l163 248h73v-241zM44 0l380 690h62l-380 -690h-62z" />
    <glyph glyph-name="onehalf" unicode="&#xbd;" horiz-adv-x="607" 
d="M577 49l-0.000976562 -49.999h-237v39l97 82c49.333 42.667 74 83 74 121c0 20 -5.66699 36 -17 48s-25.333 18 -42 18c-31.333 0 -49.666 -14.667 -54.999 -44h-58c2 27.333 12.667 49.666 32 66.999s46.5 26 81.5 26s63.667 -11.167 86 -33.5
s33.5 -47.666 33.5 -75.999s-6.83301 -52.833 -20.5 -73.5s-36.167 -44.334 -67.5 -71.001l-68 -53h161zM403.999 690.001h62l-360 -690h-62zM78.999 352.001v309h-49v43h107v-352h-58z" />
    <glyph glyph-name="threequarters" unicode="&#xbe;" horiz-adv-x="625" 
d="M64.5 685.5c23.667 15.667 51.999 23.502 84.999 23.502s62.5 -9.83301 88.5 -29.5s39 -41.5 39 -65.5s-6 -43.167 -18 -57.5s-27.333 -24.5 -46 -30.5v-2c42.667 -13.333 64 -40 64 -80c0 -26.667 -12 -49.5 -36 -68.5s-55.333 -28.5 -94 -28.5
c-78 0 -120.333 33 -127 99h56c6 -35.333 29.333 -53 70 -53c20.667 0 37.5 5.16699 50.5 15.5s19.5 24.166 19.5 41.499s-6.5 30.833 -19.5 40.5s-29.833 14.5 -50.5 14.5h-48v43h48c21.333 0 38.333 4.66699 51 14s19 22.666 19 39.999s-6.16699 31.333 -18.5 42
s-29.166 16 -50.499 16c-34 0 -56 -12.333 -66 -37h-58c4 26 17.833 46.833 41.5 62.5zM486.999 113.002v179l-116 -179h116zM544.999 113.002h50v-42h-50v-71h-58v71h-178v35l163 248h73v-241zM87.999 0.00195312l416 690h62l-416 -690h-62z" />
    <glyph glyph-name="questiondown" unicode="&#xbf;" horiz-adv-x="619" 
d="M415 507c0 -13.333 -4.83301 -24.833 -14.5 -34.5s-21.167 -14.5 -34.5 -14.5s-24.833 4.83301 -34.5 14.5s-14.5 21.167 -14.5 34.5s4.83301 24.833 14.5 34.5s21.167 14.5 34.5 14.5s24.833 -4.83301 34.5 -14.5s14.5 -21.167 14.5 -34.5zM518 7
c0 -60.667 -19.833 -108.833 -59.5 -144.5s-91.5 -53.5 -155.5 -53.5s-115.167 18.167 -153.5 54.5s-57.5 88.666 -57.5 156.999s20 118.333 60 150s101 47.834 183 48.501v142h66v-194h-33c-71.333 0.666992 -124.333 -9.5 -159 -30.5s-52 -62.5 -52 -124.5
c0 -45.333 13 -80.5 39 -105.5s62 -37.5 108 -37.5s82.333 12 109 36s40 58 40 102h65z" />
    <glyph glyph-name="Agrave" unicode="&#xc0;" horiz-adv-x="685" 
d="M562 0l-58 161h-322l-59 -161h-70l254 690h72l253 -690h-70zM202 217h281l-140 386zM435 786v-57l-205 115v70z" />
    <glyph glyph-name="Aacute" unicode="&#xc1;" horiz-adv-x="685" 
d="M562 0l-58 161h-322l-59 -161h-70l254 690h72l253 -690h-70zM202 217h281l-140 386zM435 914v-70l-205 -115v57z" />
    <glyph glyph-name="Acircumflex" unicode="&#xc2;" horiz-adv-x="685" 
d="M562 0l-58 161h-322l-59 -161h-70l254 690h72l253 -690h-70zM202 217h281l-140 386zM477 742l-134 85l-134 -85v66l134 82l134 -82v-66z" />
    <glyph glyph-name="Atilde" unicode="&#xc3;" horiz-adv-x="685" 
d="M562 0l-58 161h-322l-59 -161h-70l254 690h72l253 -690h-70zM202 217h281l-140 386zM467 772c-18 -16.667 -37.667 -25 -59 -25s-42 7.33301 -62 22s-36 22 -48 22c-26 0 -40.333 -13.667 -43 -41h-50c3.33301 28.667 14 51.334 32 68.001s37.667 25 59 25
s42 -7.33301 62 -22s36 -22 48 -22c26 0 40.333 13.667 43 41h50c-3.33301 -28.667 -14 -51.334 -32 -68.001z" />
    <glyph glyph-name="Adieresis" unicode="&#xc4;" horiz-adv-x="685" 
d="M562 0l-58 161h-322l-59 -161h-70l254 690h72l253 -690h-70zM202 217h281l-140 386zM268 764c-13.333 0 -24.833 4.83301 -34.5 14.5s-14.5 21.167 -14.5 34.5s4.83301 24.833 14.5 34.5s21.167 14.5 34.5 14.5s24.833 -4.83301 34.5 -14.5s14.5 -21.167 14.5 -34.5
s-4.83301 -24.833 -14.5 -34.5s-21.167 -14.5 -34.5 -14.5zM418 764c-13.333 0 -24.833 4.83301 -34.5 14.5s-14.5 21.167 -14.5 34.5s4.83301 24.833 14.5 34.5s21.167 14.5 34.5 14.5s24.833 -4.83301 34.5 -14.5s14.5 -21.167 14.5 -34.5s-4.83301 -24.833 -14.5 -34.5
s-21.167 -14.5 -34.5 -14.5z" />
    <glyph glyph-name="Aring" unicode="&#xc5;" horiz-adv-x="685" 
d="M562 0l-58 161h-322l-59 -161h-70l254 690h72l253 -690h-70zM202 217h281l-140 386zM343 754c-28.667 0 -52.5 9.16699 -71.5 27.5s-28.5 42.5 -28.5 72.5s9.5 54.167 28.5 72.5s42.833 27.5 71.5 27.5s52.5 -9.16699 71.5 -27.5s28.5 -42.5 28.5 -72.5
s-9.5 -54.167 -28.5 -72.5s-42.833 -27.5 -71.5 -27.5zM343 908c-15.333 0 -28 -4.83301 -38 -14.5s-15 -22.5 -15 -38.5s5 -29 15 -39s22.667 -15 38 -15s28.166 5 38.499 15s15.5 23 15.5 39s-5.16699 28.833 -15.5 38.5s-23.166 14.5 -38.499 14.5z" />
    <glyph glyph-name="AE" unicode="&#xc6;" horiz-adv-x="873" 
d="M812 633h-281v-258h251v-56h-251v-263h281v-56h-351v161h-277l-94 -161h-76l406 690h392v-57zM461 217v419l-244 -419h244z" />
    <glyph glyph-name="Ccedilla" unicode="&#xc7;" horiz-adv-x="780" 
d="M391 636c-80.667 0 -147.335 -26.6689 -200.002 -80.002s-79 -123.666 -79 -210.999s26.333 -157.666 79 -210.999s119.334 -80 200.001 -80c50.667 0 96 11.167 136 33.5s70.667 53.833 92 94.5h85c-26 -57.333 -64 -101.833 -114 -133.5s-107.333 -49.5 -172 -53.5v-52
c40 0 71.667 -9.16699 95 -27.5s35 -42.5 35 -72.5s-11.5 -54.333 -34.5 -73s-53.5 -28 -91.5 -28h-107v55h105c37.333 0 56 15.167 56 45.5s-18.667 45.5 -56 45.5h-55v107c-92.667 6 -170 41.5 -232 106.5s-93 147.333 -93 247s33.833 182.667 101.5 249
s150.834 99.5 249.501 99.5c70.667 0 133.5 -16 188.5 -48s96.5 -78.667 124.5 -140h-85c-21.333 40.667 -52 72 -92 94s-85.333 33 -136 33z" />
    <glyph glyph-name="Egrave" unicode="&#xc8;" horiz-adv-x="487" 
d="M131 844v70l205 -128v-57zM426 690v-57h-281v-258h251v-56h-251v-263h281v-56h-351v690h351z" />
    <glyph glyph-name="Eacute" unicode="&#xc9;" horiz-adv-x="487" 
d="M426 690v-57h-281v-258h251v-56h-251v-263h281v-56h-351v690h351zM131 786l205 128v-70l-205 -115v57z" />
    <glyph glyph-name="Ecircumflex" unicode="&#xca;" horiz-adv-x="487" 
d="M426 690v-57h-281v-258h251v-56h-251v-263h281v-56h-351v690h351zM378 808v-66l-134 85l-134 -85v66l134 82z" />
    <glyph glyph-name="Edieresis" unicode="&#xcb;" horiz-adv-x="487" 
d="M426 690v-57h-281v-258h251v-56h-251v-263h281v-56h-351v690h351zM319 764c-13.333 0 -24.833 4.83301 -34.5 14.5s-14.5 21.167 -14.5 34.5s4.83301 24.833 14.5 34.5s21.167 14.5 34.5 14.5s24.833 -4.83301 34.5 -14.5s14.5 -21.167 14.5 -34.5
s-4.83301 -24.833 -14.5 -34.5s-21.167 -14.5 -34.5 -14.5zM169 764c-13.333 0 -24.833 4.83301 -34.5 14.5s-14.5 21.167 -14.5 34.5s4.83301 24.833 14.5 34.5s21.167 14.5 34.5 14.5s24.833 -4.83301 34.5 -14.5s14.5 -21.167 14.5 -34.5s-4.83301 -24.833 -14.5 -34.5
s-21.167 -14.5 -34.5 -14.5z" />
    <glyph glyph-name="Igrave" unicode="&#xcc;" horiz-adv-x="220" 
d="M-3 844v70l205 -128v-57zM75 0v690h70v-690h-70z" />
    <glyph glyph-name="Iacute" unicode="&#xcd;" horiz-adv-x="220" 
d="M-3 786l205 128v-70l-205 -115v57zM75 0v690h70v-690h-70z" />
    <glyph glyph-name="Icircumflex" unicode="&#xce;" horiz-adv-x="220" 
d="M244 808v-66l-134 85l-134 -85v66l134 82zM75 0v690h70v-690h-70z" />
    <glyph glyph-name="Idieresis" unicode="&#xcf;" horiz-adv-x="220" 
d="M185 764c-13.333 0 -24.833 4.83301 -34.5 14.5s-14.5 21.167 -14.5 34.5s4.83301 24.833 14.5 34.5s21.167 14.5 34.5 14.5s24.833 -4.83301 34.5 -14.5s14.5 -21.167 14.5 -34.5s-4.83301 -24.833 -14.5 -34.5s-21.167 -14.5 -34.5 -14.5zM35 764
c-13.333 0 -24.833 4.83301 -34.5 14.5s-14.5 21.167 -14.5 34.5s4.83301 24.833 14.5 34.5s21.167 14.5 34.5 14.5s24.833 -4.83301 34.5 -14.5s14.5 -21.167 14.5 -34.5s-4.83301 -24.833 -14.5 -34.5s-21.167 -14.5 -34.5 -14.5zM75 0v690h70v-690h-70z" />
    <glyph glyph-name="Eth" unicode="&#xd0;" horiz-adv-x="705" 
d="M95 690h212c111.333 0 198.5 -30.833 261.5 -92.5s94.5 -147.167 94.5 -256.5s-31.333 -193.5 -94 -252.5s-150 -88.5 -262 -88.5h-212v311h-95v60h95v319zM165 54h142c92.667 0 163.167 25.167 211.5 75.5s72.5 120.833 72.5 211.5s-24.167 161.167 -72.5 211.5
s-118.833 75.5 -211.5 75.5h-142v-257h204v-60h-204v-257z" />
    <glyph glyph-name="Ntilde" unicode="&#xd1;" horiz-adv-x="677" 
d="M233 818c18 16.667 37.667 25 59 25s42 -7.33301 62 -22s36 -22 48 -22c26 0 40.333 13.667 43 41h50c-3.33301 -28.667 -14 -51.334 -32 -68.001s-37.667 -25 -59 -25s-42 7.33301 -62 22s-36 22 -48 22c-26 0 -40.333 -13.667 -43 -41h-50
c3.33301 28.667 14 51.334 32 68.001zM532 690h70v-690h-70l-387 578v-578h-70v690h70l387 -578v578z" />
    <glyph glyph-name="Ograve" unicode="&#xd2;" horiz-adv-x="781" 
d="M278 844v70l205 -128v-57zM670 345c0 87.333 -26.332 157.666 -78.999 210.999s-119.334 80 -200.001 80s-147.5 -26.667 -200.5 -80s-79.5 -123.666 -79.5 -210.999s26.5 -157.833 79.5 -211.5s119.667 -80.5 200 -80.5s147 26.833 200 80.5s79.5 124.167 79.5 211.5z
M40.001 345c0 102 33.833 186.167 101.5 252.5s151 99.5 250 99.5s182.167 -33.167 249.5 -99.5s101 -150.5 101 -252.5s-33.667 -186.167 -101 -252.5s-150.5 -99.5 -249.5 -99.5s-182.333 33.167 -250 99.5s-101.5 150.5 -101.5 252.5z" />
    <glyph glyph-name="Oacute" unicode="&#xd3;" horiz-adv-x="781" 
d="M670 345c0 87.333 -26.332 157.666 -78.999 210.999s-119.334 80 -200.001 80s-147.5 -26.667 -200.5 -80s-79.5 -123.666 -79.5 -210.999s26.5 -157.833 79.5 -211.5s119.667 -80.5 200 -80.5s147 26.833 200 80.5s79.5 124.167 79.5 211.5zM40.001 345
c0 102 33.833 186.167 101.5 252.5s151 99.5 250 99.5s182.167 -33.167 249.5 -99.5s101 -150.5 101 -252.5s-33.667 -186.167 -101 -252.5s-150.5 -99.5 -249.5 -99.5s-182.333 33.167 -250 99.5s-101.5 150.5 -101.5 252.5zM278.001 786l205 128v-70l-205 -115v57z" />
    <glyph glyph-name="Ocircumflex" unicode="&#xd4;" horiz-adv-x="781" 
d="M670 345c0 87.333 -26.332 157.666 -78.999 210.999s-119.334 80 -200.001 80s-147.5 -26.667 -200.5 -80s-79.5 -123.666 -79.5 -210.999s26.5 -157.833 79.5 -211.5s119.667 -80.5 200 -80.5s147 26.833 200 80.5s79.5 124.167 79.5 211.5zM40.001 345
c0 102 33.833 186.167 101.5 252.5s151 99.5 250 99.5s182.167 -33.167 249.5 -99.5s101 -150.5 101 -252.5s-33.667 -186.167 -101 -252.5s-150.5 -99.5 -249.5 -99.5s-182.333 33.167 -250 99.5s-101.5 150.5 -101.5 252.5zM525.001 808v-66l-134 85l-134 -85v66l134 82z
" />
    <glyph glyph-name="Otilde" unicode="&#xd5;" horiz-adv-x="781" 
d="M285 818c18 16.667 37.667 25 59 25s42 -7.33301 62 -22s36 -22 48 -22c26 0 40.333 13.667 43 41h50c-3.33301 -28.667 -14 -51.334 -32 -68.001s-37.667 -25 -59 -25s-42 7.33301 -62 22s-36 22 -48 22c-26 0 -40.333 -13.667 -43 -41h-50
c3.33301 28.667 14 51.334 32 68.001zM670 345c0 87.333 -26.332 157.666 -78.999 210.999s-119.334 80 -200.001 80s-147.5 -26.667 -200.5 -80s-79.5 -123.666 -79.5 -210.999s26.5 -157.833 79.5 -211.5s119.667 -80.5 200 -80.5s147 26.833 200 80.5
s79.5 124.167 79.5 211.5zM40.001 345c0 102 33.833 186.167 101.5 252.5s151 99.5 250 99.5s182.167 -33.167 249.5 -99.5s101 -150.5 101 -252.5s-33.667 -186.167 -101 -252.5s-150.5 -99.5 -249.5 -99.5s-182.333 33.167 -250 99.5s-101.5 150.5 -101.5 252.5z" />
    <glyph glyph-name="Odieresis" unicode="&#xd6;" horiz-adv-x="781" 
d="M670 345c0 87.333 -26.332 157.666 -78.999 210.999s-119.334 80 -200.001 80s-147.5 -26.667 -200.5 -80s-79.5 -123.666 -79.5 -210.999s26.5 -157.833 79.5 -211.5s119.667 -80.5 200 -80.5s147 26.833 200 80.5s79.5 124.167 79.5 211.5zM40.001 345
c0 102 33.833 186.167 101.5 252.5s151 99.5 250 99.5s182.167 -33.167 249.5 -99.5s101 -150.5 101 -252.5s-33.667 -186.167 -101 -252.5s-150.5 -99.5 -249.5 -99.5s-182.333 33.167 -250 99.5s-101.5 150.5 -101.5 252.5zM466.001 764
c-13.333 0 -24.833 4.83301 -34.5 14.5s-14.5 21.167 -14.5 34.5s4.83301 24.833 14.5 34.5s21.167 14.5 34.5 14.5s24.833 -4.83301 34.5 -14.5s14.5 -21.167 14.5 -34.5s-4.83301 -24.833 -14.5 -34.5s-21.167 -14.5 -34.5 -14.5zM316.001 764
c-13.333 0 -24.833 4.83301 -34.5 14.5s-14.5 21.167 -14.5 34.5s4.83301 24.833 14.5 34.5s21.167 14.5 34.5 14.5s24.833 -4.83301 34.5 -14.5s14.5 -21.167 14.5 -34.5s-4.83301 -24.833 -14.5 -34.5s-21.167 -14.5 -34.5 -14.5z" />
    <glyph glyph-name="multiply" unicode="&#xd7;" horiz-adv-x="736" 
d="M576 530l-163 -162l162 -162l-43 -43l-162 163l-164 -163l-46 46l164 163l-161 161l43 43l161 -162l163 162z" />
    <glyph glyph-name="Oslash" unicode="&#xd8;" horiz-adv-x="781" 
d="M654 584c58.667 -65.333 87.998 -147 87.998 -245s-33.667 -180.167 -101 -246.5s-150.666 -99.5 -249.999 -99.5c-82.667 0 -155.667 24.333 -219 73l-62 -66h-81l99 107c-58.667 65.333 -88 146.833 -88 244.5s33.833 179.667 101.5 246s150.834 99.5 249.501 99.5
c84.667 0 158 -24.333 220 -73l61 66h81zM390.998 636c-80.667 0 -147.499 -26.668 -200.499 -80.001s-79.5 -120.666 -79.5 -201.999s20.667 -148 62 -200l394 423c-48.667 39.333 -107.334 59 -176.001 59zM214.999 111.999c48.667 -39.333 110.167 -58.999 184.5 -58.999
s138 26.833 191 80.5s79.5 121.167 79.5 202.5s-20.333 147.666 -61 198.999z" />
    <glyph glyph-name="Ugrave" unicode="&#xd9;" horiz-adv-x="658" 
d="M216 844v70l205 -128v-57zM75 232l0.000976562 458h70v-458c0 -61.333 16.5 -106.833 49.5 -136.5s78.167 -44.5 135.5 -44.5s102.333 14.833 135 44.5s49 75.167 49 136.5v458h70v-458c0 -78.667 -23.667 -138.167 -71 -178.5s-108.333 -60.5 -183 -60.5
s-135.834 20.167 -183.501 60.5s-71.5 99.833 -71.5 178.5z" />
    <glyph glyph-name="Uacute" unicode="&#xda;" horiz-adv-x="658" 
d="M75 232l0.000976562 458h70v-458c0 -61.333 16.5 -106.833 49.5 -136.5s78.167 -44.5 135.5 -44.5s102.333 14.833 135 44.5s49 75.167 49 136.5v458h70v-458c0 -78.667 -23.667 -138.167 -71 -178.5s-108.333 -60.5 -183 -60.5s-135.834 20.167 -183.501 60.5
s-71.5 99.833 -71.5 178.5zM216.001 786l205 128v-70l-205 -115v57z" />
    <glyph glyph-name="Ucircumflex" unicode="&#xdb;" horiz-adv-x="658" 
d="M75 232l0.000976562 458h70v-458c0 -61.333 16.5 -106.833 49.5 -136.5s78.167 -44.5 135.5 -44.5s102.333 14.833 135 44.5s49 75.167 49 136.5v458h70v-458c0 -78.667 -23.667 -138.167 -71 -178.5s-108.333 -60.5 -183 -60.5s-135.834 20.167 -183.501 60.5
s-71.5 99.833 -71.5 178.5zM463.001 808v-66l-134 85l-134 -85v66l134 82z" />
    <glyph glyph-name="Udieresis" unicode="&#xdc;" horiz-adv-x="658" 
d="M75 232l0.000976562 458h70v-458c0 -61.333 16.5 -106.833 49.5 -136.5s78.167 -44.5 135.5 -44.5s102.333 14.833 135 44.5s49 75.167 49 136.5v458h70v-458c0 -78.667 -23.667 -138.167 -71 -178.5s-108.333 -60.5 -183 -60.5s-135.834 20.167 -183.501 60.5
s-71.5 99.833 -71.5 178.5zM404.001 764c-13.333 0 -24.833 4.83301 -34.5 14.5s-14.5 21.167 -14.5 34.5s4.83301 24.833 14.5 34.5s21.167 14.5 34.5 14.5s24.833 -4.83301 34.5 -14.5s14.5 -21.167 14.5 -34.5s-4.83301 -24.833 -14.5 -34.5s-21.167 -14.5 -34.5 -14.5z
M254.001 764c-13.333 0 -24.833 4.83301 -34.5 14.5s-14.5 21.167 -14.5 34.5s4.83301 24.833 14.5 34.5s21.167 14.5 34.5 14.5s24.833 -4.83301 34.5 -14.5s14.5 -21.167 14.5 -34.5s-4.83301 -24.833 -14.5 -34.5s-21.167 -14.5 -34.5 -14.5z" />
    <glyph glyph-name="Yacute" unicode="&#xdd;" horiz-adv-x="541" 
d="M306 0h-70v272l-221 418h75l180 -354l180 354h76l-220 -418v-272zM363 914v-70l-205 -115v57z" />
    <glyph glyph-name="Thorn" unicode="&#xde;" horiz-adv-x="562" 
d="M522 345c0 -60 -19.833 -108.333 -59.5 -145s-98.5 -55 -176.5 -55h-141v-145h-70v690h70v-144h141c77.333 0 136 -18.5 176 -55.5s60 -85.5 60 -145.5zM145 202h141c110 0 165 47.833 165 143.5s-55 143.5 -165 143.5h-141v-287z" />
    <glyph glyph-name="germandbls" unicode="&#xdf;" horiz-adv-x="631" 
d="M600 167c0 -54.667 -19.165 -97.833 -57.498 -129.5s-82 -47.5 -131 -47.5s-92 14.5 -129 43.5s-55.5 68.833 -55.5 119.5h66c2 -30 13.167 -54.333 33.5 -73s49 -28 86 -28s65.5 11.167 85.5 33.5s30 49.5 30 81.5c0 48 -30.333 92 -91 132l-161 105v42l37 19
c45.333 23.333 68 60 68 110c0 33.333 -10.833 60.833 -32.5 82.5s-49.5 32.5 -83.5 32.5s-62.5 -11.333 -85.5 -34s-34.5 -52.334 -34.5 -89.001v-567h-70v563c0 56.667 18.167 102 54.5 136s83.166 51 140.499 51s102.166 -16.5 134.499 -49.5s48.5 -72.167 48.5 -117.5
c0 -63.333 -31.667 -112 -95 -146l112 -72c46.667 -29.333 80 -59.166 100 -89.499s30 -66.5 30 -108.5z" />
    <glyph glyph-name="agrave" unicode="&#xe0;" horiz-adv-x="662" 
d="M218 700v70l205 -128v-57zM517 273c0 66.667 -19.835 120.5 -59.502 161.5s-87.5 61.5 -143.5 61.5s-103.667 -19.667 -143 -59s-59 -92.5 -59 -159.5s19.833 -121.667 59.5 -164s87.334 -63.5 143.001 -63.5s103.334 20.5 143.001 61.5s59.5 94.833 59.5 161.5z
M114.998 71c-50 54 -75.001 122.833 -75.001 206.5s24.833 151 74.5 202s112.834 76.5 189.501 76.5c49.333 0 92.666 -12 129.999 -36s65 -55 83 -93v119h70v-546h-70v120c-18 -38 -45.667 -69.167 -83 -93.5s-80.666 -36.5 -129.999 -36.5c-76 0 -139 27 -189 81z" />
    <glyph glyph-name="aacute" unicode="&#xe1;" horiz-adv-x="662" 
d="M218 642l205 128v-70l-205 -115v57zM517 273c0 66.667 -19.835 120.5 -59.502 161.5s-87.5 61.5 -143.5 61.5s-103.667 -19.667 -143 -59s-59 -92.5 -59 -159.5s19.833 -121.667 59.5 -164s87.334 -63.5 143.001 -63.5s103.334 20.5 143.001 61.5s59.5 94.833 59.5 161.5
zM114.998 71c-50 54 -75.001 122.833 -75.001 206.5s24.833 151 74.5 202s112.834 76.5 189.501 76.5c49.333 0 92.666 -12 129.999 -36s65 -55 83 -93v119h70v-546h-70v120c-18 -38 -45.667 -69.167 -83 -93.5s-80.666 -36.5 -129.999 -36.5c-76 0 -139 27 -189 81z" />
    <glyph glyph-name="acircumflex" unicode="&#xe2;" horiz-adv-x="662" 
d="M465 664v-66l-134 85l-134 -85v66l134 82zM517 273c0 66.667 -19.835 120.5 -59.502 161.5s-87.5 61.5 -143.5 61.5s-103.667 -19.667 -143 -59s-59 -92.5 -59 -159.5s19.833 -121.667 59.5 -164s87.334 -63.5 143.001 -63.5s103.334 20.5 143.001 61.5
s59.5 94.833 59.5 161.5zM114.998 71c-50 54 -75.001 122.833 -75.001 206.5s24.833 151 74.5 202s112.834 76.5 189.501 76.5c49.333 0 92.666 -12 129.999 -36s65 -55 83 -93v119h70v-546h-70v120c-18 -38 -45.667 -69.167 -83 -93.5s-80.666 -36.5 -129.999 -36.5
c-76 0 -139 27 -189 81z" />
    <glyph glyph-name="atilde" unicode="&#xe3;" horiz-adv-x="662" 
d="M225 674c18 16.667 37.667 25 59 25s42 -7.33301 62 -22s36 -22 48 -22c26 0 40.333 13.667 43 41h50c-3.33301 -28.667 -14 -51.334 -32 -68.001s-37.667 -25 -59 -25s-42 7.33301 -62 22s-36 22 -48 22c-26 0 -40.333 -13.667 -43 -41h-50
c3.33301 28.667 14 51.334 32 68.001zM517 273c0 66.667 -19.835 120.5 -59.502 161.5s-87.5 61.5 -143.5 61.5s-103.667 -19.667 -143 -59s-59 -92.5 -59 -159.5s19.833 -121.667 59.5 -164s87.334 -63.5 143.001 -63.5s103.334 20.5 143.001 61.5s59.5 94.833 59.5 161.5z
M114.998 71c-50 54 -75.001 122.833 -75.001 206.5s24.833 151 74.5 202s112.834 76.5 189.501 76.5c49.333 0 92.666 -12 129.999 -36s65 -55 83 -93v119h70v-546h-70v120c-18 -38 -45.667 -69.167 -83 -93.5s-80.666 -36.5 -129.999 -36.5c-76 0 -139 27 -189 81z" />
    <glyph glyph-name="adieresis" unicode="&#xe4;" horiz-adv-x="662" 
d="M406 620c-13.333 0 -24.833 4.83301 -34.5 14.5s-14.5 21.167 -14.5 34.5s4.83301 24.833 14.5 34.5s21.167 14.5 34.5 14.5s24.833 -4.83301 34.5 -14.5s14.5 -21.167 14.5 -34.5s-4.83301 -24.833 -14.5 -34.5s-21.167 -14.5 -34.5 -14.5zM256 620
c-13.333 0 -24.833 4.83301 -34.5 14.5s-14.5 21.167 -14.5 34.5s4.83301 24.833 14.5 34.5s21.167 14.5 34.5 14.5s24.833 -4.83301 34.5 -14.5s14.5 -21.167 14.5 -34.5s-4.83301 -24.833 -14.5 -34.5s-21.167 -14.5 -34.5 -14.5zM517 273
c0 66.667 -19.835 120.5 -59.502 161.5s-87.5 61.5 -143.5 61.5s-103.667 -19.667 -143 -59s-59 -92.5 -59 -159.5s19.833 -121.667 59.5 -164s87.334 -63.5 143.001 -63.5s103.334 20.5 143.001 61.5s59.5 94.833 59.5 161.5zM114.998 71
c-50 54 -75.001 122.833 -75.001 206.5s24.833 151 74.5 202s112.834 76.5 189.501 76.5c49.333 0 92.666 -12 129.999 -36s65 -55 83 -93v119h70v-546h-70v120c-18 -38 -45.667 -69.167 -83 -93.5s-80.666 -36.5 -129.999 -36.5c-76 0 -139 27 -189 81z" />
    <glyph glyph-name="aring" unicode="&#xe5;" horiz-adv-x="662" 
d="M385 711c0 16 -5.16699 28.833 -15.5 38.5s-23.166 14.5 -38.499 14.5s-28 -4.83301 -38 -14.5s-15 -22.5 -15 -38.5s5 -29 15 -39s22.667 -15 38 -15s28.166 5 38.499 15s15.5 23 15.5 39zM231 710c0 30 9.5 54.167 28.5 72.5s42.833 27.5 71.5 27.5
s52.5 -9.16699 71.5 -27.5s28.5 -42.5 28.5 -72.5s-9.5 -54.167 -28.5 -72.5s-42.833 -27.5 -71.5 -27.5s-52.5 9.16699 -71.5 27.5s-28.5 42.5 -28.5 72.5zM517 273c0 66.667 -19.835 120.5 -59.502 161.5s-87.5 61.5 -143.5 61.5s-103.667 -19.667 -143 -59
s-59 -92.5 -59 -159.5s19.833 -121.667 59.5 -164s87.334 -63.5 143.001 -63.5s103.334 20.5 143.001 61.5s59.5 94.833 59.5 161.5zM114.998 71c-50 54 -75.001 122.833 -75.001 206.5s24.833 151 74.5 202s112.834 76.5 189.501 76.5c49.333 0 92.666 -12 129.999 -36
s65 -55 83 -93v119h70v-546h-70v120c-18 -38 -45.667 -69.167 -83 -93.5s-80.666 -36.5 -129.999 -36.5c-76 0 -139 27 -189 81z" />
    <glyph glyph-name="ae" unicode="&#xe6;" horiz-adv-x="1080" 
d="M584 546l0.00195312 -92.999c25.333 38 54.166 64.667 86.499 80s71.166 23 116.499 23c76 0 137.333 -24.333 184 -73s70 -109 70 -181c0 -19.333 -1.33301 -37.333 -4 -54h-455c4.66699 -60.667 26.167 -109.5 64.5 -146.5s81.166 -55.5 128.499 -55.5
s84.833 9.66699 112.5 29s47.5 44.666 59.5 75.999h75c-18 -46.667 -47.333 -85.167 -88 -115.5s-92.667 -45.5 -156 -45.5c-40 0 -77.167 9.5 -111.5 28.5s-61.833 44.833 -82.5 77.5v-96h-70v97c-20.667 -32 -49.667 -57.833 -87 -77.5s-78.333 -29.5 -123 -29.5
c-76 0 -139 27 -189 81s-75 123 -75 207s25.5 151.333 76.5 202s116.833 76 197.5 76c90.667 0 157.334 -34.333 200.001 -103v93h70zM171.502 113.501c39.667 -42.333 87.332 -63.5 142.999 -63.5s103.334 20.5 143.001 61.5s59.5 94.833 59.5 161.5
s-19.833 120.5 -59.5 161.5s-87.5 61.5 -143.5 61.5s-103.667 -19.667 -143 -59s-59 -92.5 -59 -159.5s19.833 -121.667 59.5 -164zM969 303.001c0 60.667 -17.333 108.667 -52 144s-78.5 53 -131.5 53s-98.667 -18 -137 -54s-60.5 -83.667 -66.5 -143h387z" />
    <glyph glyph-name="ccedilla" unicode="&#xe7;" horiz-adv-x="600" 
d="M303 500c-56.667 0 -102.668 -19.499 -138.001 -58.499s-53 -95 -53 -168s17.667 -129.167 53 -168.5s81.333 -59 138 -59c43.333 0 79.5 10.167 108.5 30.5s49.167 48.833 60.5 85.5h75c-16 -48.667 -42.167 -88.334 -78.5 -119.001s-83.166 -48 -140.499 -52v-48
c40 0 71.667 -9.16699 95 -27.5s35 -42.5 35 -72.5s-11.5 -54.333 -34.5 -73s-53.5 -28 -91.5 -28h-107v55h105c37.333 0 56 15.167 56 45.5s-18.667 45.5 -56 45.5h-55v103c-70.667 6.66699 -127.5 35.5 -170.5 86.5s-64.5 117.5 -64.5 199.5s24.333 149 73 201
s112 78 190 78c128 0 209.333 -57.333 244 -172h-75c-11.333 36.667 -31.5 65.167 -60.5 85.5s-65.167 30.5 -108.5 30.5z" />
    <glyph glyph-name="egrave" unicode="&#xe8;" horiz-adv-x="605" 
d="M303 -10c-78 0 -141.333 26.001 -190 78.001s-73 120.5 -73 205.5s24.833 153.333 74.5 205s114 77.5 193 77.5s141.833 -24.333 188.5 -73s70 -109 70 -181c0 -19.333 -1.33301 -37.333 -4 -54h-450c2.66699 -62.667 21.667 -112 57 -148s80 -54 134 -54
c42 0 77.833 9.66699 107.5 29s50.167 44.666 61.5 75.999h75c-18 -46.667 -47.333 -85.167 -88 -115.5s-92.667 -45.5 -156 -45.5zM494 303.001c0 60 -18.166 107.833 -54.499 143.5s-81.333 53.5 -135 53.5s-98.334 -17.5 -134.001 -52.5s-55.167 -83.167 -58.5 -144.5
h382zM395.001 642.001v-57l-205 115v70z" />
    <glyph glyph-name="eacute" unicode="&#xe9;" horiz-adv-x="605" 
d="M303 -10c-78 0 -141.333 26.001 -190 78.001s-73 120.5 -73 205.5s24.833 153.333 74.5 205s114 77.5 193 77.5s141.833 -24.333 188.5 -73s70 -109 70 -181c0 -19.333 -1.33301 -37.333 -4 -54h-450c2.66699 -62.667 21.667 -112 57 -148s80 -54 134 -54
c42 0 77.833 9.66699 107.5 29s50.167 44.666 61.5 75.999h75c-18 -46.667 -47.333 -85.167 -88 -115.5s-92.667 -45.5 -156 -45.5zM494 303.001c0 60 -18.166 107.833 -54.499 143.5s-81.333 53.5 -135 53.5s-98.334 -17.5 -134.001 -52.5s-55.167 -83.167 -58.5 -144.5
h382zM395.001 770.001v-70l-205 -115v57z" />
    <glyph glyph-name="ecircumflex" unicode="&#xea;" horiz-adv-x="605" 
d="M303 -10c-78 0 -141.333 26.001 -190 78.001s-73 120.5 -73 205.5s24.833 153.333 74.5 205s114 77.5 193 77.5s141.833 -24.333 188.5 -73s70 -109 70 -181c0 -19.333 -1.33301 -37.333 -4 -54h-450c2.66699 -62.667 21.667 -112 57 -148s80 -54 134 -54
c42 0 77.833 9.66699 107.5 29s50.167 44.666 61.5 75.999h75c-18 -46.667 -47.333 -85.167 -88 -115.5s-92.667 -45.5 -156 -45.5zM494 303.001c0 60 -18.166 107.833 -54.499 143.5s-81.333 53.5 -135 53.5s-98.334 -17.5 -134.001 -52.5s-55.167 -83.167 -58.5 -144.5
h382zM437.001 598.001l-134 85l-134 -85v66l134 82l134 -82v-66z" />
    <glyph glyph-name="edieresis" unicode="&#xeb;" horiz-adv-x="605" 
d="M303 -10c-78 0 -141.333 26.001 -190 78.001s-73 120.5 -73 205.5s24.833 153.333 74.5 205s114 77.5 193 77.5s141.833 -24.333 188.5 -73s70 -109 70 -181c0 -19.333 -1.33301 -37.333 -4 -54h-450c2.66699 -62.667 21.667 -112 57 -148s80 -54 134 -54
c42 0 77.833 9.66699 107.5 29s50.167 44.666 61.5 75.999h75c-18 -46.667 -47.333 -85.167 -88 -115.5s-92.667 -45.5 -156 -45.5zM494 303.001c0 60 -18.166 107.833 -54.499 143.5s-81.333 53.5 -135 53.5s-98.334 -17.5 -134.001 -52.5s-55.167 -83.167 -58.5 -144.5
h382zM228.001 620.001c-13.333 0 -24.833 4.83301 -34.5 14.5s-14.5 21.167 -14.5 34.5s4.83301 24.833 14.5 34.5s21.167 14.5 34.5 14.5s24.833 -4.83301 34.5 -14.5s14.5 -21.167 14.5 -34.5s-4.83301 -24.833 -14.5 -34.5s-21.167 -14.5 -34.5 -14.5zM378.001 620.001
c-13.333 0 -24.833 4.83301 -34.5 14.5s-14.5 21.167 -14.5 34.5s4.83301 24.833 14.5 34.5s21.167 14.5 34.5 14.5s24.833 -4.83301 34.5 -14.5s14.5 -21.167 14.5 -34.5s-4.83301 -24.833 -14.5 -34.5s-21.167 -14.5 -34.5 -14.5z" />
    <glyph glyph-name="igrave" unicode="&#xec;" horiz-adv-x="220" 
d="M-3 700v70l205 -128v-57zM75 0v546h70v-546h-70z" />
    <glyph glyph-name="iacute" unicode="&#xed;" horiz-adv-x="220" 
d="M75 0v546h70v-546h-70zM-3 642l205 128v-70l-205 -115v57z" />
    <glyph glyph-name="icircumflex" unicode="&#xee;" horiz-adv-x="220" 
d="M75 0v546h70v-546h-70zM244 664v-66l-134 85l-134 -85v66l134 82z" />
    <glyph glyph-name="idieresis" unicode="&#xef;" horiz-adv-x="220" 
d="M75 0v546h70v-546h-70zM185 620c-13.333 0 -24.833 4.83301 -34.5 14.5s-14.5 21.167 -14.5 34.5s4.83301 24.833 14.5 34.5s21.167 14.5 34.5 14.5s24.833 -4.83301 34.5 -14.5s14.5 -21.167 14.5 -34.5s-4.83301 -24.833 -14.5 -34.5s-21.167 -14.5 -34.5 -14.5z
M35 620c-13.333 0 -24.833 4.83301 -34.5 14.5s-14.5 21.167 -14.5 34.5s4.83301 24.833 14.5 34.5s21.167 14.5 34.5 14.5s24.833 -4.83301 34.5 -14.5s14.5 -21.167 14.5 -34.5s-4.83301 -24.833 -14.5 -34.5s-21.167 -14.5 -34.5 -14.5z" />
    <glyph glyph-name="eth" unicode="&#xf0;" horiz-adv-x="624" 
d="M584 317c0 -106 -25.667 -187 -77 -243s-117.5 -84 -198.5 -84s-146 26 -195 78s-73.5 120.167 -73.5 204.5s26 152.666 78 204.999s115.333 78.5 190 78.5s137.667 -25.667 189 -77c-23.333 56 -58 107.667 -104 155l-133 -46v57l89 31c-12 10.667 -37.333 32 -76 64h85
c18 -14 34.667 -28.667 50 -44l147 51v-57l-105 -36c89.333 -99.333 134 -211.666 134 -336.999zM165 106c36 -40 82.333 -59.999 139 -59.999s105.667 20.333 147 61s62 96.167 62 166.5s-19.667 125.666 -59 165.999s-87.333 60.5 -144 60.5s-104 -20 -142 -60
s-57 -95.667 -57 -167s18 -127 54 -167z" />
    <glyph glyph-name="ntilde" unicode="&#xf1;" horiz-adv-x="609" 
d="M145 546l-0.000976562 -88.999c36.667 66 97 99 181 99c60.667 0 111.334 -19.833 152.001 -59.5s61 -96.834 61 -171.501v-325h-69v312c0 60 -14.5 105.667 -43.5 137s-68.667 47 -119 47s-90 -15.667 -119 -47s-43.5 -77 -43.5 -137v-312h-70v546h70zM428.999 628.001
c-18 -16.667 -37.667 -25 -59 -25s-42 7.33301 -62 22s-36 22 -48 22c-26 0 -40.333 -13.667 -43 -41h-50c3.33301 28.667 14 51.334 32 68.001s37.667 25 59 25s42 -7.33301 62 -22s36 -22 48 -22c26 0 40.333 13.667 43 41h50c-3.33301 -28.667 -14 -51.334 -32 -68.001z
" />
    <glyph glyph-name="ograve" unicode="&#xf2;" horiz-adv-x="626" 
d="M200 700v70l205 -128v-57zM451 107c41.333 40.667 62 96.168 62 166.501s-19.667 125.666 -59 165.999s-87.333 60.5 -144 60.5s-104 -20 -142 -60s-57 -95.667 -57 -167s18 -127 54 -167s82.333 -60 139 -60s105.667 20.333 147 61zM113.5 68.001
c-49 52 -73.5 120.169 -73.5 204.502s26 152.666 78 204.999s117 78.5 195 78.5s143 -26.167 195 -78.5s78 -120.333 78 -204s-27.333 -151.834 -82 -204.501s-121.167 -79 -199.5 -79s-142 26 -191 78z" />
    <glyph glyph-name="oacute" unicode="&#xf3;" horiz-adv-x="626" 
d="M451 107c41.333 40.667 62 96.168 62 166.501s-19.667 125.666 -59 165.999s-87.333 60.5 -144 60.5s-104 -20 -142 -60s-57 -95.667 -57 -167s18 -127 54 -167s82.333 -60 139 -60s105.667 20.333 147 61zM113.5 68.001c-49 52 -73.5 120.169 -73.5 204.502
s26 152.666 78 204.999s117 78.5 195 78.5s143 -26.167 195 -78.5s78 -120.333 78 -204s-27.333 -151.834 -82 -204.501s-121.167 -79 -199.5 -79s-142 26 -191 78zM200 642.003l205 128v-70l-205 -115v57z" />
    <glyph glyph-name="ocircumflex" unicode="&#xf4;" horiz-adv-x="626" 
d="M451 107c41.333 40.667 62 96.168 62 166.501s-19.667 125.666 -59 165.999s-87.333 60.5 -144 60.5s-104 -20 -142 -60s-57 -95.667 -57 -167s18 -127 54 -167s82.333 -60 139 -60s105.667 20.333 147 61zM113.5 68.001c-49 52 -73.5 120.169 -73.5 204.502
s26 152.666 78 204.999s117 78.5 195 78.5s143 -26.167 195 -78.5s78 -120.333 78 -204s-27.333 -151.834 -82 -204.501s-121.167 -79 -199.5 -79s-142 26 -191 78zM447 664.003v-66l-134 85l-134 -85v66l134 82z" />
    <glyph glyph-name="otilde" unicode="&#xf5;" horiz-adv-x="626" 
d="M207 674c18 16.667 37.667 25 59 25s42 -7.33301 62 -22s36 -22 48 -22c26 0 40.333 13.667 43 41h50c-3.33301 -28.667 -14 -51.334 -32 -68.001s-37.667 -25 -59 -25s-42 7.33301 -62 22s-36 22 -48 22c-26 0 -40.333 -13.667 -43 -41h-50
c3.33301 28.667 14 51.334 32 68.001zM451 107c41.333 40.667 62 96.168 62 166.501s-19.667 125.666 -59 165.999s-87.333 60.5 -144 60.5s-104 -20 -142 -60s-57 -95.667 -57 -167s18 -127 54 -167s82.333 -60 139 -60s105.667 20.333 147 61zM113.5 68.001
c-49 52 -73.5 120.169 -73.5 204.502s26 152.666 78 204.999s117 78.5 195 78.5s143 -26.167 195 -78.5s78 -120.333 78 -204s-27.333 -151.834 -82 -204.501s-121.167 -79 -199.5 -79s-142 26 -191 78z" />
    <glyph glyph-name="odieresis" unicode="&#xf6;" horiz-adv-x="626" 
d="M451 107c41.333 40.667 62 96.168 62 166.501s-19.667 125.666 -59 165.999s-87.333 60.5 -144 60.5s-104 -20 -142 -60s-57 -95.667 -57 -167s18 -127 54 -167s82.333 -60 139 -60s105.667 20.333 147 61zM113.5 68.001c-49 52 -73.5 120.169 -73.5 204.502
s26 152.666 78 204.999s117 78.5 195 78.5s143 -26.167 195 -78.5s78 -120.333 78 -204s-27.333 -151.834 -82 -204.501s-121.167 -79 -199.5 -79s-142 26 -191 78zM388 620.003c-13.333 0 -24.833 4.83301 -34.5 14.5s-14.5 21.167 -14.5 34.5s4.83301 24.833 14.5 34.5
s21.167 14.5 34.5 14.5s24.833 -4.83301 34.5 -14.5s14.5 -21.167 14.5 -34.5s-4.83301 -24.833 -14.5 -34.5s-21.167 -14.5 -34.5 -14.5zM238 620.003c-13.333 0 -24.833 4.83301 -34.5 14.5s-14.5 21.167 -14.5 34.5s4.83301 24.833 14.5 34.5s21.167 14.5 34.5 14.5
s24.833 -4.83301 34.5 -14.5s14.5 -21.167 14.5 -34.5s-4.83301 -24.833 -14.5 -34.5s-21.167 -14.5 -34.5 -14.5z" />
    <glyph glyph-name="divide" unicode="&#xf7;" horiz-adv-x="735" 
d="M128 340v60h509v-60h-509zM383 534c-13.333 0 -24.833 4.83301 -34.5 14.5s-14.5 21.167 -14.5 34.5s4.83301 24.833 14.5 34.5s21.167 14.5 34.5 14.5s24.833 -4.83301 34.5 -14.5s14.5 -21.167 14.5 -34.5s-4.83301 -24.833 -14.5 -34.5s-21.167 -14.5 -34.5 -14.5z
M383 108c-13.333 0 -24.833 4.83301 -34.5 14.5s-14.5 21.167 -14.5 34.5s4.83301 24.833 14.5 34.5s21.167 14.5 34.5 14.5s24.833 -4.83301 34.5 -14.5s14.5 -21.167 14.5 -34.5s-4.83301 -24.833 -14.5 -34.5s-21.167 -14.5 -34.5 -14.5z" />
    <glyph glyph-name="oslash" unicode="&#xf8;" horiz-adv-x="626" 
d="M521 464c43.333 -52 65.001 -117.667 65.001 -197s-27.333 -145.333 -82 -198s-121.667 -79 -201 -79c-64 0 -118.667 18 -164 54l-40 -44h-69l73 80c-42 51.333 -63 117.333 -63 198s26 147.167 78 199.5s114.167 78.5 186.5 78.5s132.166 -19 179.499 -57l43 47h69z
M441.001 452c-36 32 -81 48 -135 48s-100 -20 -138 -60s-57 -95.667 -57 -167c0 -56 12.333 -104 37 -144zM181.001 90c33.333 -29.333 76.333 -44 129 -44s99.667 20.333 141 61s62 96 62 166c0 55.333 -12.667 102 -38 140z" />
    <glyph glyph-name="ugrave" unicode="&#xf9;" horiz-adv-x="609" 
d="M464 546l70.001 -0.000976562v-546h-70v89c-36.667 -66 -97 -99 -181 -99c-60.667 0 -111.334 19.833 -152.001 59.5s-61 96.834 -61 171.501v325h69v-312c0 -60 14.5 -105.667 43.5 -137s68.667 -47 119 -47s90 15.667 119 47s43.5 77 43.5 137v312zM397.001 641.999
v-57l-205 115v70z" />
    <glyph glyph-name="uacute" unicode="&#xfa;" horiz-adv-x="609" 
d="M464 546l70.001 -0.000976562v-546h-70v89c-36.667 -66 -97 -99 -181 -99c-60.667 0 -111.334 19.833 -152.001 59.5s-61 96.834 -61 171.501v325h69v-312c0 -60 14.5 -105.667 43.5 -137s68.667 -47 119 -47s90 15.667 119 47s43.5 77 43.5 137v312zM397.001 769.999
v-70l-205 -115v57z" />
    <glyph glyph-name="ucircumflex" unicode="&#xfb;" horiz-adv-x="609" 
d="M464 546l70.001 -0.000976562v-546h-70v89c-36.667 -66 -97 -99 -181 -99c-60.667 0 -111.334 19.833 -152.001 59.5s-61 96.834 -61 171.501v325h69v-312c0 -60 14.5 -105.667 43.5 -137s68.667 -47 119 -47s90 15.667 119 47s43.5 77 43.5 137v312zM439.001 597.999
l-134 85l-134 -85v66l134 82l134 -82v-66z" />
    <glyph glyph-name="udieresis" unicode="&#xfc;" horiz-adv-x="609" 
d="M464 546l70.001 -0.000976562v-546h-70v89c-36.667 -66 -97 -99 -181 -99c-60.667 0 -111.334 19.833 -152.001 59.5s-61 96.834 -61 171.501v325h69v-312c0 -60 14.5 -105.667 43.5 -137s68.667 -47 119 -47s90 15.667 119 47s43.5 77 43.5 137v312zM230.001 619.999
c-13.333 0 -24.833 4.83301 -34.5 14.5s-14.5 21.167 -14.5 34.5s4.83301 24.833 14.5 34.5s21.167 14.5 34.5 14.5s24.833 -4.83301 34.5 -14.5s14.5 -21.167 14.5 -34.5s-4.83301 -24.833 -14.5 -34.5s-21.167 -14.5 -34.5 -14.5zM380.001 619.999
c-13.333 0 -24.833 4.83301 -34.5 14.5s-14.5 21.167 -14.5 34.5s4.83301 24.833 14.5 34.5s21.167 14.5 34.5 14.5s24.833 -4.83301 34.5 -14.5s14.5 -21.167 14.5 -34.5s-4.83301 -24.833 -14.5 -34.5s-21.167 -14.5 -34.5 -14.5z" />
    <glyph glyph-name="yacute" unicode="&#xfd;" horiz-adv-x="535" 
d="M155 642l205 128v-70l-205 -115v57zM231 8l-217 538h75l180 -464l180 464h71l-324 -800h-71z" />
    <glyph glyph-name="thorn" unicode="&#xfe;" horiz-adv-x="662" 
d="M490.5 113.5c39.667 42.333 59.498 97 59.498 164s-19.667 120.167 -59 159.5s-87.166 59 -143.499 59s-104.166 -20.5 -143.499 -61.5s-59 -94.833 -59 -161.5s19.667 -120.5 59 -161.5s87 -61.5 143 -61.5s103.833 21.167 143.5 63.5zM357.998 556
c76.667 0 139.833 -25.5 189.5 -76.5s74.5 -118.333 74.5 -202s-25 -152.5 -75 -206.5s-113 -81 -189 -81c-49.333 0 -92.666 12.167 -129.999 36.5s-65 55.5 -83 93.5v-378h-70v998h70v-313c18 38 45.667 69 83 93s80.666 36 129.999 36z" />
    <glyph glyph-name="ydieresis" unicode="&#xff;" horiz-adv-x="535" 
d="M343 620c-13.333 0 -24.833 4.83301 -34.5 14.5s-14.5 21.167 -14.5 34.5s4.83301 24.833 14.5 34.5s21.167 14.5 34.5 14.5s24.833 -4.83301 34.5 -14.5s14.5 -21.167 14.5 -34.5s-4.83301 -24.833 -14.5 -34.5s-21.167 -14.5 -34.5 -14.5zM193 620
c-13.333 0 -24.833 4.83301 -34.5 14.5s-14.5 21.167 -14.5 34.5s4.83301 24.833 14.5 34.5s21.167 14.5 34.5 14.5s24.833 -4.83301 34.5 -14.5s14.5 -21.167 14.5 -34.5s-4.83301 -24.833 -14.5 -34.5s-21.167 -14.5 -34.5 -14.5zM231 8l-217 538h75l180 -464l180 464h71
l-324 -800h-71z" />
    <glyph glyph-name="Amacron" unicode="&#x100;" horiz-adv-x="685" 
d="M562 0l-58 161h-322l-59 -161h-70l254 690h72l253 -690h-70zM202 217h281l-140 386zM512 844v-60h-339v60h339z" />
    <glyph glyph-name="amacron" unicode="&#x101;" horiz-adv-x="662" 
d="M161 640v60h339v-60h-339zM517 273c0 66.667 -19.835 120.5 -59.502 161.5s-87.5 61.5 -143.5 61.5s-103.667 -19.667 -143 -59s-59 -92.5 -59 -159.5s19.833 -121.667 59.5 -164s87.334 -63.5 143.001 -63.5s103.334 20.5 143.001 61.5s59.5 94.833 59.5 161.5z
M114.998 71c-50 54 -75.001 122.833 -75.001 206.5s24.833 151 74.5 202s112.834 76.5 189.501 76.5c49.333 0 92.666 -12 129.999 -36s65 -55 83 -93v119h70v-546h-70v120c-18 -38 -45.667 -69.167 -83 -93.5s-80.666 -36.5 -129.999 -36.5c-76 0 -139 27 -189 81z" />
    <glyph glyph-name="Abreve" unicode="&#x102;" horiz-adv-x="685" 
d="M562 0l-58 161h-322l-59 -161h-70l254 690h72l253 -690h-70zM202 217h281l-140 386zM478 892l0.00195312 -16c0 -34 -11.833 -62.5 -35.5 -85.5s-56.834 -34.5 -99.501 -34.5s-75.834 11.667 -99.501 35s-35.5 52 -35.5 86v15h50c0 -25.333 6.33301 -44.333 19 -57
s34.667 -19 66 -19s53.333 6.33301 66 19s19 31.667 19 57h50z" />
    <glyph glyph-name="abreve" unicode="&#x103;" horiz-adv-x="662" 
d="M466 732c0 -34 -11.8311 -62.5 -35.498 -85.5s-56.834 -34.5 -99.501 -34.5s-75.834 11.667 -99.501 35s-35.5 52 -35.5 86v15h50c0 -25.333 6.33301 -44.333 19 -57s34.667 -19 66 -19s53.333 6.33301 66 19s19 31.667 19 57h50v-16zM517.002 273
c0 66.667 -19.835 120.5 -59.502 161.5s-87.5 61.5 -143.5 61.5s-103.667 -19.667 -143 -59s-59 -92.5 -59 -159.5s19.833 -121.667 59.5 -164s87.334 -63.5 143.001 -63.5s103.334 20.5 143.001 61.5s59.5 94.833 59.5 161.5zM115 71c-50 54 -75.001 122.833 -75.001 206.5
s24.833 151 74.5 202s112.834 76.5 189.501 76.5c49.333 0 92.666 -12 129.999 -36s65 -55 83 -93v119h70v-546h-70v120c-18 -38 -45.667 -69.167 -83 -93.5s-80.666 -36.5 -129.999 -36.5c-76 0 -139 27 -189 81z" />
    <glyph glyph-name="Aogonek" unicode="&#x104;" horiz-adv-x="685" 
d="M587 -144l75 0.000976562v-55h-77c-38 0 -68.5 9.33301 -91.5 28s-34.5 42.167 -34.5 70.5s9.16699 51.166 27.5 68.499s43.5 28 75.5 32l-58 161h-322l-59 -161h-70l254 690h72l253 -688v-55h-45c-37.333 0 -56 -15.167 -56 -45.5s18.667 -45.5 56 -45.5zM202 217.001
h281l-140 386z" />
    <glyph glyph-name="aogonek" unicode="&#x105;" horiz-adv-x="662" 
d="M542 -144l74.999 0.000976562v-55h-77c-38 0 -68.5 9.33301 -91.5 28s-34.5 42.167 -34.5 70.5s9.16699 51.166 27.5 68.499s43.5 28 75.5 32v120c-18 -38 -45.667 -69.167 -83 -93.5s-80.666 -36.5 -129.999 -36.5c-76 0 -139 27 -189 81s-75 122.833 -75 206.5
s24.833 151 74.5 202s112.834 76.5 189.501 76.5c49.333 0 92.666 -12 129.999 -36s65 -55 83 -93v119h70v-599h-45c-37.333 0 -56 -15.167 -56 -45.5s18.667 -45.5 56 -45.5zM171.499 113.501c39.667 -42.333 87.332 -63.5 142.999 -63.5s103.334 20.5 143.001 61.5
s59.5 94.833 59.5 161.5s-19.833 120.5 -59.5 161.5s-87.5 61.5 -143.5 61.5s-103.667 -19.667 -143 -59s-59 -92.5 -59 -159.5s19.833 -121.667 59.5 -164z" />
    <glyph glyph-name="Cacute" unicode="&#x106;" horiz-adv-x="780" 
d="M40 345c0 102 33.833 186.165 101.5 252.498s150.834 99.5 249.501 99.5c70.667 0 133.5 -16 188.5 -48s96.5 -78.667 124.5 -140h-85c-21.333 40.667 -52 72 -92 94s-85.333 33 -136 33c-80.667 0 -147.334 -26.667 -200.001 -80s-79 -123.666 -79 -210.999
s26.333 -157.666 79 -210.999s119.334 -80 200.001 -80c50.667 0 96 11.167 136 33.5s70.667 53.833 92 94.5h85c-28 -61.333 -69.5 -108 -124.5 -140s-117.833 -48 -188.5 -48c-98.667 0 -181.834 33 -249.501 99s-101.5 150 -101.5 252zM277 785.998l205 128v-70
l-205 -115v57z" />
    <glyph glyph-name="cacute" unicode="&#x107;" horiz-adv-x="600" 
d="M40 273c0 84.667 24.333 153 73 205s112 78 190 78c128 0 209.333 -57.333 244 -172h-75c-11.333 36.667 -31.5 65.167 -60.5 85.5s-65.167 30.5 -108.5 30.5c-56.667 0 -102.667 -19.5 -138 -58.5s-53 -95 -53 -168s17.667 -129.167 53 -168.5s81.333 -59 138 -59
c43.333 0 79.5 10.167 108.5 30.5s49.167 48.833 60.5 85.5h75c-17.333 -52 -46.333 -93.667 -87 -125s-93 -47 -157 -47c-78 0 -141.333 26 -190 78s-73 120.333 -73 205zM187 642l205 128v-70l-205 -115v57z" />
    <glyph glyph-name="Ccaron" unicode="&#x10c;" horiz-adv-x="780" 
d="M40 345c0 102 33.833 186.165 101.5 252.498s150.834 99.5 249.501 99.5c70.667 0 133.5 -16 188.5 -48s96.5 -78.667 124.5 -140h-85c-21.333 40.667 -52 72 -92 94s-85.333 33 -136 33c-80.667 0 -147.334 -26.667 -200.001 -80s-79 -123.666 -79 -210.999
s26.333 -157.666 79 -210.999s119.334 -80 200.001 -80c50.667 0 96 11.167 136 33.5s70.667 53.833 92 94.5h85c-28 -61.333 -69.5 -108 -124.5 -140s-117.833 -48 -188.5 -48c-98.667 0 -181.834 33 -249.501 99s-101.5 150 -101.5 252zM390 804.998l134 85v-66l-134 -82
l-134 82v66z" />
    <glyph glyph-name="ccaron" unicode="&#x10d;" horiz-adv-x="600" 
d="M40 273c0 84.667 24.333 153 73 205s112 78 190 78c128 0 209.333 -57.333 244 -172h-75c-11.333 36.667 -31.5 65.167 -60.5 85.5s-65.167 30.5 -108.5 30.5c-56.667 0 -102.667 -19.5 -138 -58.5s-53 -95 -53 -168s17.667 -129.167 53 -168.5s81.333 -59 138 -59
c43.333 0 79.5 10.167 108.5 30.5s49.167 48.833 60.5 85.5h75c-17.333 -52 -46.333 -93.667 -87 -125s-93 -47 -157 -47c-78 0 -141.333 26 -190 78s-73 120.333 -73 205zM300 661l134 85v-66l-134 -82l-134 82v66z" />
    <glyph glyph-name="Dcaron" unicode="&#x10e;" horiz-adv-x="685" 
d="M145 54h142c92.667 0 163.167 25.167 211.5 75.5s72.5 120.833 72.5 211.5s-24.167 161.167 -72.5 211.5s-118.833 75.5 -211.5 75.5h-142v-574zM287 690c111.333 0 198.5 -30.833 261.5 -92.5s94.5 -147.167 94.5 -256.5s-31.333 -193.5 -94 -252.5
s-150 -88.5 -262 -88.5h-212v690h212zM343 805l134 85v-66l-134 -82l-134 82v66z" />
    <glyph glyph-name="dcaron" unicode="&#x10f;" horiz-adv-x="739" 
d="M517 273c0 66.667 -19.835 120.5 -59.502 161.5s-87.5 61.5 -143.5 61.5s-103.667 -19.667 -143 -59s-59 -92.5 -59 -159.5s19.833 -121.667 59.5 -164s87.334 -63.5 143.001 -63.5s103.334 20.5 143.001 61.5s59.5 94.833 59.5 161.5zM114.998 71
c-50 54 -75.001 122.833 -75.001 206.5s24.833 151 74.5 202s112.834 76.5 189.501 76.5c49.333 0 92.666 -12 129.999 -36s65 -55 83 -93v313h70v-740h-70v120c-18 -38 -45.667 -69.167 -83 -93.5s-80.666 -36.5 -129.999 -36.5c-76 0 -139 27 -189 81zM638.997 740h81
c6 -33.333 9 -65.333 9 -96c0 -61.333 -30.333 -92 -91 -92v38c30.667 0 46 16.333 46 49v25h-45v76z" />
    <glyph glyph-name="Dcroat" unicode="&#x110;" horiz-adv-x="705" 
d="M95 690h212c111.333 0 198.5 -30.833 261.5 -92.5s94.5 -147.167 94.5 -256.5s-31.333 -193.5 -94 -252.5s-150 -88.5 -262 -88.5h-212v311h-95v60h95v319zM165 54h142c92.667 0 163.167 25.167 211.5 75.5s72.5 120.833 72.5 211.5s-24.167 161.167 -72.5 211.5
s-118.833 75.5 -211.5 75.5h-142v-257h204v-60h-204v-257z" />
    <glyph glyph-name="dcroat" unicode="&#x111;" horiz-adv-x="662" 
d="M649 643l-0.000976562 -53h-62v-590h-70v120c-18 -38 -45.667 -69.167 -83 -93.5s-80.666 -36.5 -129.999 -36.5c-76 0 -139 27 -189 81s-75 122.833 -75 206.5s24.833 151 74.5 202s112.834 76.5 189.501 76.5c49.333 0 92.666 -12 129.999 -36s65 -55 83 -93v163h-87
v53h87v97h70v-97h62zM171.499 113.5c39.667 -42.333 87.332 -63.5 142.999 -63.5s103.334 20.5 143.001 61.5s59.5 94.833 59.5 161.5s-19.833 120.5 -59.5 161.5s-87.5 61.5 -143.5 61.5s-103.667 -19.667 -143 -59s-59 -92.5 -59 -159.5s19.833 -121.667 59.5 -164z" />
    <glyph glyph-name="Emacron" unicode="&#x112;" horiz-adv-x="487" 
d="M74 784v60h339v-60h-339zM426 690v-57h-281v-258h251v-56h-251v-263h281v-56h-351v690h351z" />
    <glyph glyph-name="emacron" unicode="&#x113;" horiz-adv-x="605" 
d="M303 -10c-78 0 -141.333 26.001 -190 78.001s-73 120.5 -73 205.5s24.833 153.333 74.5 205s114 77.5 193 77.5s141.833 -24.333 188.5 -73s70 -109 70 -181c0 -19.333 -1.33301 -37.333 -4 -54h-450c2.66699 -62.667 21.667 -112 57 -148s80 -54 134 -54
c42 0 77.833 9.66699 107.5 29s50.167 44.666 61.5 75.999h75c-18 -46.667 -47.333 -85.167 -88 -115.5s-92.667 -45.5 -156 -45.5zM494 303.001c0 60 -18.166 107.833 -54.499 143.5s-81.333 53.5 -135 53.5s-98.334 -17.5 -134.001 -52.5s-55.167 -83.167 -58.5 -144.5
h382zM472.001 700.001v-60h-339v60h339z" />
    <glyph glyph-name="Edotaccent" unicode="&#x116;" horiz-adv-x="487" 
d="M244 764c-13.333 0 -24.833 4.83301 -34.5 14.5s-14.5 21.167 -14.5 34.5s4.83301 24.833 14.5 34.5s21.167 14.5 34.5 14.5s24.833 -4.83301 34.5 -14.5s14.5 -21.167 14.5 -34.5s-4.83301 -24.833 -14.5 -34.5s-21.167 -14.5 -34.5 -14.5zM426 690v-57h-281v-258h251
v-56h-251v-263h281v-56h-351v690h351z" />
    <glyph glyph-name="edotaccent" unicode="&#x117;" horiz-adv-x="605" 
d="M303 -10c-78 0 -141.333 26.001 -190 78.001s-73 120.5 -73 205.5s24.833 153.333 74.5 205s114 77.5 193 77.5s141.833 -24.333 188.5 -73s70 -109 70 -181c0 -19.333 -1.33301 -37.333 -4 -54h-450c2.66699 -62.667 21.667 -112 57 -148s80 -54 134 -54
c42 0 77.833 9.66699 107.5 29s50.167 44.666 61.5 75.999h75c-18 -46.667 -47.333 -85.167 -88 -115.5s-92.667 -45.5 -156 -45.5zM494 303.001c0 60 -18.166 107.833 -54.499 143.5s-81.333 53.5 -135 53.5s-98.334 -17.5 -134.001 -52.5s-55.167 -83.167 -58.5 -144.5
h382zM303.001 620.001c-13.333 0 -24.833 4.83301 -34.5 14.5s-14.5 21.167 -14.5 34.5s4.83301 24.833 14.5 34.5s21.167 14.5 34.5 14.5s24.833 -4.83301 34.5 -14.5s14.5 -21.167 14.5 -34.5s-4.83301 -24.833 -14.5 -34.5s-21.167 -14.5 -34.5 -14.5z" />
    <glyph glyph-name="Eogonek" unicode="&#x118;" horiz-adv-x="487" 
d="M381 -144h75v-55h-77c-38 0 -68.5 9.33301 -91.5 28s-34.5 42 -34.5 70s8.83301 50.667 26.5 68s42.167 28.333 73.5 33h-278v690h351v-57h-281v-258h251v-56h-251v-263h281v-109h-45c-37.333 0 -56 -15.167 -56 -45.5s18.667 -45.5 56 -45.5z" />
    <glyph glyph-name="eogonek" unicode="&#x119;" horiz-adv-x="605" 
d="M483 -143l-77 0.00195312c-38 0 -68.5 9.33301 -91.5 28s-34.5 43 -34.5 73c0 11.333 1.66699 22 5 32c-73.333 4.66699 -132.5 32.667 -177.5 84s-67.5 118.666 -67.5 201.999s24.833 150.833 74.5 202.5s114 77.5 193 77.5s141.833 -24.333 188.5 -73s70 -109 70 -181
c0 -19.333 -1.33301 -37.333 -4 -54h-450c2.66699 -62.667 21.667 -112 57 -148s80 -54 134 -54c42 0 77.833 9.66699 107.5 29s50.167 44.666 61.5 75.999h75c-26 -70 -74.333 -118.333 -145 -145c-17.333 -6.66699 -30 -13.167 -38 -19.5s-12 -15.833 -12 -28.5
c0 -30.667 18.667 -46 56 -46h75v-55zM494 303.002c0 60 -18.166 107.833 -54.499 143.5s-81.333 53.5 -135 53.5s-98.334 -17.5 -134.001 -52.5s-55.167 -83.167 -58.5 -144.5h382z" />
    <glyph glyph-name="Ecaron" unicode="&#x11a;" horiz-adv-x="487" 
d="M426 690v-57h-281v-258h251v-56h-251v-263h281v-56h-351v690h351zM244 805l134 85v-66l-134 -82l-134 82v66z" />
    <glyph glyph-name="ecaron" unicode="&#x11b;" horiz-adv-x="605" 
d="M303 -10c-78 0 -141.333 26.001 -190 78.001s-73 120.5 -73 205.5s24.833 153.333 74.5 205s114 77.5 193 77.5s141.833 -24.333 188.5 -73s70 -109 70 -181c0 -19.333 -1.33301 -37.333 -4 -54h-450c2.66699 -62.667 21.667 -112 57 -148s80 -54 134 -54
c42 0 77.833 9.66699 107.5 29s50.167 44.666 61.5 75.999h75c-18 -46.667 -47.333 -85.167 -88 -115.5s-92.667 -45.5 -156 -45.5zM494 303.001c0 60 -18.166 107.833 -54.499 143.5s-81.333 53.5 -135 53.5s-98.334 -17.5 -134.001 -52.5s-55.167 -83.167 -58.5 -144.5
h382zM437.001 680.001l-134 -82l-134 82v66l134 -85l134 85v-66z" />
    <glyph glyph-name="Gbreve" unicode="&#x11e;" horiz-adv-x="780" 
d="M525 876c0 -34 -11.8311 -62.5 -35.498 -85.5s-56.834 -34.5 -99.501 -34.5s-75.834 11.667 -99.501 35s-35.5 52 -35.5 86v15h50c0 -25.333 6.33301 -44.333 19 -57s34.667 -19 66 -19s53.333 6.33301 66 19s19 31.667 19 57h50v-16zM40.002 345
c0 102 33.832 186.164 101.499 252.497s150.834 99.5 249.501 99.5c70.667 0 133.5 -16 188.5 -48s96.5 -78.667 124.5 -140h-85c-21.333 40.667 -52 72 -92 94s-85.333 33 -136 33c-80.667 0 -147.334 -26.667 -200.001 -80s-79 -123.666 -79 -210.999
s26.333 -157.666 79 -210.999s118.834 -80 198.501 -80s144.167 23.333 193.5 70s77.666 110.334 84.999 191.001h-310v56h383v-56c-9.33301 -96 -46.666 -173.5 -111.999 -232.5s-146 -88.5 -242 -88.5s-177.833 33 -245.5 99s-101.5 150 -101.5 252z" />
    <glyph glyph-name="gbreve" unicode="&#x11f;" horiz-adv-x="662" 
d="M466 732c0 -34 -11.8311 -62.5 -35.498 -85.5s-56.834 -34.5 -99.501 -34.5s-75.834 11.667 -99.501 35s-35.5 52 -35.5 86v15h50c0 -25.333 6.33301 -44.333 19 -57s34.667 -19 66 -19s53.333 6.33301 66 19s19 31.667 19 57h50v-16zM115.002 71
c-50 54 -74.999 122.832 -74.999 206.499s24.833 151 74.5 202s112.834 76.5 189.501 76.5c49.333 0 92.666 -12 129.999 -36s65 -55 83 -93v119h70v-565c0 -74 -24.5 -134 -73.5 -180s-108.833 -69 -179.5 -69s-130.334 17.333 -179.001 52s-76.667 77.667 -84 129h69
c8.66699 -34 30.667 -62.667 66 -86s78.666 -35 129.999 -35s94.333 16.833 129 50.5s52 79.834 52 138.501v139c-18 -38 -45.667 -69.167 -83 -93.5s-80.666 -36.5 -129.999 -36.5c-76 0 -139 27 -189 81zM517.003 272.999c0 66.667 -19.835 120.5 -59.502 161.5
s-87.5 61.5 -143.5 61.5s-103.667 -19.667 -143 -59s-59 -92.5 -59 -159.5s19.833 -121.667 59.5 -164s87.334 -63.5 143.001 -63.5s103.334 20.5 143.001 61.5s59.5 94.833 59.5 161.5z" />
    <glyph glyph-name="Gcommaaccent" unicode="&#x122;" horiz-adv-x="780" 
d="M40 345c0 102 33.832 186.164 101.499 252.497s150.834 99.5 249.501 99.5c70.667 0 133.5 -16 188.5 -48s96.5 -78.667 124.5 -140h-85c-21.333 40.667 -52 72 -92 94s-85.333 33 -136 33c-80.667 0 -147.334 -26.667 -200.001 -80s-79 -123.666 -79 -210.999
s26.333 -157.666 79 -210.999s118.834 -80 198.501 -80s144.167 23.333 193.5 70s77.666 110.334 84.999 191.001h-310v56h383v-56c-9.33301 -96 -46.666 -173.5 -111.999 -232.5s-146 -88.5 -242 -88.5s-177.833 33 -245.5 99s-101.5 150 -101.5 252zM345.999 -50.0029
l81 0.000976562c6 -32.667 9 -64.334 9 -95.001c0 -62 -30.333 -93 -91 -93v38c30.667 0 46 16.333 46 49v25h-45v76z" />
    <glyph glyph-name="gcommaaccent" unicode="&#x123;" horiz-adv-x="662" 
d="M115 71c-50 54 -74.999 122.832 -74.999 206.499s24.833 151 74.5 202s112.834 76.5 189.501 76.5c49.333 0 92.666 -12 129.999 -36s65 -55 83 -93v119h70v-565c0 -74 -24.5 -134 -73.5 -180s-108.833 -69 -179.5 -69s-130.334 17.333 -179.001 52
s-76.667 77.667 -84 129h69c8.66699 -34 30.667 -62.667 66 -86s78.666 -35 129.999 -35s94.333 16.833 129 50.5s52 79.834 52 138.501v139c-18 -38 -45.667 -69.167 -83 -93.5s-80.666 -36.5 -129.999 -36.5c-76 0 -139 27 -189 81zM517.001 272.999
c0 66.667 -19.835 120.5 -59.502 161.5s-87.5 61.5 -143.5 61.5s-103.667 -19.667 -143 -59s-59 -92.5 -59 -159.5s19.833 -121.667 59.5 -164s87.334 -63.5 143.001 -63.5s103.334 20.5 143.001 61.5s59.5 94.833 59.5 161.5zM374.999 595.999h-81
c-6 33.333 -9 65.333 -9 96c0 61.333 30.333 92 91 92v-38c-30.667 0 -46 -16.333 -46 -49v-25h45v-76z" />
    <glyph glyph-name="Imacron" unicode="&#x12a;" horiz-adv-x="220" 
d="M-60 784v60h339v-60h-339zM75 0v690h70v-690h-70z" />
    <glyph glyph-name="imacron" unicode="&#x12b;" horiz-adv-x="220" 
d="M-60 640v60h339v-60h-339zM75 0v546h70v-546h-70z" />
    <glyph glyph-name="Iogonek" unicode="&#x12e;" horiz-adv-x="220" 
d="M100 -143l75 0.000976562v-55h-77c-38 0 -68.5 9.33301 -91.5 28s-34.5 42.167 -34.5 70.5s9.16699 51.166 27.5 68.499s43.5 28 75.5 32v689h70v-742h-45c-37.333 0 -56 -15.167 -56 -45.5s18.667 -45.5 56 -45.5z" />
    <glyph glyph-name="iogonek" unicode="&#x12f;" horiz-adv-x="220" 
d="M100 -143l75 0.000976562v-55h-77c-38 0 -68.5 9.33301 -91.5 28s-34.5 42.167 -34.5 70.5s9.16699 51.166 27.5 68.499s43.5 28 75.5 32v545h70v-598h-45c-37.333 0 -56 -15.167 -56 -45.5s18.667 -45.5 56 -45.5zM147.5 664.001c-9.66699 -10 -21.667 -15 -36 -15
s-26.5 5 -36.5 15s-15 22.167 -15 36.5s5 26.5 15 36.5s22.167 15 36.5 15s26.333 -5 36 -15s14.5 -22.167 14.5 -36.5s-4.83301 -26.5 -14.5 -36.5z" />
    <glyph glyph-name="Idotaccent" unicode="&#x130;" horiz-adv-x="220" 
d="M110 764c-13.333 0 -24.833 4.83301 -34.5 14.5s-14.5 21.167 -14.5 34.5s4.83301 24.833 14.5 34.5s21.167 14.5 34.5 14.5s24.833 -4.83301 34.5 -14.5s14.5 -21.167 14.5 -34.5s-4.83301 -24.833 -14.5 -34.5s-21.167 -14.5 -34.5 -14.5zM75 0v690h70v-690h-70z" />
    <glyph glyph-name="dotlessi" unicode="&#x131;" horiz-adv-x="220" 
d="M75 0v546h70v-546h-70z" />
    <glyph glyph-name="Kcommaaccent" unicode="&#x136;" horiz-adv-x="565" 
d="M145 0h-70v690h70v-323l299 323h91l-335 -350l335 -340h-95l-295 310v-310zM239 -50l81 0.000976562c6 -32.667 9 -64.334 9 -95.001c0 -62 -30.333 -93 -91 -93v38c30.667 0 46 16.333 46 49v25h-45v76z" />
    <glyph glyph-name="kcommaaccent" unicode="&#x137;" horiz-adv-x="476" 
d="M145 0h-70v740h70v-438l220 244h101l-265 -270l265 -276h-96l-225 245v-245zM194 -50l81 0.000976562c6 -32.667 9 -64.334 9 -95.001c0 -62 -30.333 -93 -91 -93v38c30.667 0 46 16.333 46 49v25h-45v76z" />
    <glyph glyph-name="Lacute" unicode="&#x139;" horiz-adv-x="416" 
d="M75 690h70v-636h251v-54h-321v690zM95 786l205 128v-70l-205 -115v57z" />
    <glyph glyph-name="lacute" unicode="&#x13a;" horiz-adv-x="220" 
d="M75 0v740h70v-740h-70zM-3 836l205 128v-70l-205 -115v57z" />
    <glyph glyph-name="Lcommaaccent" unicode="&#x13b;" horiz-adv-x="416" 
d="M75 690h70v-636h251v-54h-321v690zM186 -50l81 0.000976562c6 -32.667 9 -64.334 9 -95.001c0 -62 -30.333 -93 -91 -93v38c30.667 0 46 16.333 46 49v25h-45v76z" />
    <glyph glyph-name="lcommaaccent" unicode="&#x13c;" horiz-adv-x="220" 
d="M75 0v740h70v-740h-70zM66 -50h81c6 -33.333 9 -65.333 9 -96c0 -61.333 -30.333 -92 -91 -92v38c30.667 0 46 16.333 46 49v25h-45v76z" />
    <glyph glyph-name="Lcaron" unicode="&#x13d;" horiz-adv-x="416" 
d="M75 690h70v-636h251v-54h-321v690zM268 690h81c6 -33.333 9 -65.333 9 -96c0 -61.333 -30.333 -92 -91 -92v38c30.667 0 46 16.333 46 49v25h-45v76z" />
    <glyph glyph-name="lcaron" unicode="&#x13e;" horiz-adv-x="355" 
d="M75 0v740h70v-740h-70zM223 740l81 0.000976562c6 -32.667 9 -64.334 9 -95.001c0 -62 -30.333 -93 -91 -93v38c30.667 0 46 16.333 46 49v25h-45v76z" />
    <glyph glyph-name="Lslash" unicode="&#x141;" horiz-adv-x="416" 
d="M165 54h251v-54h-321v318l-95 -37v60l95 37v312h70v-284l115 45v-60l-115 -45v-292z" />
    <glyph glyph-name="lslash" unicode="&#x142;" horiz-adv-x="220" 
d="M145 0h-70v308l-75 -33v60l75 33v372h70v-342l75 33v-60l-75 -33v-338z" />
    <glyph glyph-name="Nacute" unicode="&#x143;" horiz-adv-x="677" 
d="M532 690h70v-690h-70l-387 578v-578h-70v690h70l387 -578v578zM226 786l205 128v-70l-205 -115v57z" />
    <glyph glyph-name="nacute" unicode="&#x144;" horiz-adv-x="609" 
d="M145 546l-0.000976562 -88.999c36.667 66 97 99 181 99c60.667 0 111.334 -19.833 152.001 -59.5s61 -96.834 61 -171.501v-325h-69v312c0 60 -14.5 105.667 -43.5 137s-68.667 47 -119 47s-90 -15.667 -119 -47s-43.5 -77 -43.5 -137v-312h-70v546h70zM396.999 770.001
v-70l-205 -115v57z" />
    <glyph glyph-name="Ncommaaccent" unicode="&#x145;" horiz-adv-x="677" 
d="M532 690h70v-690h-70l-387 578v-578h-70v690h70l387 -578v578zM295 -50l81 0.000976562c6 -32.667 9 -64.334 9 -95.001c0 -62 -30.333 -93 -91 -93v38c30.667 0 46 16.333 46 49v25h-45v76z" />
    <glyph glyph-name="ncommaaccent" unicode="&#x146;" horiz-adv-x="609" 
d="M145 546l-0.000976562 -88.999c36.667 66 97 99 181 99c60.667 0 111.334 -19.833 152.001 -59.5s61 -96.834 61 -171.501v-325h-69v312c0 60 -14.5 105.667 -43.5 137s-68.667 47 -119 47s-90 -15.667 -119 -47s-43.5 -77 -43.5 -137v-312h-70v546h70zM260.999 -49.999
l81 0.000976562c6 -32.667 9 -64.334 9 -95.001c0 -62 -30.333 -93 -91 -93v38c30.667 0 46 16.333 46 49v25h-45v76z" />
    <glyph glyph-name="Ncaron" unicode="&#x147;" horiz-adv-x="677" 
d="M532 690h70v-690h-70l-387 578v-578h-70v690h70l387 -578v578zM339 805l134 85v-66l-134 -82l-134 82v66z" />
    <glyph glyph-name="ncaron" unicode="&#x148;" horiz-adv-x="609" 
d="M145 546l-0.000976562 -88.999c36.667 66 97 99 181 99c60.667 0 111.334 -19.833 152.001 -59.5s61 -96.834 61 -171.501v-325h-69v312c0 60 -14.5 105.667 -43.5 137s-68.667 47 -119 47s-90 -15.667 -119 -47s-43.5 -77 -43.5 -137v-312h-70v546h70zM438.999 680.001
l-134 -82l-134 82v66l134 -85l134 85v-66z" />
    <glyph glyph-name="Omacron" unicode="&#x14c;" horiz-adv-x="781" 
d="M670 345c0 87.333 -26.332 157.666 -78.999 210.999s-119.334 80 -200.001 80s-147.5 -26.667 -200.5 -80s-79.5 -123.666 -79.5 -210.999s26.5 -157.833 79.5 -211.5s119.667 -80.5 200 -80.5s147 26.833 200 80.5s79.5 124.167 79.5 211.5zM40.001 345
c0 102 33.833 186.167 101.5 252.5s151 99.5 250 99.5s182.167 -33.167 249.5 -99.5s101 -150.5 101 -252.5s-33.667 -186.167 -101 -252.5s-150.5 -99.5 -249.5 -99.5s-182.333 33.167 -250 99.5s-101.5 150.5 -101.5 252.5zM221.001 784v60h339v-60h-339z" />
    <glyph glyph-name="omacron" unicode="&#x14d;" horiz-adv-x="626" 
d="M451 107c41.333 40.667 62 96.168 62 166.501s-19.667 125.666 -59 165.999s-87.333 60.5 -144 60.5s-104 -20 -142 -60s-57 -95.667 -57 -167s18 -127 54 -167s82.333 -60 139 -60s105.667 20.333 147 61zM113.5 68.001c-49 52 -73.5 120.169 -73.5 204.502
s26 152.666 78 204.999s117 78.5 195 78.5s143 -26.167 195 -78.5s78 -120.333 78 -204s-27.333 -151.834 -82 -204.501s-121.167 -79 -199.5 -79s-142 26 -191 78zM143 640.003v60h339v-60h-339z" />
    <glyph glyph-name="Ohungarumlaut" unicode="&#x150;" horiz-adv-x="781" 
d="M670 345c0 87.333 -26.332 157.666 -78.999 210.999s-119.334 80 -200.001 80s-147.5 -26.667 -200.5 -80s-79.5 -123.666 -79.5 -210.999s26.5 -157.833 79.5 -211.5s119.667 -80.5 200 -80.5s147 26.833 200 80.5s79.5 124.167 79.5 211.5zM40.001 345
c0 102 33.833 186.167 101.5 252.5s151 99.5 250 99.5s182.167 -33.167 249.5 -99.5s101 -150.5 101 -252.5s-33.667 -186.167 -101 -252.5s-150.5 -99.5 -249.5 -99.5s-182.333 33.167 -250 99.5s-101.5 150.5 -101.5 252.5zM354.001 884h70l-85 -139h-50zM503.001 884h70
l-95 -139h-50z" />
    <glyph glyph-name="ohungarumlaut" unicode="&#x151;" horiz-adv-x="626" 
d="M451 107c41.333 40.667 62 96.168 62 166.501s-19.667 125.666 -59 165.999s-87.333 60.5 -144 60.5s-104 -20 -142 -60s-57 -95.667 -57 -167s18 -127 54 -167s82.333 -60 139 -60s105.667 20.333 147 61zM113.5 68.001c-49 52 -73.5 120.169 -73.5 204.502
s26 152.666 78 204.999s117 78.5 195 78.5s143 -26.167 195 -78.5s78 -120.333 78 -204s-27.333 -151.834 -82 -204.501s-121.167 -79 -199.5 -79s-142 26 -191 78zM276 740.003h70l-85 -139h-50zM425 740.003h70l-95 -139h-50z" />
    <glyph glyph-name="OE" unicode="&#x152;" horiz-adv-x="1082" 
d="M1021 633l-280.999 0.000976562v-258h251v-56h-251v-263h281v-56h-351v148c-60.667 -103.333 -153.667 -155 -279 -155c-98.667 0 -181.834 33.167 -249.501 99.5s-101.5 150.666 -101.5 252.999s34 186.5 102 252.5s151 99 249 99c125.333 0 218.333 -51.667 279 -155
v148h351v-57zM111.001 345.001c0 -87.333 26.501 -157.833 79.501 -211.5s119.667 -80.5 200 -80.5s147 26.833 200 80.5s79.5 124.167 79.5 211.5s-26.333 157.666 -79 210.999s-119.334 80 -200.001 80s-147.5 -26.667 -200.5 -80s-79.5 -123.666 -79.5 -210.999z" />
    <glyph glyph-name="oe" unicode="&#x153;" horiz-adv-x="1079" 
d="M933 35.5c-40.667 -30.333 -89.668 -45.499 -147.001 -45.499s-106 11.833 -146 35.5s-71 56.834 -93 99.501c-24.667 -42.667 -58.5 -75.834 -101.5 -99.501s-90.5 -35.5 -142.5 -35.5c-77.333 0 -140.5 26 -189.5 78s-73.5 120.167 -73.5 204.5s26 152.666 78 204.999
s117 78.5 195 78.5c50.667 0 96.834 -11.667 138.501 -35s74.167 -55.666 97.5 -96.999c22 42 53.5 74.5 94.5 97.5s88.5 34.5 142.5 34.5c76 0 137.333 -24.333 184 -73s70 -109 70 -181c0 -19.333 -1.33301 -37.333 -4 -54h-450c2.66699 -62.667 21.667 -112 57 -148
s80 -54 134 -54c42 0 77.833 9.66699 107.5 29s50.167 44.666 61.5 75.999h75c-18 -46.667 -47.333 -85.167 -88 -115.5zM164.999 106.001c36 -40 82.333 -59.999 139 -59.999s105.667 20.333 147 61s62 96.167 62 166.5s-19.667 125.666 -59 165.999
s-87.333 60.5 -144 60.5s-104 -20 -142 -60s-57 -95.667 -57 -167s18 -127 54 -167zM967.999 303.002c0 60 -18.166 107.833 -54.499 143.5s-81.333 53.5 -135 53.5s-98.334 -17.5 -134.001 -52.5s-55.167 -83.167 -58.5 -144.5h382z" />
    <glyph glyph-name="Racute" unicode="&#x154;" horiz-adv-x="603" 
d="M145 289v-289h-70v690h211c77.333 0 136 -18.5 176 -55.5s60 -83.833 60 -140.5s-15.667 -102.5 -47 -137.5s-78 -56.5 -140 -64.5l196 -292h-91l-187 289h-108zM145 633v-287h141c110 0 165 47.833 165 143.5s-55 143.5 -165 143.5h-141zM394 914v-70l-205 -115v57z" />
    <glyph glyph-name="racute" unicode="&#x155;" horiz-adv-x="353" 
d="M145 546v-90c30 66.667 86.333 100 169 100v-73h-20c-48 0 -84.833 -13 -110.5 -39s-38.5 -70.667 -38.5 -134v-310h-70v546h70zM309 770v-70l-205 -115v57z" />
    <glyph glyph-name="Rcommaaccent" unicode="&#x156;" horiz-adv-x="603" 
d="M145 289v-289h-70v690h211c77.333 0 136 -18.5 176 -55.5s60 -83.833 60 -140.5s-15.667 -102.5 -47 -137.5s-78 -56.5 -140 -64.5l196 -292h-91l-187 289h-108zM145 633v-287h141c110 0 165 47.833 165 143.5s-55 143.5 -165 143.5h-141zM258 -50l81 0.000976562
c6 -32.667 9 -64.334 9 -95.001c0 -62 -30.333 -93 -91 -93v38c30.667 0 46 16.333 46 49v25h-45v76z" />
    <glyph glyph-name="rcommaaccent" unicode="&#x157;" horiz-adv-x="353" 
d="M145 546v-90c30 66.667 86.333 100 169 100v-73h-20c-48 0 -84.833 -13 -110.5 -39s-38.5 -70.667 -38.5 -134v-310h-70v546h70zM68 -50h81c6 -33.333 9 -65.333 9 -96c0 -61.333 -30.333 -92 -91 -92v38c30.667 0 46 16.333 46 49v25h-45v76z" />
    <glyph glyph-name="Rcaron" unicode="&#x158;" horiz-adv-x="603" 
d="M145 289v-289h-70v690h211c77.333 0 136 -18.5 176 -55.5s60 -83.833 60 -140.5s-15.667 -102.5 -47 -137.5s-78 -56.5 -140 -64.5l196 -292h-91l-187 289h-108zM145 633v-287h141c110 0 165 47.833 165 143.5s-55 143.5 -165 143.5h-141zM436 824l-134 -82l-134 82v66
l134 -85l134 85v-66z" />
    <glyph glyph-name="rcaron" unicode="&#x159;" horiz-adv-x="353" 
d="M217 661l134 85v-66l-134 -82l-134 82v66zM145 546v-90c30 66.667 86.333 100 169 100v-73h-20c-48 0 -84.833 -13 -110.5 -39s-38.5 -70.667 -38.5 -134v-310h-70v546h70z" />
    <glyph glyph-name="Sacute" unicode="&#x15a;" horiz-adv-x="571" 
d="M125 508c0 -27.333 7.16895 -49.668 21.502 -67.001s32.833 -30.166 55.5 -38.499s47.667 -15.5 75 -21.5s54.666 -12.667 81.999 -20s52.333 -16.833 75 -28.5s41.167 -29.5 55.5 -53.5s21.5 -53.667 21.5 -89c0 -52.667 -19.667 -98.667 -59 -138
s-93.166 -59 -161.499 -59s-123.833 15.333 -166.5 46s-64 72 -64 124h74c2.66699 -32 16.334 -58.5 41.001 -79.5s61.5 -31.5 110.5 -31.5s88 12.667 117 38s43.5 56.833 43.5 94.5s-13.333 66 -40 85s-58.834 32.167 -96.501 39.5s-75.334 15.833 -113.001 25.5
s-69.834 28.5 -96.501 56.5s-40 68.667 -40 122s19.833 97.333 59.5 132s92 52 157 52s116.167 -15 153.5 -45s60 -70 68 -120h-79c-2.66699 28 -16.667 52.5 -42 73.5s-60 31.5 -104 31.5s-79.667 -11 -107 -33s-41 -54 -41 -96zM173.002 785.998l205 128v-70l-205 -115v57
z" />
    <glyph glyph-name="sacute" unicode="&#x15b;" horiz-adv-x="518" 
d="M60 395c0 45.333 18.668 83.4941 56.001 114.494s85 46.5 143 46.5s103.167 -15.167 135.5 -45.5s50.166 -72.166 53.499 -125.499h-72c-1.33301 33.333 -12.666 60.833 -33.999 82.5s-51 32.5 -89 32.5s-67.833 -9.33301 -89.5 -28s-32.5 -41.167 -32.5 -67.5
s8 -47.166 24 -62.499s36.167 -25.666 60.5 -30.999s50.666 -11.666 78.999 -18.999s54.666 -15.166 78.999 -23.499s44.5 -23.333 60.5 -45s24 -49.5 24 -83.5c0 -44 -18.333 -80 -55 -108s-84.834 -42 -144.501 -42s-106.834 15.333 -141.501 46
s-53.667 72.334 -57 125.001h72c1.33301 -34 13.333 -61.667 36 -83s53.834 -32 93.501 -32s70.5 8.5 92.5 25.5s33 38.833 33 65.5s-8 47.667 -24 63s-36.167 25.833 -60.5 31.5s-50.666 12.167 -78.999 19.5s-54.666 15 -78.999 23s-44.5 22.333 -60.5 43
s-24 46.667 -24 78zM146.001 641.994l205 128v-70l-205 -115v57z" />
    <glyph glyph-name="Scedilla" unicode="&#x15e;" horiz-adv-x="571" 
d="M377 605.5c-25.333 21 -59.9961 31.498 -103.996 31.498s-79.667 -11 -107 -33s-41 -54 -41 -96c0 -27.333 7.16699 -49.666 21.5 -66.999s32.833 -30.166 55.5 -38.499s47.667 -15.5 75 -21.5s54.666 -12.667 81.999 -20s52.333 -16.833 75 -28.5
s41.167 -29.5 55.5 -53.5s21.5 -53.667 21.5 -89c0 -48.667 -17 -92.167 -51 -130.5s-82.667 -60.166 -146 -65.499v-51c40 0 71.667 -9.16699 95 -27.5s35 -42.5 35 -72.5s-11.5 -54.333 -34.5 -73s-53.5 -28 -91.5 -28h-107v55h105c37.333 0 56 15.167 56 45.5
s-18.667 45.5 -56 45.5h-55v106c-58.667 3.33301 -106.834 20.166 -144.501 50.499s-56.5 69.833 -56.5 118.5h74c2.66699 -32 16.334 -58.5 41.001 -79.5s61.5 -31.5 110.5 -31.5s88 12.667 117 38s43.5 56.833 43.5 94.5s-13.333 66 -40 85s-58.834 32.167 -96.501 39.5
s-75.334 15.833 -113.001 25.5s-69.834 28.5 -96.501 56.5s-40 68.667 -40 122s19.833 97.333 59.5 132s92 52 157 52s116.167 -15 153.5 -45s60 -70 68 -120h-79c-2.66699 28 -16.667 52.5 -42 73.5z" />
    <glyph glyph-name="scedilla" unicode="&#x15f;" horiz-adv-x="518" 
d="M342 467.5c-21.333 21.667 -51.001 32.4951 -89.001 32.4951s-67.833 -9.33301 -89.5 -28s-32.5 -41.167 -32.5 -67.5s8 -47.166 24 -62.499s36.167 -25.666 60.5 -30.999s50.666 -11.666 78.999 -18.999s54.666 -15.166 78.999 -23.499s44.5 -23.333 60.5 -45
s24 -51.167 24 -88.5s-15.5 -69.5 -46.5 -96.5s-72.5 -42.833 -124.5 -47.5v-48c40 0 71.667 -9.16699 95 -27.5s35 -42.5 35 -72.5s-11.5 -54.333 -34.5 -73s-53.5 -28 -91.5 -28h-107v55h105c37.333 0 56 15.167 56 45.5s-18.667 45.5 -56 45.5h-55v103
c-52.667 4 -94 21 -124 51s-46.667 69.667 -50 119h72c1.33301 -34 13.333 -61.667 36 -83s53.834 -32 93.501 -32s70.5 8.5 92.5 25.5s33 38.833 33 65.5s-8 47.667 -24 63s-36.167 25.833 -60.5 31.5s-50.666 12.167 -78.999 19.5s-54.666 15 -78.999 23
s-44.5 22.333 -60.5 43s-24 46.667 -24 78c0 45.333 18.667 83.5 56 114.5s85 46.5 143 46.5s103.167 -15.167 135.5 -45.5s50.166 -72.166 53.499 -125.499h-72c-1.33301 33.333 -12.666 60.833 -33.999 82.5z" />
    <glyph glyph-name="Scaron" unicode="&#x160;" horiz-adv-x="571" 
d="M125 508c0 -27.333 7.16895 -49.668 21.502 -67.001s32.833 -30.166 55.5 -38.499s47.667 -15.5 75 -21.5s54.666 -12.667 81.999 -20s52.333 -16.833 75 -28.5s41.167 -29.5 55.5 -53.5s21.5 -53.667 21.5 -89c0 -52.667 -19.667 -98.667 -59 -138
s-93.166 -59 -161.499 -59s-123.833 15.333 -166.5 46s-64 72 -64 124h74c2.66699 -32 16.334 -58.5 41.001 -79.5s61.5 -31.5 110.5 -31.5s88 12.667 117 38s43.5 56.833 43.5 94.5s-13.333 66 -40 85s-58.834 32.167 -96.501 39.5s-75.334 15.833 -113.001 25.5
s-69.834 28.5 -96.501 56.5s-40 68.667 -40 122s19.833 97.333 59.5 132s92 52 157 52s116.167 -15 153.5 -45s60 -70 68 -120h-79c-2.66699 28 -16.667 52.5 -42 73.5s-60 31.5 -104 31.5s-79.667 -11 -107 -33s-41 -54 -41 -96zM286.002 804.998l134 85v-66l-134 -82
l-134 82v66z" />
    <glyph glyph-name="scaron" unicode="&#x161;" horiz-adv-x="518" 
d="M60 395c0 45.333 18.668 83.4941 56.001 114.494s85 46.5 143 46.5s103.167 -15.167 135.5 -45.5s50.166 -72.166 53.499 -125.499h-72c-1.33301 33.333 -12.666 60.833 -33.999 82.5s-51 32.5 -89 32.5s-67.833 -9.33301 -89.5 -28s-32.5 -41.167 -32.5 -67.5
s8 -47.166 24 -62.499s36.167 -25.666 60.5 -30.999s50.666 -11.666 78.999 -18.999s54.666 -15.166 78.999 -23.499s44.5 -23.333 60.5 -45s24 -49.5 24 -83.5c0 -44 -18.333 -80 -55 -108s-84.834 -42 -144.501 -42s-106.834 15.333 -141.501 46
s-53.667 72.334 -57 125.001h72c1.33301 -34 13.333 -61.667 36 -83s53.834 -32 93.501 -32s70.5 8.5 92.5 25.5s33 38.833 33 65.5s-8 47.667 -24 63s-36.167 25.833 -60.5 31.5s-50.666 12.167 -78.999 19.5s-54.666 15 -78.999 23s-44.5 22.333 -60.5 43
s-24 46.667 -24 78zM259.001 660.994l134 85v-66l-134 -82l-134 82v66z" />
    <glyph glyph-name="Tcommaaccent" unicode="&#x162;" horiz-adv-x="529" 
d="M480 633h-181v-633c40 -0 71.667 -9.16699 95 -27.5s35 -42.5 35 -72.5s-11.5 -54.333 -34.5 -73s-53.5 -28 -91.5 -28h-137v55h135c37.333 0 56 15.167 56 45.5s-18.667 45.5 -56 45.5h-71v688h-181v57h431v-57z" />
    <glyph glyph-name="tcommaaccent" unicode="&#x163;" horiz-adv-x="339" 
d="M198 -57c40 0 71.667 -9.16699 95 -27.5s35 -42.5 35 -72.5s-11.5 -54.333 -34.5 -73s-53.5 -28 -91.5 -28h-107v55h105c37.333 0 56 15.167 56 45.5s-18.667 45.5 -56 45.5h-55v131c-32 20 -48 56.667 -48 110v362h-76v55h76v137h70v-137h151v-55h-151v-362
c0 -27.333 5.33301 -46.5 16 -57.5s29.667 -16.5 57 -16.5h78v-55h-93c-7.33301 0 -16.333 0.666992 -27 2v-59z" />
    <glyph glyph-name="Tcaron" unicode="&#x164;" horiz-adv-x="529" 
d="M49 633v57h431v-57h-181v-633h-69v633h-181zM265 805l134 85v-66l-134 -82l-134 82v66z" />
    <glyph glyph-name="tcaron" unicode="&#x165;" horiz-adv-x="339" 
d="M318 491h-151v-362c0 -27.333 5.33301 -46.5 16 -57.5s29.667 -16.5 57 -16.5h78v-55h-93c-85.333 0 -128 43 -128 129v362h-76v55h76v137h70v-137h151v-55zM126 -50h81c6 -33.333 9 -65.333 9 -96c0 -61.333 -30.333 -92 -91 -92v38c30.667 0 46 16.333 46 49v25h-45v76
z" />
    <glyph glyph-name="Umacron" unicode="&#x16a;" horiz-adv-x="658" 
d="M159 784v60h339v-60h-339zM75 232l0.000976562 458h70v-458c0 -61.333 16.5 -106.833 49.5 -136.5s78.167 -44.5 135.5 -44.5s102.333 14.833 135 44.5s49 75.167 49 136.5v458h70v-458c0 -78.667 -23.667 -138.167 -71 -178.5s-108.333 -60.5 -183 -60.5
s-135.834 20.167 -183.501 60.5s-71.5 99.833 -71.5 178.5z" />
    <glyph glyph-name="umacron" unicode="&#x16b;" horiz-adv-x="609" 
d="M464 546l70.001 -0.000976562v-546h-70v89c-36.667 -66 -97 -99 -181 -99c-60.667 0 -111.334 19.833 -152.001 59.5s-61 96.834 -61 171.501v325h69v-312c0 -60 14.5 -105.667 43.5 -137s68.667 -47 119 -47s90 15.667 119 47s43.5 77 43.5 137v312zM474.001 699.999
v-60h-339v60h339z" />
    <glyph glyph-name="Uring" unicode="&#x16e;" horiz-adv-x="658" 
d="M75 232l0.000976562 458h70v-458c0 -61.333 16.5 -106.833 49.5 -136.5s78.167 -44.5 135.5 -44.5s102.333 14.833 135 44.5s49 75.167 49 136.5v458h70v-458c0 -78.667 -23.667 -138.167 -71 -178.5s-108.333 -60.5 -183 -60.5s-135.834 20.167 -183.501 60.5
s-71.5 99.833 -71.5 178.5zM383.001 855c0 16 -5.16699 28.833 -15.5 38.5s-23.166 14.5 -38.499 14.5s-28 -4.83301 -38 -14.5s-15 -22.5 -15 -38.5s5 -29 15 -39s22.667 -15 38 -15s28.166 5 38.499 15s15.5 23 15.5 39zM229.001 854c0 30 9.5 54.167 28.5 72.5
s42.833 27.5 71.5 27.5s52.5 -9.16699 71.5 -27.5s28.5 -42.5 28.5 -72.5s-9.5 -54.167 -28.5 -72.5s-42.833 -27.5 -71.5 -27.5s-52.5 9.16699 -71.5 27.5s-28.5 42.5 -28.5 72.5z" />
    <glyph glyph-name="uring" unicode="&#x16f;" horiz-adv-x="609" 
d="M464 546l70.001 -0.000976562v-546h-70v89c-36.667 -66 -97 -99 -181 -99c-60.667 0 -111.334 19.833 -152.001 59.5s-61 96.834 -61 171.501v325h69v-312c0 -60 14.5 -105.667 43.5 -137s68.667 -47 119 -47s90 15.667 119 47s43.5 77 43.5 137v312zM305.001 609.999
c-28.667 0 -52.5 9.16699 -71.5 27.5s-28.5 42.5 -28.5 72.5s9.5 54.167 28.5 72.5s42.833 27.5 71.5 27.5s52.5 -9.16699 71.5 -27.5s28.5 -42.5 28.5 -72.5s-9.5 -54.167 -28.5 -72.5s-42.833 -27.5 -71.5 -27.5zM305.001 763.999c-15.333 0 -28 -4.83301 -38 -14.5
s-15 -22.5 -15 -38.5s5 -29 15 -39s22.667 -15 38 -15s28.166 5 38.499 15s15.5 23 15.5 39s-5.16699 28.833 -15.5 38.5s-23.166 14.5 -38.499 14.5z" />
    <glyph glyph-name="Uhungarumlaut" unicode="&#x170;" horiz-adv-x="658" 
d="M292 884h70l-85 -139h-50zM441 884h70l-95 -139h-50zM75 232l0.000976562 458h70v-458c0 -61.333 16.5 -106.833 49.5 -136.5s78.167 -44.5 135.5 -44.5s102.333 14.833 135 44.5s49 75.167 49 136.5v458h70v-458c0 -78.667 -23.667 -138.167 -71 -178.5
s-108.333 -60.5 -183 -60.5s-135.834 20.167 -183.501 60.5s-71.5 99.833 -71.5 178.5z" />
    <glyph glyph-name="uhungarumlaut" unicode="&#x171;" horiz-adv-x="609" 
d="M464 546l70.001 -0.000976562v-546h-70v89c-36.667 -66 -97 -99 -181 -99c-60.667 0 -111.334 19.833 -152.001 59.5s-61 96.834 -61 171.501v325h69v-312c0 -60 14.5 -105.667 43.5 -137s68.667 -47 119 -47s90 15.667 119 47s43.5 77 43.5 137v312zM338.001 739.999
l-85 -139h-50l65 139h70zM487.001 739.999l-95 -139h-50l75 139h70z" />
    <glyph glyph-name="Uogonek" unicode="&#x172;" horiz-adv-x="658" 
d="M75 232l0.000976562 458.001h70v-458c0 -61.333 16.5 -106.833 49.5 -136.5s78.167 -44.5 135.5 -44.5s102.333 14.833 135 44.5s49 75.167 49 136.5v458h70v-458c0 -66.667 -15.833 -118.167 -47.5 -154.5s-69.834 -60.5 -114.501 -72.5
c-28 -8 -46.833 -15.333 -56.5 -22s-14.5 -16.334 -14.5 -29.001c0 -30.667 18.667 -46 56 -46h75v-55h-77c-38 0 -68.5 9.33301 -91.5 28s-34.5 43 -34.5 73c0 15.333 3 29 9 41c-64 7.33301 -115.5 31 -154.5 71s-58.5 95.333 -58.5 166z" />
    <glyph glyph-name="uogonek" unicode="&#x173;" horiz-adv-x="609" 
d="M489 -144h75.001v-55h-77c-38 0 -68.5 9.33301 -91.5 28s-34.5 42.167 -34.5 70.5s9.16699 51.166 27.5 68.499s43.5 28 75.5 32v89c-36.667 -66 -97 -99 -181 -99c-60.667 0 -111.334 19.833 -152.001 59.5s-61 96.834 -61 171.501v325h69v-312
c0 -60 14.5 -105.667 43.5 -137s68.667 -47 119 -47s90 15.667 119 47s43.5 77 43.5 137v312h70v-599h-45c-37.333 0 -56 -15.167 -56 -45.5s18.667 -45.5 56 -45.5z" />
    <glyph glyph-name="Ydieresis" unicode="&#x178;" horiz-adv-x="541" 
d="M306 0h-70v272l-221 418h75l180 -354l180 354h76l-220 -418v-272zM196 764c-13.333 0 -24.833 4.83301 -34.5 14.5s-14.5 21.167 -14.5 34.5s4.83301 24.833 14.5 34.5s21.167 14.5 34.5 14.5s24.833 -4.83301 34.5 -14.5s14.5 -21.167 14.5 -34.5
s-4.83301 -24.833 -14.5 -34.5s-21.167 -14.5 -34.5 -14.5zM346 764c-13.333 0 -24.833 4.83301 -34.5 14.5s-14.5 21.167 -14.5 34.5s4.83301 24.833 14.5 34.5s21.167 14.5 34.5 14.5s24.833 -4.83301 34.5 -14.5s14.5 -21.167 14.5 -34.5s-4.83301 -24.833 -14.5 -34.5
s-21.167 -14.5 -34.5 -14.5z" />
    <glyph glyph-name="Zacute" unicode="&#x179;" horiz-adv-x="528" 
d="M478 690v-57l-348 -577h348v-56h-428v56l348 577h-348v57h428zM151 786l205 128v-70l-205 -115v57z" />
    <glyph glyph-name="zacute" unicode="&#x17a;" horiz-adv-x="437" 
d="M396 546v-55l-279 -435h279v-56h-356v56l279 435h-279v55h356zM106 642l205 128v-70l-205 -115v57z" />
    <glyph glyph-name="Zdotaccent" unicode="&#x17b;" horiz-adv-x="528" 
d="M264 764c-13.333 0 -24.833 4.83301 -34.5 14.5s-14.5 21.167 -14.5 34.5s4.83301 24.833 14.5 34.5s21.167 14.5 34.5 14.5s24.833 -4.83301 34.5 -14.5s14.5 -21.167 14.5 -34.5s-4.83301 -24.833 -14.5 -34.5s-21.167 -14.5 -34.5 -14.5zM478 690v-57l-348 -577h348
v-56h-428v56l348 577h-348v57h428z" />
    <glyph glyph-name="zdotaccent" unicode="&#x17c;" horiz-adv-x="437" 
d="M219 620c-13.333 0 -24.833 4.83301 -34.5 14.5s-14.5 21.167 -14.5 34.5s4.83301 24.833 14.5 34.5s21.167 14.5 34.5 14.5s24.833 -4.83301 34.5 -14.5s14.5 -21.167 14.5 -34.5s-4.83301 -24.833 -14.5 -34.5s-21.167 -14.5 -34.5 -14.5zM396 546v-55l-279 -435h279
v-56h-356v56l279 435h-279v55h356z" />
    <glyph glyph-name="Zcaron" unicode="&#x17d;" horiz-adv-x="528" 
d="M478 690v-57l-348 -577h348v-56h-428v56l348 577h-348v57h428zM264 805l134 85v-66l-134 -82l-134 82v66z" />
    <glyph glyph-name="zcaron" unicode="&#x17e;" horiz-adv-x="437" 
d="M396 546v-55l-279 -435h279v-56h-356v56l279 435h-279v55h356zM219 661l134 85v-66l-134 -82l-134 82v66z" />
    <glyph glyph-name="florin" unicode="&#x192;" horiz-adv-x="328" 
d="M-11 -179l-25 0.00195312l6 55h16c20 0 35 5.66699 45 17s16.333 30.333 19 57l58 541h-76l5 55h76l6 53c6 57.333 25.333 99 58 125s82 39 148 39l-6 -56c-44 0 -75.667 -8.33301 -95 -25s-31 -44.334 -35 -83.001l-6 -53h127l-5 -55h-127l-58 -541
c-4.66699 -44.667 -17.167 -77.334 -37.5 -98.001s-51.5 -31 -93.5 -31z" />
    <glyph glyph-name="Scommaaccent" unicode="&#x218;" horiz-adv-x="571" 
d="M125 508c0 -27.333 7.16895 -49.668 21.502 -67.001s32.833 -30.166 55.5 -38.499s47.667 -15.5 75 -21.5s54.666 -12.667 81.999 -20s52.333 -16.833 75 -28.5s41.167 -29.5 55.5 -53.5s21.5 -53.667 21.5 -89c0 -52.667 -19.667 -98.667 -59 -138
s-93.166 -59 -161.499 -59s-123.833 15.333 -166.5 46s-64 72 -64 124h74c2.66699 -32 16.334 -58.5 41.001 -79.5s61.5 -31.5 110.5 -31.5s88 12.667 117 38s43.5 56.833 43.5 94.5s-13.333 66 -40 85s-58.834 32.167 -96.501 39.5s-75.334 15.833 -113.001 25.5
s-69.834 28.5 -96.501 56.5s-40 68.667 -40 122s19.833 97.333 59.5 132s92 52 157 52s116.167 -15 153.5 -45s60 -70 68 -120h-79c-2.66699 28 -16.667 52.5 -42 73.5s-60 31.5 -104 31.5s-79.667 -11 -107 -33s-41 -54 -41 -96zM242.002 -50.002l81 0.000976562
c6 -32.667 9 -64.334 9 -95.001c0 -62 -30.333 -93 -91 -93v38c30.667 0 46 16.333 46 49v25h-45v76z" />
    <glyph glyph-name="scommaaccent" unicode="&#x219;" horiz-adv-x="518" 
d="M60 395c0 45.333 18.668 83.4941 56.001 114.494s85 46.5 143 46.5s103.167 -15.167 135.5 -45.5s50.166 -72.166 53.499 -125.499h-72c-1.33301 33.333 -12.666 60.833 -33.999 82.5s-51 32.5 -89 32.5s-67.833 -9.33301 -89.5 -28s-32.5 -41.167 -32.5 -67.5
s8 -47.166 24 -62.499s36.167 -25.666 60.5 -30.999s50.666 -11.666 78.999 -18.999s54.666 -15.166 78.999 -23.499s44.5 -23.333 60.5 -45s24 -49.5 24 -83.5c0 -44 -18.333 -80 -55 -108s-84.834 -42 -144.501 -42s-106.834 15.333 -141.501 46
s-53.667 72.334 -57 125.001h72c1.33301 -34 13.333 -61.667 36 -83s53.834 -32 93.501 -32s70.5 8.5 92.5 25.5s33 38.833 33 65.5s-8 47.667 -24 63s-36.167 25.833 -60.5 31.5s-50.666 12.167 -78.999 19.5s-54.666 15 -78.999 23s-44.5 22.333 -60.5 43
s-24 46.667 -24 78zM215.001 -50.0059l81 0.000976562c6 -32.667 9 -64.334 9 -95.001c0 -62 -30.333 -93 -91 -93v38c30.667 0 46 16.333 46 49v25h-45v76z" />
    <glyph glyph-name="uni021A" unicode="&#x21a;" horiz-adv-x="529" 
d="M49 633v57h431v-57h-181v-633h-69v633h-181zM221 -50l81 0.000976562c6 -32.667 9 -64.334 9 -95.001c0 -62 -30.333 -93 -91 -93v38c30.667 0 46 16.333 46 49v25h-45v76z" />
    <glyph glyph-name="uni021B" unicode="&#x21b;" horiz-adv-x="339" 
d="M318 491h-151v-362c0 -27.333 5.33301 -46.5 16 -57.5s29.667 -16.5 57 -16.5h78v-55h-93c-85.333 0 -128 43 -128 129v362h-76v55h76v137h70v-137h151v-55zM126 -50h81c6 -33.333 9 -65.333 9 -96c0 -61.333 -30.333 -92 -91 -92v38c30.667 0 46 16.333 46 49v25h-45v76
z" />
    <glyph glyph-name="afii57929" unicode="&#x2bc;" horiz-adv-x="131" 
d="M21 768h81c6 -33.333 9 -65.333 9 -96c0 -61.333 -30.333 -92 -91 -92v38c30.667 0 46 16.333 46 49v25h-45v76z" />
    <glyph glyph-name="circumflex" unicode="&#x2c6;" horiz-adv-x="288" 
d="M278 664v-66l-134 85l-134 -85v66l134 82z" />
    <glyph glyph-name="caron" unicode="&#x2c7;" horiz-adv-x="288" 
d="M144 661l134 85v-66l-134 -82l-134 82v66z" />
    <glyph glyph-name="uni02C9" unicode="&#x2c9;" horiz-adv-x="359" 
d="M10 640v60h339v-60h-339z" />
    <glyph glyph-name="breve" unicode="&#x2d8;" horiz-adv-x="290" 
d="M280 732c0 -34 -11.8311 -62.5 -35.498 -85.5s-56.834 -34.5 -99.501 -34.5s-75.834 11.667 -99.501 35s-35.5 52 -35.5 86v15h50c0 -25.333 6.33301 -44.333 19 -57s34.667 -19 66 -19s53.333 6.33301 66 19s19 31.667 19 57h50v-16z" />
    <glyph glyph-name="dotaccent" unicode="&#x2d9;" horiz-adv-x="118" 
d="M59 620c-13.333 0 -24.833 4.83301 -34.5 14.5s-14.5 21.167 -14.5 34.5s4.83301 24.833 14.5 34.5s21.167 14.5 34.5 14.5s24.833 -4.83301 34.5 -14.5s14.5 -21.167 14.5 -34.5s-4.83301 -24.833 -14.5 -34.5s-21.167 -14.5 -34.5 -14.5z" />
    <glyph glyph-name="ring" unicode="&#x2da;" horiz-adv-x="220" 
d="M164 711c0 16 -5.16699 28.833 -15.5 38.5s-23.166 14.5 -38.499 14.5s-28 -4.83301 -38 -14.5s-15 -22.5 -15 -38.5s5 -29 15 -39s22.667 -15 38 -15s28.166 5 38.499 15s15.5 23 15.5 39zM10 710c0 30 9.5 54.167 28.5 72.5s42.833 27.5 71.5 27.5
s52.5 -9.16699 71.5 -27.5s28.5 -42.5 28.5 -72.5s-9.5 -54.167 -28.5 -72.5s-42.833 -27.5 -71.5 -27.5s-52.5 9.16699 -71.5 27.5s-28.5 42.5 -28.5 72.5z" />
    <glyph glyph-name="ogonek" unicode="&#x2db;" horiz-adv-x="243" 
d="M10 -98c0 30 11.667 54.167 35 72.5s55 27.5 95 27.5h43v-55h-45c-37.333 0 -56 -15.167 -56 -45.5s18.667 -45.5 56 -45.5h75v-55h-77c-38 0 -68.5 9.33301 -91.5 28s-34.5 43 -34.5 73z" />
    <glyph glyph-name="tilde" unicode="&#x2dc;" horiz-adv-x="314" 
d="M42 674c18 16.667 37.667 25 59 25s42 -7.33301 62 -22s36 -22 48 -22c26 0 40.333 13.667 43 41h50c-3.33301 -28.667 -14 -51.334 -32 -68.001s-37.667 -25 -59 -25s-42 7.33301 -62 22s-36 22 -48 22c-26 0 -40.333 -13.667 -43 -41h-50
c3.33301 28.667 14 51.334 32 68.001z" />
    <glyph glyph-name="hungarumlaut" unicode="&#x2dd;" horiz-adv-x="304" 
d="M75 740h70l-85 -139h-50zM224 740h70l-95 -139h-50z" />
    <glyph glyph-name="pi" unicode="&#x3c0;" horiz-adv-x="706" 
d="M40 489v57h616v-57h-81v-489h-69v489h-316v-489h-69v489h-81z" />
    <glyph glyph-name="uni0901" unicode="&#x901;" horiz-adv-x="0" 
d="M-132 968c-13.333 0 -24.833 4.83301 -34.5 14.5s-14.5 21.167 -14.5 34.5s4.83301 24.833 14.5 34.5s21.167 14.5 34.5 14.5s24.833 -4.83301 34.5 -14.5s14.5 -21.167 14.5 -34.5s-4.83301 -24.833 -14.5 -34.5s-21.167 -14.5 -34.5 -14.5zM48 987
c0 -48.667 -14.6689 -88.834 -44.002 -120.501s-74.666 -47.5 -135.999 -47.5s-106.666 15.833 -135.999 47.5s-44 71.834 -44 120.501h60c0 -31.333 10 -58 30 -80s50 -33 90 -33s70 11 90 33s30 48.667 30 80h60z" />
    <glyph glyph-name="uni0902" unicode="&#x902;" horiz-adv-x="0" 
d="M-132 841c-13.333 0 -24.833 4.83301 -34.5 14.5s-14.5 21.167 -14.5 34.5s4.83301 24.833 14.5 34.5s21.167 14.5 34.5 14.5s24.833 -4.83301 34.5 -14.5s14.5 -21.167 14.5 -34.5s-4.83301 -24.833 -14.5 -34.5s-21.167 -14.5 -34.5 -14.5z" />
    <glyph glyph-name="uni0903" unicode="&#x903;" horiz-adv-x="148" 
d="M74 150c-13.333 0 -24.833 4.83301 -34.5 14.5s-14.5 21.167 -14.5 34.5s4.83301 24.833 14.5 34.5s21.167 14.5 34.5 14.5s24.833 -4.83301 34.5 -14.5s14.5 -21.167 14.5 -34.5s-4.83301 -24.833 -14.5 -34.5s-21.167 -14.5 -34.5 -14.5zM74 455
c-13.333 0 -24.833 4.83301 -34.5 14.5s-14.5 21.167 -14.5 34.5s4.83301 24.833 14.5 34.5s21.167 14.5 34.5 14.5s24.833 -4.83301 34.5 -14.5s14.5 -21.167 14.5 -34.5s-4.83301 -24.833 -14.5 -34.5s-21.167 -14.5 -34.5 -14.5z" />
    <glyph glyph-name="uni0905" unicode="&#x905;" horiz-adv-x="822" 
d="M657 740h205.001v-60h-140v-680h-65v344h-175c16 -26 24 -56 24 -90c0 -61.333 -19.167 -110.333 -57.5 -147s-88.5 -55 -150.5 -55s-112.833 18.333 -152.5 55s-59.5 85.334 -59.5 146.001h60c0 -44 14.167 -79.333 42.5 -106s65 -40 110 -40s80.833 13.333 107.5 40
s40 62 40 106s-13.333 77 -40 99s-63.334 33 -110.001 33h-40v60h33c41.333 0 75.833 10.667 103.5 32s41.5 51.5 41.5 90.5s-12.833 70 -38.5 93s-59.167 34.5 -100.5 34.5s-75.166 -11.667 -101.499 -35s-39.5 -54.333 -39.5 -93h-60c0 55.333 18.833 99.666 56.5 132.999
s85.5 50 143.5 50s105.833 -16.667 143.5 -50s56.5 -77.666 56.5 -132.999c0 -74.667 -36.333 -123.334 -109 -146.001v-6c15.333 -4 28.666 -9.33301 39.999 -16h232v341z" />
    <glyph glyph-name="uni0906" unicode="&#x906;" horiz-adv-x="1087" 
d="M1127 740l0.000976562 -60h-140v-680h-65v680h-200v-680h-65v344h-175c16 -26 24 -56 24 -90c0 -61.333 -19.167 -110.333 -57.5 -147s-88.5 -55 -150.5 -55s-112.833 18.333 -152.5 55s-59.5 85.334 -59.5 146.001h60c0 -44 14.167 -79.333 42.5 -106s65 -40 110 -40
s80.833 13.333 107.5 40s40 62 40 106s-13.333 77 -40 99s-63.334 33 -110.001 33h-40v60h33c41.333 0 75.833 10.667 103.5 32s41.5 51.5 41.5 90.5s-12.833 70 -38.5 93s-59.167 34.5 -100.5 34.5s-75.166 -11.667 -101.499 -35s-39.5 -54.333 -39.5 -93h-60
c0 55.333 18.833 99.666 56.5 132.999s85.5 50 143.5 50s105.833 -16.667 143.5 -50s56.5 -77.666 56.5 -132.999c0 -74.667 -36.333 -123.334 -109 -146.001v-6c15.333 -4 28.666 -9.33301 39.999 -16h232v341h470z" />
    <glyph glyph-name="uni0907" unicode="&#x907;" horiz-adv-x="598" 
d="M491 501h-164c-44.667 0 -79.667 -6.33301 -105 -19s-38 -37.167 -38 -73.5s11.833 -60.833 35.5 -73.5s55 -19 94 -19s70.167 -1.83301 93.5 -5.5s47 -10.5 71 -20.5c48.667 -22 73 -66.667 73 -134c0 -48.667 -17.167 -88.5 -51.5 -119.5s-82.166 -46.5 -143.499 -46.5
c-82 0 -141.333 25.333 -178 76v-141h-65v277h65c6.66699 -101.333 61.667 -152 165 -152c44.667 0 79.667 9.16699 105 27.5s38 46.5 38 84.5c0 42.667 -16 70 -48 82c-24.667 9.33301 -58.334 14 -101.001 14c-69.333 0 -123 11.167 -161 33.5s-57 61.833 -57 118.5
c0 100.667 69 151 207 151h100v119h-466v60h678v-60h-147v-179z" />
    <glyph glyph-name="uni0908" unicode="&#x908;" horiz-adv-x="598" 
d="M-40 740l467.999 -0.000976562v106c0 130 53 195 159 195c47.333 0 84 -14.5 110 -43.5s39 -67.833 39 -116.5h-55c-1.33301 34.667 -9.16602 61 -23.499 79s-38.5 27 -72.5 27s-58.5 -11.667 -73.5 -35s-22.5 -58.666 -22.5 -105.999v-106h149v-60h-147v-179h-164
c-44.667 0 -79.667 -6.33301 -105 -19s-38 -37.167 -38 -73.5s11.833 -60.833 35.5 -73.5s55 -19 94 -19s70.167 -1.83301 93.5 -5.5s47 -10.5 71 -20.5c48.667 -22 73 -66.667 73 -134c0 -48.667 -17.167 -88.5 -51.5 -119.5s-82.166 -46.5 -143.499 -46.5
c-82 0 -141.333 25.333 -178 76v-141h-65v277h65c6.66699 -101.333 61.667 -152 165 -152c44.667 0 79.667 9.16699 105 27.5s38 46.5 38 84.5c0 42.667 -16 70 -48 82c-24.667 9.33301 -58.334 14 -101.001 14c-69.333 0 -123 11.167 -161 33.5s-57 61.833 -57 118.5
c0 100.667 69 151 207 151h100v119h-466v60z" />
    <glyph glyph-name="uni0909" unicode="&#x909;" horiz-adv-x="585" 
d="M480 680l-0.000976562 -36.0039c0 -61.333 -6.33301 -110.166 -19 -146.499s-39.334 -64.833 -80.001 -85.5v-6c40 -13.333 71.833 -36.166 95.5 -68.499s35.5 -71.5 35.5 -117.5c0 -66.667 -18.667 -118.667 -56 -156s-90 -56 -158 -56s-122.667 20.333 -164 61
s-62 94 -62 160h60c0 -46.667 16.167 -86 48.5 -118s71.833 -48 118.5 -48s83.834 14.333 111.501 43s41.5 67.334 41.5 116.001s-17.167 86.834 -51.5 114.501s-76.166 41.5 -125.499 41.5h-33v61h33c53.333 0 90.833 17.833 112.5 53.5s32.5 85.167 32.5 148.5v39h-460v60
h665v-60h-145z" />
    <glyph glyph-name="uni090A" unicode="&#x90a;" horiz-adv-x="857" 
d="M479 680l-0.000976562 -36.001c0 -61.333 -6.33301 -110.166 -19 -146.499s-39.334 -64.833 -80.001 -85.5v-6h197c152.667 0 229 -63.333 229 -190c0 -142 -85.333 -204 -256 -186v54c94.667 -11.333 154 8 178 58c9.33301 19.333 14 44 14 74
c0 50.667 -13.667 85.334 -41 104.001s-68.666 28 -123.999 28h-110c29.333 -34.667 44 -77.334 44 -128.001c0 -66.667 -18.667 -118.667 -56 -156s-89.833 -56 -157.5 -56s-122.334 20.5 -164.001 61.5s-62.5 94.167 -62.5 159.5h60c0 -46.667 16.167 -86 48.5 -118
s71.833 -48 118.5 -48s83.834 14.167 111.501 42.5s41.5 67 41.5 116s-17.167 87.333 -51.5 115s-76.166 41.5 -125.499 41.5h-33v61h33c53.333 0 90.833 17.833 112.5 53.5s32.5 85.167 32.5 148.5v39h-459v60h937v-60h-418z" />
    <glyph glyph-name="uni090B" unicode="&#x90b;" horiz-adv-x="964" 
d="M1004 680l-449.001 0.000976562v-209h188c26.667 0 43.834 5.16699 51.501 15.5s11.5 30.166 11.5 59.499v35h65v-365h-32c-36 0 -63.833 -9.83301 -83.5 -29.5s-29.5 -47.834 -29.5 -84.501s11.667 -64.334 35 -83.001s53.333 -28 90 -28c21.333 0 42.666 3 63.999 9
v-54c-16 -6.66699 -37.667 -10 -65 -10c-53.333 0 -97.5 14 -132.5 42s-52.5 67.333 -52.5 118s12.333 90.834 37 120.501s59.334 47.5 104.001 53.5v154c-16 -6.66699 -36.667 -10 -62 -10h-189v-414h-65v295l-288 -295h-83v5l367 361c-8 44.667 -27 80.334 -57 107.001
s-70.667 40 -122 40s-93.833 -17.333 -127.5 -52s-50.5 -82 -50.5 -142h-65c0 76 22.167 137.333 66.5 184s102.833 70 175.5 70c84 0 145.333 -33 184 -99v206h-530v60h1044v-60z" />
    <glyph glyph-name="uni090C" unicode="&#x90c;" horiz-adv-x="906" 
d="M806 -64c-53.333 0 -97.335 14.001 -132.002 42.001s-52 67.5 -52 118.5s12.333 91.167 37 120.5s59.334 47 104.001 53c2.66699 45.333 -4.33301 85.333 -21 120c-19.333 40.667 -56.666 61 -111.999 61c-98 0 -144.667 -73.333 -140 -220h-64
c4.66699 146.667 -42.333 220 -141 220c-88.667 0 -133 -59.667 -133 -179c0 -62 16.667 -110.5 50 -145.5s83 -50.167 149 -45.5v-60c-80 -8 -144 11.167 -192 57.5s-72 110.5 -72 192.5c0 160 66 240 198 240c43.333 0 80.333 -11 111 -33s51.334 -53 62.001 -93
c10 36.667 28.167 65.834 54.5 87.501s58.5 34.167 96.5 37.5v170h-649v60h986v-60h-272v-173c48 -8 85.333 -31 112 -69s40 -88.667 40 -152c0 -18.667 -1.66699 -42 -5 -70h-25c-36 0 -63.833 -9.83301 -83.5 -29.5s-29.5 -47.834 -29.5 -84.501
s11.667 -64.334 35 -83.001s53.333 -28 90 -28c21.333 0 42.666 3 63.999 9v-55c-16.667 -6 -38.667 -9 -66 -9z" />
    <glyph glyph-name="uni090D" unicode="&#x90d;" horiz-adv-x="615" 
d="M469 555l0.000976562 124.999h-328v-415c0 -124 57 -186 171 -186c110 0 165 55.333 165 166h65c0 -70.667 -20 -126 -60 -166s-98.5 -60 -175.5 -60s-134.667 22.667 -173 68s-57.5 107.333 -57.5 186v407h-153v60h735v-60h-124v-126
c0 -79.333 -15.333 -134.666 -46 -165.999s-82.334 -47.333 -155.001 -48v61c54.667 2 91 12.333 109 31s27 59.667 27 123zM442.001 999.999l60 -0.000976562c0 -52.667 -16.667 -95.5 -50 -128.5s-83.333 -49.5 -150 -49.5s-116.667 16.5 -150 49.5s-50 75.833 -50 128.5
h60c0 -36 11.5 -65.5 34.5 -88.5s58.667 -34.5 107 -34.5s83.5 11.333 105.5 34s33 52.334 33 89.001z" />
    <glyph glyph-name="uni090F" unicode="&#x90f;" horiz-adv-x="655" 
d="M506 555l0.000976562 124.999h-328v-415c0 -124 57 -186 171 -186c110 0 165 55.333 165 166h65c0 -70.667 -20 -126 -60 -166s-98.5 -60 -175.5 -60s-134.667 22.667 -173 68s-57.5 107.333 -57.5 186v407h-153v60h735v-60h-124v-126
c0 -79.333 -15.333 -134.666 -46 -165.999s-82.334 -47.333 -155.001 -48v61c54.667 2 91 12.333 109 31s27 59.667 27 123z" />
    <glyph glyph-name="uni0910" unicode="&#x910;" horiz-adv-x="655" 
d="M506 555l0.00195312 124.998h-328v-415c0 -124 57 -186 171 -186c110 0 165 55.333 165 166h65c0 -70.667 -20 -126 -60 -166s-98.5 -60 -175.5 -60s-134.667 22.667 -173 68s-57.5 107.333 -57.5 186v407h-153v60h531l-48.5 70c-11 15.333 -23.833 30.833 -38.5 46.5
s-26.334 26.334 -35.001 32.001s-21.167 11 -37.5 16s-32 7.83301 -47 8.5s-35.833 1 -62.5 1h-32v60h27c86 0 145 -10.667 177 -32c36.667 -24.667 71.667 -60 105 -106c18.667 -26 40 -58 64 -96h132v-60h-124v-126c0 -79.333 -15.333 -134.666 -46 -165.999
s-82.334 -47.333 -155.001 -48v61c54.667 2 91 12.333 109 31s27 59.667 27 123z" />
    <glyph glyph-name="uni0911" unicode="&#x911;" horiz-adv-x="1087" 
d="M1127 740l0.000976562 -60h-140v-680h-65v680h-200v-680h-65v344h-175c16 -26 24 -56 24 -90c0 -61.333 -19.167 -110.333 -57.5 -147s-88.5 -55 -150.5 -55s-112.833 18.333 -152.5 55s-59.5 85.334 -59.5 146.001h60c0 -44 14.167 -79.333 42.5 -106s65 -40 110 -40
s80.833 13.333 107.5 40s40 62 40 106s-13.333 77 -40 99s-63.334 33 -110.001 33h-40v60h33c41.333 0 75.833 10.667 103.5 32s41.5 51.5 41.5 90.5s-12.833 70 -38.5 93s-59.167 34.5 -100.5 34.5s-75.166 -11.667 -101.499 -35s-39.5 -54.333 -39.5 -93h-60
c0 55.333 18.833 99.666 56.5 132.999s85.5 50 143.5 50s105.833 -16.667 143.5 -50s56.5 -77.666 56.5 -132.999c0 -74.667 -36.333 -123.334 -109 -146.001v-6c15.333 -4 28.666 -9.33301 39.999 -16h232v341h470zM948.001 987h60
c0 -49.333 -13.167 -89.666 -39.5 -120.999s-69.833 -47 -130.5 -47s-104.167 15.667 -130.5 47s-39.5 71.666 -39.5 120.999h60c0 -32.667 8.5 -59.667 25.5 -81s45.167 -32 84.5 -32s67.5 10.667 84.5 32s25.5 48.333 25.5 81z" />
    <glyph glyph-name="uni0913" unicode="&#x913;" horiz-adv-x="1087" 
d="M1127 740l0.00195312 -60.001h-140v-680h-65v680h-200v-680h-65v344h-175c16 -26 24 -56 24 -90c0 -61.333 -19.167 -110.333 -57.5 -147s-88.5 -55 -150.5 -55s-112.833 18.333 -152.5 55s-59.5 85.334 -59.5 146.001h60c0 -44 14.167 -79.333 42.5 -106s65 -40 110 -40
s80.833 13.333 107.5 40s40 62 40 106s-13.333 77 -40 99s-63.334 33 -110.001 33h-40v60h33c41.333 0 75.833 10.667 103.5 32s41.5 51.5 41.5 90.5s-12.833 70 -38.5 93s-59.167 34.5 -100.5 34.5s-75.166 -11.667 -101.499 -35s-39.5 -54.333 -39.5 -93h-60
c0 55.333 18.833 99.666 56.5 132.999s85.5 50 143.5 50s105.833 -16.667 143.5 -50s56.5 -77.666 56.5 -132.999c0 -74.667 -36.333 -123.334 -109 -146.001v-6c15.333 -4 28.666 -9.33301 39.999 -16h232v341h260l-48.5 70c-11 15.333 -23.833 30.833 -38.5 46.5
s-26.334 26.334 -35.001 32.001s-21.167 11 -37.5 16s-32 7.83301 -47 8.5s-35.833 1 -62.5 1h-32v60h27c86 0 145 -10.667 177 -32c36.667 -24.667 71.667 -60 105 -106c18.667 -26 40 -58 64 -96h138z" />
    <glyph glyph-name="uni0914" unicode="&#x914;" horiz-adv-x="1148" 
d="M1188 740l-0.00195312 -60.002h-140v-680h-65v680h-200v-680h-65v344h-175c16 -26 24 -56 24 -90c0 -61.333 -19.167 -110.333 -57.5 -147s-88.5 -55 -150.5 -55s-112.833 18.333 -152.5 55s-59.5 85.334 -59.5 146.001h60c0 -44 14.167 -79.333 42.5 -106
s65 -40 110 -40s80.833 13.333 107.5 40s40 62 40 106s-13.333 77 -40 99s-63.334 33 -110.001 33h-40v60h33c41.333 0 75.833 10.667 103.5 32s41.5 51.5 41.5 90.5s-12.833 70 -38.5 93s-59.167 34.5 -100.5 34.5s-75.166 -11.667 -101.499 -35s-39.5 -54.333 -39.5 -93
h-60c0 55.333 18.833 99.666 56.5 132.999s85.5 50 143.5 50s105.833 -16.667 143.5 -50s56.5 -77.666 56.5 -132.999c0 -74.667 -36.333 -123.334 -109 -146.001v-6c15.333 -4 28.666 -9.33301 39.999 -16h232v341h255c-29.333 33.333 -59.833 53.833 -91.5 61.5
s-80.167 11.5 -145.5 11.5h-32v60h27c45.333 0 78.333 -1 99 -3s44.334 -9.5 71.001 -22.5s52.334 -33.5 77.001 -61.5c-38 58.667 -73.167 97.334 -105.5 116.001s-80.166 28 -143.499 28h-32v60h27c41.333 0 74 -2.16699 98 -6.5s49 -15.166 75 -32.499
s50.5 -42.333 73.5 -75s49.5 -78 79.5 -136h138z" />
    <glyph glyph-name="uni0915" unicode="&#x915;" horiz-adv-x="1018" 
d="M1058 680l-505.999 0.00195312v-198c33.333 59.333 89 89 167 89c68 0 122.167 -21.5 162.5 -64.5s60.5 -100.333 60.5 -172s-25.667 -128.167 -77 -169.5s-117.666 -58.333 -198.999 -51v60c62.667 -5.33301 113.5 6.16699 152.5 34.5s58.5 70.666 58.5 126.999
s-14.5 99.666 -43.5 129.999s-70 45.5 -123 45.5s-92.667 -16.833 -119 -50.5s-39.5 -80.834 -39.5 -141.501v-319h-65v195c-36 -57.333 -94 -86 -174 -86c-66.667 0 -120.834 21.167 -162.501 63.5s-62.5 97.833 -62.5 166.5s20.667 124.334 62 167.001
s95.666 64 162.999 64c80 0 138 -28.667 174 -86v196h-527v60h1098v-60zM197.501 213.502c29.667 -29.667 71.168 -44.499 124.501 -44.499s94.166 15.167 122.499 45.5s42.5 72.166 42.5 125.499s-14.5 95 -43.5 125s-70.167 45 -123.5 45s-94.5 -15 -123.5 -45
s-43.5 -72 -43.5 -126s14.833 -95.833 44.5 -125.5z" />
    <glyph glyph-name="uni0916" unicode="&#x916;" horiz-adv-x="905" 
d="M-40 740l984.997 -0.000976562v-60h-140v-680h-65v212c-32.667 -44.667 -84 -67 -154 -67c-12.667 0 -25 1 -37 3c-13.333 -48 -40.5 -84.833 -81.5 -110.5s-90.167 -38.5 -147.5 -38.5c-72 0 -129.167 20.333 -171.5 61s-63.5 96.667 -63.5 168v179h37
c36.667 0 63.334 1.16699 80.001 3.5s31.334 9.83301 44.001 22.5s20.334 29.834 23.001 51.501s4 54.167 4 97.5v98h-313v60zM149.997 352.999l0.00292969 -122.999c0 -58 14 -101 42 -129s67.667 -42 119 -42s91.666 9.5 120.999 28.5s47.666 45.833 54.999 80.5
c-32.667 16.667 -58 40.667 -76 72s-27 67.666 -27 108.999c0 60 18.833 109 56.5 147s86.167 57 145.5 57c71.333 0 122.666 -20.667 153.999 -62v189h-403v-99c0 -90 -12.833 -150.5 -38.5 -181.5s-75.167 -46.5 -148.5 -46.5zM596 205c44 0 79 13 105 39s39 61 39 105
s-13 79 -39 105s-61 39 -105 39s-79.5 -13 -106.5 -39s-40.5 -61 -40.5 -105s13.5 -79 40.5 -105s62.5 -39 106.5 -39z" />
    <glyph glyph-name="uni0917" unicode="&#x917;" horiz-adv-x="687" 
d="M-40 740h766.996v-60h-140v-680h-65v680h-221v-255c0 -63.333 -10.5 -110.5 -31.5 -141.5s-56.5 -46.5 -106.5 -46.5s-86.667 16.5 -110 49.5s-33.666 79.167 -30.999 138.5h64c0 -40.667 3.16699 -69.167 9.5 -85.5s14.833 -27.5 25.5 -33.5s24.334 -9 41.001 -9
s30.334 3 41.001 9s18.334 15.667 23.001 29c7.33301 20.667 11 50.667 11 90v255h-277v60z" />
    <glyph glyph-name="uni0918" unicode="&#x918;" horiz-adv-x="694" 
d="M734 740v-59.998h-140v-680h-65v214c-20.667 -33.333 -50.5 -59 -89.5 -77s-87 -27 -144 -27s-107.5 15.833 -151.5 47.5s-66 76.5 -66 134.5c0 36.667 9.5 68 28.5 94s44.167 45.667 75.5 59v6c-34.667 15.333 -57.667 37.666 -69 66.999s-17 70.666 -17 123.999v38
h-136v60h774zM529 355.002v325h-367v-38c0 -63.333 9.5 -107 28.5 -131s57.5 -36 115.5 -36h33v-59h-33c-48 0 -87.167 -10.333 -117.5 -31s-45.5 -52 -45.5 -94s16.333 -72.667 49 -92s76.5 -29 131.5 -29s103 16.833 144 50.5s61.5 78.5 61.5 134.5z" />
    <glyph glyph-name="uni0919" unicode="&#x919;" horiz-adv-x="645" 
d="M-40 740h725.003v-60h-216v-179h-164c-44.667 0 -79.667 -6.33301 -105 -19s-38 -37.167 -38 -73.5s11.833 -60.833 35.5 -73.5s55 -19 94 -19s70.167 -1.83301 93.5 -5.5s47 -10.5 71 -20.5c48.667 -22 73 -66.667 73 -134c0 -48 -18.667 -87.667 -56 -119
s-89.833 -47 -157.5 -47s-123.334 18.5 -167.001 55.5s-65.834 89.167 -66.501 156.5h64c6.66699 -101.333 65 -152 175 -152c44.667 0 79.667 9.16699 105 27.5s38 46.5 38 84.5c0 42.667 -16 70 -48 82c-24.667 9.33301 -58.334 14 -101.001 14
c-69.333 0 -123 11.167 -161 33.5s-57 61.833 -57 118.5c0 100.667 69 151 207 151h100v119h-444v60zM566.003 433c13.333 0 24.833 -4.83301 34.5 -14.5s14.5 -21.167 14.5 -34.5s-4.83301 -24.833 -14.5 -34.5s-21.167 -14.5 -34.5 -14.5s-24.833 4.83301 -34.5 14.5
s-14.5 21.167 -14.5 34.5s4.83301 24.833 14.5 34.5s21.167 14.5 34.5 14.5z" />
    <glyph glyph-name="uni091A" unicode="&#x91a;" horiz-adv-x="720" 
d="M-40 740l800.001 0.000976562v-60h-140v-680h-65v199c-36.667 -63.333 -98.334 -95 -185.001 -95c-64 0 -117.833 19.5 -161.5 58.5s-65.5 88.833 -65.5 149.5c0 74.667 28.667 128.667 86 162h-180v57h362v-57h-26c-54.667 0 -97.834 -14 -129.501 -42
s-47.5 -66.333 -47.5 -115s15.833 -86.334 47.5 -113.001s72.834 -40 123.501 -40s92.667 17.667 126 53s50 78 50 128v335h-595v60z" />
    <glyph glyph-name="uni091B" unicode="&#x91b;" horiz-adv-x="817" 
d="M857 680l-224.999 -0.000976562v-111c42 -10.667 74.833 -35.5 98.5 -74.5s35.5 -88.167 35.5 -147.5c0 -97.333 -32.333 -174.166 -97 -230.499s-151.334 -84.5 -260.001 -84.5c-60 0 -113.667 6.66699 -161 20s-87 37 -119 71s-48 73.667 -48 119
c0 87.333 39.667 145.333 119 174v6c-38.667 12 -64.5 34.333 -77.5 67s-19.5 81 -19.5 145v46h-143v60h897v-60zM567.001 679.999l-398.998 -0.000976562v-52c0 -69.333 9.83301 -117 29.5 -143s60.5 -39 122.5 -39h12v-60h-12c-54 0 -96.667 -11.5 -128 -34.5
s-47 -57.167 -47 -102.5c0 -29.333 7.5 -54.666 22.5 -75.999s35.5 -37.666 61.5 -48.999c48.667 -21.333 108.667 -32 180 -32c90 0 162 21.667 216 65s81 109 81 197c0 56 -10.667 96.667 -32 122s-50 38 -86 38c-18.667 0 -34.334 -2.33301 -47.001 -7
s-25 -13.667 -37 -27c-24.667 -28.667 -36.334 -85.334 -35.001 -170.001h-60c-2 163.333 50.667 251 158 263v107z" />
    <glyph glyph-name="uni091C" unicode="&#x91c;" horiz-adv-x="819" 
d="M-40 740l899 -0.00292969v-60h-140v-680h-65v460h-202v-84c0 -106.667 -16.667 -179 -50 -217c-30.667 -35.333 -77 -53 -139 -53c-90 0 -147 37.667 -171 113c-12 40 -18 92.333 -18 157v142h65v-120c0 -89.333 5 -145 15 -167
c15.333 -31.333 34.333 -50.666 57 -57.999c14.667 -4.66699 32 -7 52 -7s37.333 2.33301 52 7s26.5 12.834 35.5 24.501s16 22.834 21 33.501s8.5 27 10.5 49c3.33301 28 5 67.333 5 118v120h267v162h-694v60z" />
    <glyph glyph-name="uni091D" unicode="&#x91d;" horiz-adv-x="819" 
d="M859 740l0.00292969 -59.999h-140v-680h-65v290h-188c15.333 -7.33301 28.5 -20 39.5 -38s16.5 -38 16.5 -60c0 -44 -16 -81.333 -48 -112s-78 -46 -138 -46c-36.667 0 -69.834 7.5 -99.501 22.5s-51.834 34.167 -66.501 57.5v-144h-65v261h65
c2.66699 -42 18.167 -75.5 46.5 -100.5s65.5 -37.5 111.5 -37.5c86 0 129 35 129 105c0 31.333 -8.33301 54.333 -25 69c-16.667 14 -52.334 21 -107.001 21c-87.333 0 -145 12.667 -173 38c-27.333 23.333 -41 58 -41 104c0 59.333 21.667 98.666 65 117.999
c36.667 15.333 84 23 142 23h100v109h-458v60h899zM654.003 343.001v337h-171v-169h-164c-60.667 0 -99 -6.33301 -115 -19c-18.667 -14 -28 -36.5 -28 -67.5s10.333 -52.333 31 -64s50.667 -17.5 90 -17.5h357z" />
    <glyph glyph-name="uni091E" unicode="&#x91e;" horiz-adv-x="798" 
d="M-40 740h877.999v-60h-140v-680h-65v325h-121c-4.66699 -62 -25.834 -112.833 -63.501 -152.5s-90.167 -59.5 -157.5 -59.5s-119.333 16.167 -156 48.5s-59.667 71.166 -69 116.499h66c7.33301 -29.333 24 -54.166 50 -74.499s63.5 -30.5 112.5 -30.5
s86.833 15.667 113.5 47s40 75 40 131s-13.333 99.667 -40 131s-64.5 47 -113.5 47s-86.5 -10.167 -112.5 -30.5s-42.667 -45.166 -50 -74.499h-66c9.33301 45.333 32.333 84.166 69 116.499s88.334 48.5 155.001 48.5s118.834 -19.167 156.501 -57.5
s59.5 -87.833 65.5 -148.5h121v297h-673v60z" />
    <glyph glyph-name="uni091F" unicode="&#x91f;" horiz-adv-x="663" 
d="M444 506l-65 -0.000976562c-72.667 -0.666992 -130.167 -17.667 -172.5 -51s-63.5 -81.666 -63.5 -144.999s18.5 -112.833 55.5 -148.5s85.833 -53.5 146.5 -53.5s108.5 17.833 143.5 53.5s52.5 84.167 52.5 145.5h65c0 -78 -24 -140.667 -72 -188s-111 -71 -189 -71
s-142 23.667 -192 71s-75 111.166 -75 191.499s27.667 142.833 83 187.5s128 67.334 218 68.001v114h-419v60h743v-60h-259v-174z" />
    <glyph glyph-name="uni0920" unicode="&#x920;" horiz-adv-x="669" 
d="M345 506c-59.333 0 -107.333 -18.167 -144 -54.5s-55 -83.833 -55 -142.5s18.333 -106.167 55 -142.5s84.667 -54.5 144 -54.5s107.333 18.167 144 54.5s55 83.833 55 142.5s-18.333 106.167 -55 142.5s-84.667 54.5 -144 54.5zM544.5 483.5
c43 -46.333 64.4971 -106 64.4971 -179s-24.667 -133.167 -74 -180.5s-112.666 -71 -189.999 -71s-140.666 23.667 -189.999 71s-74 107.5 -74 180.5s21.333 132.5 64 178.5s98.334 72.667 167.001 80v117h-352v60h749v-60h-332v-117
c68.667 -6.66699 124.5 -33.167 167.5 -79.5z" />
    <glyph glyph-name="uni0921" unicode="&#x921;" horiz-adv-x="586" 
d="M469 501h-163.997c-44.667 0 -79.667 -6.33301 -105 -19s-38 -37.167 -38 -73.5s11.833 -60.833 35.5 -73.5s55 -19 94 -19s70.167 -1.83301 93.5 -5.5s47 -10.5 71 -20.5c48.667 -22 73 -66.667 73 -134c0 -48 -18.667 -87.667 -56 -119s-89.833 -47 -157.5 -47
s-123.334 18.5 -167.001 55.5s-65.834 89.167 -66.501 156.5h64c6.66699 -101.333 65 -152 175 -152c44.667 0 79.667 9.16699 105 27.5s38 46.5 38 84.5c0 42.667 -16 70 -48 82c-24.667 9.33301 -58.334 14 -101.001 14c-69.333 0 -123 11.167 -161 33.5
s-57 61.833 -57 118.5c0 100.667 69 151 207 151h100v119h-444v60h666v-60h-157v-179z" />
    <glyph glyph-name="uni0922" unicode="&#x922;" horiz-adv-x="633" 
d="M470 517l-65.001 0.00195312c-80.667 0.666992 -144.5 -18.333 -191.5 -57s-70.5 -94.167 -70.5 -166.5s21.5 -127.333 64.5 -165s97.833 -56.5 164.5 -56.5c49.333 0 87 11.833 113 35.5s39 53.167 39 88.5c0 76.667 -34.333 115 -103 115
c-66.667 0 -100 -39.333 -100 -118h-64c0 51.333 13.833 93.666 41.5 126.999s67.5 50 119.5 50s93.5 -15 124.5 -45s46.5 -72.333 46.5 -127s-19.833 -99.334 -59.5 -134.001s-92.5 -52 -158.5 -52c-85.333 0 -155.5 25 -210.5 75s-82.5 117 -82.5 201
c0 65.333 15.333 120.333 46 165c56.667 84 150.334 125.333 281.001 124v103h-445v60h713v-60h-203v-163z" />
    <glyph glyph-name="uni0923" unicode="&#x923;" horiz-adv-x="848" 
d="M-40 740h927.998v-60h-140v-680h-65v680h-191v-261c0 -78 -15.167 -137.833 -45.5 -179.5s-80.166 -62.5 -149.499 -62.5s-119.166 20.833 -149.499 62.5s-45.5 101.5 -45.5 179.5v261h-142v60zM426.998 418v262h-260v-262c0 -60.667 9 -106 27 -136s52.333 -45 103 -45
s85 15 103 45s27 75.333 27 136z" />
    <glyph glyph-name="uni0924" unicode="&#x924;" horiz-adv-x="666" 
d="M338 56v-58.0029h-8c-90.667 0 -157.667 22.833 -201 68.5s-65 108.834 -65 189.501s25.667 141.334 77 182.001s121 61 209 61h151v181h-541v60h746v-60h-140v-680h-65v439h-151c-67.333 0 -120.833 -15 -160.5 -45s-59.5 -77.667 -59.5 -143
s16.333 -114.166 49 -146.499s85.667 -48.5 159 -48.5z" />
    <glyph glyph-name="uni0925" unicode="&#x925;" horiz-adv-x="751" 
d="M791 680l-139.999 -0.000976562v-680h-65v204c-15.333 -28 -40.833 -52.5 -76.5 -73.5s-80.5 -31.5 -134.5 -31.5c-95.333 0 -167.333 32.667 -216 98s-66.667 148 -54 248c42.667 -1.33301 72.667 -2 90 -2c75.333 0 130.5 8.66699 165.5 26s52.5 52.333 52.5 105
c0 36 -10 64.333 -30 85s-48.833 31 -86.5 31s-66.334 -12.5 -86.001 -37.5s-28.834 -58.5 -27.501 -100.5h-65c-1.33301 58.667 14.334 106.334 47.001 143.001s76.5 55 131.5 55s99 -16.5 132 -49.5s49.5 -76.5 49.5 -130.5c0 -78.667 -32 -130 -96 -154
c-55.333 -20.667 -126 -29.667 -212 -27c-3.33301 -70 13 -125.833 49 -167.5s90.333 -62.5 163 -62.5c54.667 0 101.667 17.167 141 51.5s60.333 77.833 63 130.5v399h205v-60z" />
    <glyph glyph-name="uni0926" unicode="&#x926;" horiz-adv-x="592" 
d="M514 8l-65.001 -0.00195312v154c-12.667 -18 -32 -32.167 -58 -42.5s-54.667 -15.5 -86 -15.5c-72 0 -130.333 20.833 -175 62.5s-67 96.5 -67 164.5c0 82.667 26.833 143 80.5 181s127.5 57 221.5 57h44v111h-449v60h672v-60h-158v-171h-97c-76 0 -135 -11 -177 -33
c-47.333 -25.333 -71 -73.666 -71 -144.999c0 -55.333 16.167 -97 48.5 -125s73.333 -42 123 -42s87.834 10.833 114.501 32.5s40 56.834 40 105.501h59v-294z" />
    <glyph glyph-name="uni0927" unicode="&#x927;" horiz-adv-x="714" 
d="M754 740l-0.000976562 -60.002h-140v-680h-65v208c-20 -31.333 -49.5 -55.5 -88.5 -72.5s-85.833 -25.5 -140.5 -25.5s-103.834 15.667 -147.501 47s-65.5 74.666 -65.5 129.999c0 68.667 34.667 115.334 104 140.001v6c-31.333 12.667 -56.833 32.334 -76.5 59.001
s-29.5 58 -29.5 94c0 48 15.333 87.333 46 118s71.667 46 123 46s91.5 -16.833 120.5 -50.5s41.833 -77.5 38.5 -131.5h-62c2 81.333 -31 122 -99 122c-31.333 0 -56.166 -9.16699 -74.499 -27.5s-27.5 -43.166 -27.5 -74.499c0 -44 14.833 -76.833 44.5 -98.5
s69.834 -32.5 120.501 -32.5h48v-59h-48c-48 0 -87.167 -8.83301 -117.5 -26.5s-45.5 -46 -45.5 -85s16.5 -68.167 49.5 -87.5s75.5 -29 127.5 -29s98.333 16.5 139 49.5s61 76.5 61 130.5v390h205z" />
    <glyph glyph-name="uni0928" unicode="&#x928;" horiz-adv-x="775" 
d="M357 392c-23.333 24 -53.999 36 -91.999 36s-69.667 -11.5 -95 -34.5s-38 -55.333 -38 -97s13 -73.334 39 -95.001s57.167 -32.5 93.5 -32.5s66.666 11.333 90.999 34s36.5 53.834 36.5 93.501s-11.667 71.5 -35 95.5zM610.001 0v429h-225
c47.333 -25.333 71 -70.666 71 -135.999c0 -52.667 -17.167 -96.334 -51.5 -131.001s-80 -52 -137 -52s-104.667 17.167 -143 51.5s-57.5 80.5 -57.5 138.5s18.833 103.667 56.5 137s93.167 50 166.5 50h320v193h-650v60h855v-60h-140v-680h-65z" />
    <glyph glyph-name="uni092A" unicode="&#x92a;" horiz-adv-x="643" 
d="M-40 740h723v-60h-140v-680h-65v299c-34 -60 -92 -90 -174 -90c-68 0 -120.167 22.833 -156.5 68.5s-54.5 105.167 -54.5 178.5v224h-133v60zM158 680v-220c0 -127.333 53.333 -191 160 -191c46.667 0 85 16.667 115 50s45 75 45 125v236h-320z" />
    <glyph glyph-name="uni092B" unicode="&#x92b;" horiz-adv-x="995" 
d="M1035 680l-504.003 -0.00195312v-227c36.667 60 96.334 90 179.001 90c64.667 0 116.834 -20.5 156.501 -61.5s59.5 -95.167 59.5 -162.5s-24.167 -120.666 -72.5 -159.999s-111.166 -56.333 -188.499 -51v58c58 -5.33301 105.167 6.16699 141.5 34.5
s54.5 68.5 54.5 120.5s-13.833 92 -41.5 120s-67.667 42 -120 42s-93.5 -17.667 -123.5 -53s-45 -80.666 -45 -135.999v-294h-65v330c-34 -56 -86 -84 -156 -84s-122.333 22.333 -157 67s-52 103.667 -52 177v190h-141v60h1075v-60zM165.997 679.998l0.00195312 -189
c0 -61.333 11.667 -107.5 35 -138.5s60.166 -46.5 110.499 -46.5s88.666 17.667 114.999 53s39.5 78.333 39.5 129v192h-300z" />
    <glyph glyph-name="uni092C" unicode="&#x92c;" horiz-adv-x="673" 
d="M-40 740h753.001v-60h-140v-680h-65v194c-40.667 -66.667 -105.334 -100 -194.001 -100c-72 0 -132 22.833 -180 68.5s-72 104.5 -72 176.5s24 130.833 72 176.5s108 68.5 180 68.5c88 0 152.667 -33.667 194 -101v197h-548v60zM508.001 339
c0 54 -17.167 98.333 -51.5 133s-78 52 -131 52s-97.167 -13 -132.5 -39l294 -237c14 28 21 58.333 21 91zM127.001 339c0 -57.333 18.1689 -102.499 54.502 -135.499s82.166 -49.5 137.499 -49.5s100.666 17 135.999 51l-298 241c-20 -30.667 -30 -66.334 -30 -107.001z
" />
    <glyph glyph-name="uni092D" unicode="&#x92d;" horiz-adv-x="785" 
d="M825 740v-60h-140v-680h-65v390h-173v-64c0 -144 -57.333 -216 -172 -216c-50 0 -92.167 16 -126.5 48s-51.5 74.667 -51.5 128c0 108 77 162 231 162h55v93c0 46 -7.33301 81.5 -22 106.5s-40.5 37.5 -77.5 37.5s-62.667 -12.5 -77 -37.5s-21.5 -62.167 -21.5 -111.5
h-63c0 139.333 54.167 209 162.5 209s162.5 -68 162.5 -204v-93h173v292h205zM383 326v64h-62c-52 0 -91.5 -8 -118.5 -24s-40.5 -45.333 -40.5 -88c0 -32 10.5 -58.167 31.5 -78.5s50 -30.5 87 -30.5s63.333 12.833 79 38.5s23.5 65.167 23.5 118.5z" />
    <glyph glyph-name="uni092E" unicode="&#x92e;" horiz-adv-x="763" 
d="M803 740v-60h-140v-680h-65v393h-198v-64c0 -144 -57.333 -216 -172 -216c-50 0 -92.167 16 -126.5 48s-51.5 74.667 -51.5 128c0 108 77 162 231 162h55v229h-376v60h843zM336 329v64h-62c-52 0 -91.5 -8 -118.5 -24s-40.5 -45.333 -40.5 -88
c0 -32 10.5 -58.167 31.5 -78.5s50 -30.5 87 -30.5s63.333 12.833 79 38.5s23.5 65.167 23.5 118.5zM598 451v229h-198v-229h198z" />
    <glyph glyph-name="uni092F" unicode="&#x92f;" horiz-adv-x="718" 
d="M-40 740h797.998v-60h-140v-680h-65v235c-16.667 -36 -43.167 -65.167 -79.5 -87.5s-79.833 -33.5 -130.5 -33.5c-91.333 0 -160.666 30 -207.999 90s-68.666 142 -63.999 246c42 0 72 1.83301 90 5.5s31.833 6.66699 41.5 9s18.167 6.66602 25.5 12.999l18.5 16
c5 4.33301 9.16699 11.333 12.5 21s5.83301 17.834 7.5 24.501s3 17 4 31s1.5 25.333 1.5 34v76h-312v60zM336.998 680l-0.000976562 -36.001c0 -42.667 -2.16699 -77.167 -6.5 -103.5s-13.166 -51.166 -26.499 -74.499c-24.667 -43.333 -79.334 -67 -164.001 -71
c-1.33301 -66 16.5 -119.333 53.5 -160s87.833 -61 152.5 -61s115.334 21.833 152.001 65.5s55 100.167 55 169.5v271h-216z" />
    <glyph glyph-name="uni0930" unicode="&#x930;" horiz-adv-x="524" 
d="M441 680v-56.001c0 -61.333 -3.66699 -109.166 -11 -143.499s-22.5 -61.833 -45.5 -82.5s-51.667 -34 -86 -40s-82.5 -9 -144.5 -9v-136c0 -102.667 41.667 -154 125 -154c42.667 0 74.167 13.333 94.5 40s30.5 63.667 30.5 111h66
c0 -63.333 -16.833 -114.333 -50.5 -153s-80.834 -58 -141.501 -58s-107.5 19.667 -140.5 59s-49.5 91 -49.5 155v194c107.333 0 174 2.66699 200 8c36.667 8 60.334 26 71.001 54s16 81 16 159v52h-415v60h604v-60h-123z" />
    <glyph glyph-name="uni0931" unicode="&#x931;" horiz-adv-x="524" 
d="M441 680v-56.001c0 -61.333 -3.66699 -109.166 -11 -143.499s-22.5 -61.833 -45.5 -82.5s-51.667 -34 -86 -40s-82.5 -9 -144.5 -9v-136c0 -102.667 41.667 -154 125 -154c42.667 0 74.167 13.333 94.5 40s30.5 63.667 30.5 111h66
c0 -63.333 -16.833 -114.333 -50.5 -153s-80.834 -58 -141.501 -58s-107.5 19.667 -140.5 59s-49.5 91 -49.5 155v194c107.333 0 174 2.66699 200 8c36.667 8 60.334 26 71.001 54s16 81 16 159v52h-415v60h604v-60h-123zM65 8.99902c13.333 0 24.833 -4.83301 34.5 -14.5
s14.5 -21.167 14.5 -34.5s-4.83301 -24.833 -14.5 -34.5s-21.167 -14.5 -34.5 -14.5s-24.833 4.83301 -34.5 14.5s-14.5 21.167 -14.5 34.5s4.83301 24.833 14.5 34.5s21.167 14.5 34.5 14.5z" />
    <glyph glyph-name="uni0932" unicode="&#x932;" horiz-adv-x="906" 
d="M285 451c-88.667 0 -133.001 -59.668 -133.001 -179.001c0 -62 16.667 -110.5 50 -145.5s83 -50.167 149 -45.5v-60c-80 -8 -144 11.167 -192 57.5s-72 110.5 -72 192.5c0 160 66 240 198 240c43.333 0 80.333 -11 111 -33s51.334 -53 62.001 -93
c10 36.667 28.167 65.834 54.5 87.501s58.5 34.167 96.5 37.5v170h-649v60h986v-60h-272v-173c102.667 -18 154 -96.667 154 -236c0 -82 -24 -146.167 -72 -192.5s-112 -65.5 -192 -57.5v60c66 -4.66699 115.667 10.5 149 45.5s50 83.5 50 145.5
c0 119.333 -44.333 179 -133 179c-98 0 -144.667 -73.333 -140 -220h-64c4.66699 146.667 -42.333 220 -141 220z" />
    <glyph glyph-name="uni0933" unicode="&#x933;" horiz-adv-x="942" 
d="M982 680l-292.999 -0.000976562v-158c64 -3.33301 116.833 -26 158.5 -68s62.5 -95.833 62.5 -161.5s-21.833 -119.667 -65.5 -162s-99.5 -63.5 -167.5 -63.5c-43.333 0 -82.833 10.833 -118.5 32.5s-61.834 51.834 -78.501 90.501c-18.667 -40 -45 -70.5 -79 -91.5
s-73 -31.5 -117 -31.5c-68 0 -123.833 21.167 -167.5 63.5s-65.5 96.833 -65.5 163.5s22 121.334 66 164.001s99.667 64 167 64c44 0 83.167 -10.667 117.5 -32s60.5 -52 78.5 -92c26.667 63.333 74.667 102.666 144 117.999v164h-664v60h1022v-60zM162.501 173.999
c31 -30.667 71.333 -45.998 121 -45.998s89.334 15.333 119.001 46s44.5 70.667 44.5 120s-14.833 89.5 -44.5 120.5s-69.334 46.5 -119.001 46.5s-90 -15.333 -121 -46s-46.5 -70.834 -46.5 -120.501s15.5 -89.834 46.5 -120.501zM845.001 294.001
c0 50 -15.501 90.333 -46.501 121s-71.167 46 -120.5 46s-89 -15.5 -119 -46.5s-45 -71 -45 -120s15 -89 45 -120s69.833 -46.5 119.5 -46.5s89.834 15.167 120.501 45.5s46 70.5 46 120.5z" />
    <glyph glyph-name="uni0935" unicode="&#x935;" horiz-adv-x="649" 
d="M-40 740h729v-60h-140v-680h-65v198c-39.333 -63.333 -103 -95 -191 -95c-68.667 0 -124.834 22 -168.501 66s-65.5 100.667 -65.5 170s21.833 126 65.5 170s99.834 66 168.501 66c88 0 151.667 -31.667 191 -95v200h-524v60zM303 163c54.667 0 98.5 16 131.5 48
s49.5 74.667 49.5 128s-16.5 96 -49.5 128s-76.833 48 -131.5 48s-98.167 -15.833 -130.5 -47.5s-48.5 -74.5 -48.5 -128.5s16.167 -96.833 48.5 -128.5s75.833 -47.5 130.5 -47.5z" />
    <glyph glyph-name="uni0936" unicode="&#x936;" horiz-adv-x="801" 
d="M841 680h-140v-680h-65v740h205v-60zM185 197c0 -45.333 11.5 -79.666 34.5 -102.999s56.167 -35 99.5 -35s74.833 13.667 94.5 41s30.167 67.333 31.5 120h66c-4 -147.333 -69.333 -221 -196 -221c-60 0 -107.667 17.167 -143 51.5s-53 83.166 -53 146.499v203
c52 -1.33301 91 -2 117 -2s49 0.833008 69 2.5s40.333 5.66699 61 12s37.334 14.833 50.001 25.5c28.667 24 43 59.833 43 107.5s-12 83.667 -36 108s-59 36.5 -105 36.5s-80.667 -16.167 -104 -48.5s-34.333 -74.5 -33 -126.5h-64c-3.33301 66.667 13.167 122.5 49.5 167.5
s86.666 67.5 150.999 67.5s114.833 -18.667 151.5 -56s55 -84.333 55 -141c0 -84 -27.333 -141.667 -82 -173c-47.333 -26.667 -111.333 -40 -192 -40c-14 0 -35.667 0.666992 -65 2v-145z" />
    <glyph glyph-name="uni0937" unicode="&#x937;" horiz-adv-x="643" 
d="M-40 740h723v-60h-140v-680h-65v299c-34 -60 -92 -90 -174 -90c-68 0 -120.167 22.833 -156.5 68.5s-54.5 105.167 -54.5 178.5v224h-133v60zM478 680l-320 0.000976562v-6l318 -262c1.33301 13.333 2 23.666 2 30.999v237zM158 460.001
c0 -127.333 53.333 -190.999 160 -190.999c31.333 0 59.333 8.16699 84 24.5s43.667 38.166 57 65.499l-301 249v-148z" />
    <glyph glyph-name="uni0938" unicode="&#x938;" horiz-adv-x="792" 
d="M88 425l39.998 -1.00098c70 0 119.333 6.66699 148 20c17.333 8 31 17.167 41 27.5s18 25.166 24 44.499c9.33301 30.667 14 79.667 14 147v17h-395v60h872v-60h-140v-680h-65v369h-473v-156c0 -102.667 40 -154 120 -154c43.333 0 74.333 14.333 93 43
s27.667 71.334 27 128.001h66c2.66699 -71.333 -12.166 -127.666 -44.499 -168.999s-79.166 -62 -140.499 -62s-107.833 19.5 -139.5 58.5s-47.5 90.833 -47.5 155.5v212zM626.998 423.999v256h-208v-15c0 -68 -5.33301 -120.667 -16 -158s-29 -65 -55 -83h279z" />
    <glyph glyph-name="uni0939" unicode="&#x939;" horiz-adv-x="608" 
d="M483 500l-176.001 -0.00195312c-39.333 0 -71.166 -7.5 -95.499 -22.5s-36.5 -37.5 -36.5 -67.5c0 -41.333 25.333 -70.666 76 -87.999c23.333 5.33301 46.333 8 69 8c60 0 110 -15.333 150 -46s62.333 -67.667 67 -111h-65c-17.333 64.667 -68 97 -152 97
c-48.667 0 -87.5 -14 -116.5 -42s-43.5 -64.167 -43.5 -108.5s14.5 -80.666 43.5 -108.999s67.833 -42.5 116.5 -42.5c84 0 134.667 32.333 152 97h65c-4.66699 -43.333 -27 -80.333 -67 -111s-91.667 -46 -155 -46s-115.833 19.5 -157.5 58.5s-62.5 89.833 -62.5 152.5
c0 76 29.333 133.667 88 173c-49.333 26 -74 64.5 -74 115.5s17.667 89.167 53 114.5s83.333 38 144 38h112v120h-458v60h688v-60h-165v-180z" />
    <glyph glyph-name="uni093C" unicode="&#x93c;" horiz-adv-x="0" 
d="M-377 -122c-13.333 0 -24.833 4.83301 -34.5 14.5s-14.5 21.167 -14.5 34.5s4.83301 24.833 14.5 34.5s21.167 14.5 34.5 14.5s24.833 -4.83301 34.5 -14.5s14.5 -21.167 14.5 -34.5s-4.83301 -24.833 -14.5 -34.5s-21.167 -14.5 -34.5 -14.5z" />
    <glyph glyph-name="uni093D" unicode="&#x93d;" horiz-adv-x="600" 
d="M370 359c24.667 -33.333 47.3311 -69.501 67.998 -108.501s31 -73.167 31 -102.5s-11.5 -50.5 -34.5 -63.5s-65.833 -19.5 -128.5 -19.5h-253v60h252c35.333 0 60.333 2.66699 75 8s22 17 22 35s-10.167 44.167 -30.5 78.5s-42.666 68.166 -66.999 101.499
s-46.666 69.833 -66.999 109.5s-30.5 72.5 -30.5 98.5c0 77.333 53.667 116 161 116h179v-60h-145c-42.667 0 -75.167 -5.16699 -97.5 -15.5s-33.5 -30.166 -33.5 -59.499s33 -88.666 99 -177.999z" />
    <glyph glyph-name="uni093E" unicode="&#x93e;" 
d="M305 680h-140v-680h-65v680h-140v60h345v-60z" />
    <glyph glyph-name="uni093F" unicode="&#x93f;" 
d="M102 740l-0.00195312 20c0 39.333 7.83301 73.333 23.5 102s35 51 58 67s52.333 28.5 88 37.5s69 14.833 100 17.5s66.5 4 106.5 4s75.5 -1.33301 106.5 -4s64.333 -8.5 100 -17.5s65 -21.5 88 -37.5s42.333 -38.333 58 -67s23.5 -62.667 23.5 -102v-57h-65v47
c0 57.333 -16.333 98.333 -49 123c-16.667 12.667 -33.5 22.834 -50.5 30.501s-39.167 13.167 -66.5 16.5s-50.666 5.5 -69.999 6.5s-44.333 1.5 -75 1.5s-55.667 -0.5 -75 -1.5s-42.666 -3.16699 -69.999 -6.5s-49.5 -8.83301 -66.5 -16.5s-33.833 -17.834 -50.5 -30.501
c-32.667 -24.667 -49 -65.667 -49 -123v-10h138v-60h-140v-680h-65v680h-140v60h142z" />
    <glyph glyph-name="uni0940" unicode="&#x940;" 
d="M169 740h135.998v-60h-140v-680h-65v680h-140v60h147v30c0 54.667 -7.83301 94.667 -23.5 120s-44.167 38 -85.5 38s-69.833 -12.667 -85.5 -38s-23.5 -65.333 -23.5 -120v-67h-62v77c0 65.333 12.833 116.333 38.5 153s69.834 55 132.501 55
s106.834 -18.333 132.501 -55s38.5 -87.667 38.5 -153v-40z" />
    <glyph glyph-name="uni0941" unicode="&#x941;" horiz-adv-x="0" 
d="M-159 52c58.667 0 102.667 -13.832 132 -41.499s44 -66 44 -115s-16.167 -87.833 -48.5 -116.5s-78.833 -43 -139.5 -43c-76.667 0 -133.834 19.167 -171.501 57.5s-56.5 87.166 -56.5 146.499h65c0 -50 14.833 -86.667 44.5 -110s68.834 -35 117.501 -35
c82.667 0 124 34 124 102c0 62 -37 94.667 -111 98v57z" />
    <glyph glyph-name="uni0942" unicode="&#x942;" horiz-adv-x="0" 
d="M-233 -233.5c-35.333 27 -53 67.833 -53 122.5s18.167 95.667 54.5 123s79.833 41 130.5 41c78 0 137.5 -27 178.5 -81s61.5 -128.333 61.5 -223h-63c0 78 -14.5 138.5 -43.5 181.5s-73.167 64.5 -132.5 64.5c-36 0 -65 -9.33301 -87 -28s-33 -45.167 -33 -79.5
s11.333 -60 34 -77s53 -22.167 91 -15.5v-59c-56.667 -6.66699 -102.667 3.5 -138 30.5z" />
    <glyph glyph-name="uni0943" unicode="&#x943;" horiz-adv-x="0" 
d="M-100 56l-0.000976562 -56h-17c-76.667 0 -115 -36 -115 -108c0 -31.333 8.66699 -57 26 -77s42.333 -30 75 -30s59.334 4.66699 80.001 14v-56c-20 -9.33301 -44.333 -14 -73 -14c-54.667 0 -96.5 15.667 -125.5 47s-43.5 71.333 -43.5 120s15.333 87.5 46 116.5
s74 43.5 130 43.5h17z" />
    <glyph glyph-name="uni0944" unicode="&#x944;" horiz-adv-x="0" 
d="M-107 -440h-37c-51.333 0 -92.333 11.333 -123 34s-46 57.5 -46 104.5s22.333 82.167 67 105.5c-46 24 -69 60.833 -69 110.5s17 85.667 51 108s76 33.5 126 33.5h31v-56h-29c-78.667 0 -118 -27.333 -118 -82c0 -31.333 11 -52.833 33 -64.5s52.667 -17.5 92 -17.5h22
v-56h-33c-74.667 -1.33301 -112 -29.333 -112 -84c0 -53.333 37.667 -80 113 -80h32v-56z" />
    <glyph glyph-name="uni0945" unicode="&#x945;" horiz-adv-x="0" 
d="M48 987c0 -48.667 -14.6689 -88.834 -44.002 -120.501s-74.666 -47.5 -135.999 -47.5s-106.666 15.833 -135.999 47.5s-44 71.834 -44 120.501h60c0 -31.333 10 -58 30 -80s50 -33 90 -33s70 11 90 33s30 48.667 30 80h60z" />
    <glyph glyph-name="uni0947" unicode="&#x947;" horiz-adv-x="0" 
d="M-447 914l-31.999 -0.00195312v60h27c78.667 0 130.667 -7 156 -21c36.667 -19.333 64.334 -40.333 83.001 -63c35.333 -43.333 72.666 -96 111.999 -158h-72l-50.5 73.5c-11 15.667 -24.167 31.834 -39.5 48.501s-27.333 27.834 -36 33.501s-21.334 11.167 -38.001 16.5
s-32.5 8.33301 -47.5 9s-35.833 1 -62.5 1z" />
    <glyph glyph-name="uni0948" unicode="&#x948;" horiz-adv-x="0" 
d="M-461 990l27 -0.000976562c42 0 75.167 -2.33301 99.5 -7s49.666 -16 75.999 -34s51.166 -44.167 74.499 -78.5s50.666 -81.833 81.999 -142.5h-73c-31.333 38.667 -63.333 62.5 -96 71.5s-83 13.5 -151 13.5h-32v60h27c45.333 0 78.333 -1 99 -3
s44.334 -9.5 71.001 -22.5s52.334 -33.5 77.001 -61.5c-38 58.667 -73.167 97.334 -105.5 116.001s-80.166 28 -143.499 28h-32v60z" />
    <glyph glyph-name="uni0949" unicode="&#x949;" horiz-adv-x="257" 
d="M310 987c0 -48.667 -14.6689 -88.834 -44.002 -120.501s-74.666 -47.5 -135.999 -47.5s-106.666 15.833 -135.999 47.5s-44 71.834 -44 120.501h60c0 -31.333 10 -58 30 -80s50 -33 90 -33s70 11 90 33s30 48.667 30 80h60zM304.998 680h-140v-680h-65v680h-140v60h345
v-60z" />
    <glyph glyph-name="uni094B" unicode="&#x94b;" 
d="M305 740l0.000976562 -60.001h-140v-680h-65v680h-140v60h126l-48.5 70c-11 15.333 -23.833 30.833 -38.5 46.5s-26.334 26.334 -35.001 32.001s-21.167 11 -37.5 16s-32 7.83301 -47 8.5s-35.833 1 -62.5 1h-32v60h27c86 0 145 -10.667 177 -32
c36.667 -24.667 71.667 -60 105 -106c18.667 -26 40 -58 64 -96h147z" />
    <glyph glyph-name="uni094C" unicode="&#x94c;" horiz-adv-x="257" 
d="M305 740l-0.00292969 -60.002h-140v-680h-65v680h-140v60h120c-29.333 33.333 -59.833 53.833 -91.5 61.5s-80.167 11.5 -145.5 11.5h-32v60h27c45.333 0 78.333 -1 99 -3s44.334 -9.5 71.001 -22.5s52.334 -33.5 77.001 -61.5c-38 58.667 -73.167 97.334 -105.5 116.001
s-80.166 28 -143.499 28h-32v60h27c41.333 0 74 -2.16699 98 -6.5s49 -15.166 75 -32.499s50.5 -42.333 73.5 -75s49.5 -78 79.5 -136h148z" />
    <glyph glyph-name="uni094D" unicode="&#x94d;" horiz-adv-x="0" 
d="M12 -214h-76l-99 152h65z" />
    <glyph glyph-name="uni0950" unicode="&#x950;" horiz-adv-x="0" 
d="M484 375c42.667 0 72.5029 5.16602 89.5029 15.499s25.5 31.5 25.5 63.5c0 76.667 14 135.167 42 175.5s75.167 60.5 141.5 60.5s113.666 -20.667 141.999 -62s42.5 -103 42.5 -185v-111c0 -118.667 -28.167 -201.667 -84.5 -249s-154.5 -60.666 -294.5 -39.999v57
c114.667 -15.333 196.5 -6.5 245.5 26.5s73.5 103.833 73.5 212.5v112c0 67.333 -8.66699 114.833 -26 142.5s-49.5 41.5 -96.5 41.5s-79.667 -14.333 -98 -43s-27.5 -75.667 -27.5 -141c0 -56 -18.333 -92.333 -55 -109c-30.667 -14.667 -70.667 -22 -120 -22h-4
c17.333 -30.667 26 -64 26 -100c0 -64 -18.333 -114.667 -55 -152s-86.834 -56 -150.501 -56s-115.334 19.5 -155.001 58.5s-59.5 89.833 -59.5 152.5h60c0 -46 14.167 -83.5 42.5 -112.5s65.666 -43.5 111.999 -43.5s82.166 13.5 107.499 40.5s38 63.667 38 110
s-13.667 82.5 -41 108.5s-63.666 39 -108.999 39h-40v60h33c40.667 0 75 12.167 103 36.5s42 57 42 98s-12.333 73.833 -37 98.5s-58.667 37 -102 37s-77.666 -12.5 -102.999 -37.5s-38 -58.5 -38 -100.5h-60c0 58.667 18.5 105.5 55.5 140.5s85.167 52.5 144.5 52.5
s107.5 -17.5 144.5 -52.5s55.5 -81.833 55.5 -140.5c0 -36.667 -9.33301 -69 -28 -97s-45.667 -47.667 -81 -59v-6c16 -4 30.667 -10.667 44 -20h55zM689.003 916.999h59.998c0 -48.667 -14.667 -88.834 -44 -120.501s-74.666 -47.5 -135.999 -47.5
s-106.666 15.833 -135.999 47.5s-44 71.834 -44 120.501h60c0 -31.333 10 -58 30 -80s50 -33 90 -33s70 11 90 33s30 48.667 30 80zM569.001 897.999c-13.333 0 -24.833 4.83301 -34.5 14.5s-14.5 21.167 -14.5 34.5s4.83301 24.833 14.5 34.5s21.167 14.5 34.5 14.5
s24.833 -4.83301 34.5 -14.5s14.5 -21.167 14.5 -34.5s-4.83301 -24.833 -14.5 -34.5s-21.167 -14.5 -34.5 -14.5z" />
    <glyph glyph-name="uni0958" unicode="&#x958;" horiz-adv-x="1018" 
d="M1058 680l-505.999 0.00195312v-198c33.333 59.333 89 89 167 89c68 0 122.167 -21.5 162.5 -64.5s60.5 -100.333 60.5 -172s-25.667 -128.167 -77 -169.5s-117.666 -58.333 -198.999 -51v60c62.667 -5.33301 113.5 6.16699 152.5 34.5s58.5 70.666 58.5 126.999
s-14.5 99.666 -43.5 129.999s-70 45.5 -123 45.5s-92.667 -16.833 -119 -50.5s-39.5 -80.834 -39.5 -141.501v-319h-65v195c-36 -57.333 -94 -86 -174 -86c-66.667 0 -120.834 21.167 -162.501 63.5s-62.5 97.833 -62.5 166.5s20.667 124.334 62 167.001
s95.666 64 162.999 64c80 0 138 -28.667 174 -86v196h-527v60h1098v-60zM197.501 213.502c29.667 -29.667 71.168 -44.499 124.501 -44.499s94.166 15.167 122.499 45.5s42.5 72.166 42.5 125.499s-14.5 95 -43.5 125s-70.167 45 -123.5 45s-94.5 -15 -123.5 -45
s-43.5 -72 -43.5 -126s14.833 -95.833 44.5 -125.5zM354.002 38.0029c13.333 0 24.833 -4.83301 34.5 -14.5s14.5 -21.167 14.5 -34.5s-4.83301 -24.833 -14.5 -34.5s-21.167 -14.5 -34.5 -14.5s-24.833 4.83301 -34.5 14.5s-14.5 21.167 -14.5 34.5
s4.83301 24.833 14.5 34.5s21.167 14.5 34.5 14.5z" />
    <glyph glyph-name="uni0959" unicode="&#x959;" horiz-adv-x="905" 
d="M-40 740l984.997 -0.000976562v-60h-140v-680h-65v212c-32.667 -44.667 -84 -67 -154 -67c-12.667 0 -25 1 -37 3c-13.333 -48 -40.5 -84.833 -81.5 -110.5s-90.167 -38.5 -147.5 -38.5c-72 0 -129.167 20.333 -171.5 61s-63.5 96.667 -63.5 168v179h37
c36.667 0 63.334 1.16699 80.001 3.5s31.334 9.83301 44.001 22.5s20.334 29.834 23.001 51.501s4 54.167 4 97.5v98h-313v60zM149.997 352.999l0.00292969 -122.999c0 -58 14 -101 42 -129s67.667 -42 119 -42s91.666 9.5 120.999 28.5s47.666 45.833 54.999 80.5
c-32.667 16.667 -58 40.667 -76 72s-27 67.666 -27 108.999c0 60 18.833 109 56.5 147s86.167 57 145.5 57c71.333 0 122.666 -20.667 153.999 -62v189h-403v-99c0 -90 -12.833 -150.5 -38.5 -181.5s-75.167 -46.5 -148.5 -46.5zM596 205c44 0 79 13 105 39s39 61 39 105
s-13 79 -39 105s-61 39 -105 39s-79.5 -13 -106.5 -39s-40.5 -61 -40.5 -105s13.5 -79 40.5 -105s62.5 -39 106.5 -39zM312 -66c13.333 0 24.833 -4.83301 34.5 -14.5s14.5 -21.167 14.5 -34.5s-4.83301 -24.833 -14.5 -34.5s-21.167 -14.5 -34.5 -14.5
s-24.833 4.83301 -34.5 14.5s-14.5 21.167 -14.5 34.5s4.83301 24.833 14.5 34.5s21.167 14.5 34.5 14.5z" />
    <glyph glyph-name="uni095A" unicode="&#x95a;" horiz-adv-x="687" 
d="M-40 740h766.996v-60h-140v-680h-65v680h-221v-255c0 -63.333 -10.5 -110.5 -31.5 -141.5s-56.5 -46.5 -106.5 -46.5s-86.667 16.5 -110 49.5s-33.666 79.167 -30.999 138.5h64c0 -40.667 3.16699 -69.167 9.5 -85.5s14.833 -27.5 25.5 -33.5s24.334 -9 41.001 -9
s30.334 3 41.001 9s18.334 15.667 23.001 29c7.33301 20.667 11 50.667 11 90v255h-277v60zM164.996 124c13.333 0 24.833 -4.83301 34.5 -14.5s14.5 -21.167 14.5 -34.5s-4.83301 -24.833 -14.5 -34.5s-21.167 -14.5 -34.5 -14.5s-24.833 4.83301 -34.5 14.5
s-14.5 21.167 -14.5 34.5s4.83301 24.833 14.5 34.5s21.167 14.5 34.5 14.5z" />
    <glyph glyph-name="uni095B" unicode="&#x95b;" horiz-adv-x="819" 
d="M-40 740l899 -0.00292969v-60h-140v-680h-65v460h-202v-84c0 -106.667 -16.667 -179 -50 -217c-30.667 -35.333 -77 -53 -139 -53c-90 0 -147 37.667 -171 113c-12 40 -18 92.333 -18 157v142h65v-120c0 -89.333 5 -145 15 -167
c15.333 -31.333 34.333 -50.666 57 -57.999c14.667 -4.66699 32 -7 52 -7s37.333 2.33301 52 7s26.5 12.834 35.5 24.501s16 22.834 21 33.501s8.5 27 10.5 49c3.33301 28 5 67.333 5 118v120h267v162h-694v60zM264 32.9971c13.333 0 24.833 -4.83301 34.5 -14.5
s14.5 -21.167 14.5 -34.5s-4.83301 -24.833 -14.5 -34.5s-21.167 -14.5 -34.5 -14.5s-24.833 4.83301 -34.5 14.5s-14.5 21.167 -14.5 34.5s4.83301 24.833 14.5 34.5s21.167 14.5 34.5 14.5z" />
    <glyph glyph-name="uni095C" unicode="&#x95c;" horiz-adv-x="586" 
d="M469 501h-163.997c-44.667 0 -79.667 -6.33301 -105 -19s-38 -37.167 -38 -73.5s11.833 -60.833 35.5 -73.5s55 -19 94 -19s70.167 -1.83301 93.5 -5.5s47 -10.5 71 -20.5c48.667 -22 73 -66.667 73 -134c0 -48 -18.667 -87.667 -56 -119s-89.833 -47 -157.5 -47
s-123.334 18.5 -167.001 55.5s-65.834 89.167 -66.501 156.5h64c6.66699 -101.333 65 -152 175 -152c44.667 0 79.667 9.16699 105 27.5s38 46.5 38 84.5c0 42.667 -16 70 -48 82c-24.667 9.33301 -58.334 14 -101.001 14c-69.333 0 -123 11.167 -161 33.5
s-57 61.833 -57 118.5c0 100.667 69 151 207 151h100v119h-444v60h666v-60h-157v-179zM330.003 -64c13.333 0 24.833 -4.83301 34.5 -14.5s14.5 -21.167 14.5 -34.5s-4.83301 -24.833 -14.5 -34.5s-21.167 -14.5 -34.5 -14.5s-24.833 4.83301 -34.5 14.5
s-14.5 21.167 -14.5 34.5s4.83301 24.833 14.5 34.5s21.167 14.5 34.5 14.5z" />
    <glyph glyph-name="uni095D" unicode="&#x95d;" horiz-adv-x="633" 
d="M470 517l-65.001 0.00195312c-80.667 0.666992 -144.5 -18.333 -191.5 -57s-70.5 -94.167 -70.5 -166.5s21.5 -127.333 64.5 -165s97.833 -56.5 164.5 -56.5c49.333 0 87 11.833 113 35.5s39 53.167 39 88.5c0 76.667 -34.333 115 -103 115
c-66.667 0 -100 -39.333 -100 -118h-64c0 51.333 13.833 93.666 41.5 126.999s67.5 50 119.5 50s93.5 -15 124.5 -45s46.5 -72.333 46.5 -127s-19.833 -99.334 -59.5 -134.001s-92.5 -52 -158.5 -52c-85.333 0 -155.5 25 -210.5 75s-82.5 117 -82.5 201
c0 65.333 15.333 120.333 46 165c56.667 84 150.334 125.333 281.001 124v103h-445v60h713v-60h-203v-163zM383.999 -48.998c13.333 0 24.833 -4.83301 34.5 -14.5s14.5 -21.167 14.5 -34.5s-4.83301 -24.833 -14.5 -34.5s-21.167 -14.5 -34.5 -14.5
s-24.833 4.83301 -34.5 14.5s-14.5 21.167 -14.5 34.5s4.83301 24.833 14.5 34.5s21.167 14.5 34.5 14.5z" />
    <glyph glyph-name="uni095E" unicode="&#x95e;" horiz-adv-x="995" 
d="M1035 680l-504.003 -0.00195312v-227c36.667 60 96.334 90 179.001 90c64.667 0 116.834 -20.5 156.501 -61.5s59.5 -95.167 59.5 -162.5s-24.167 -120.666 -72.5 -159.999s-111.166 -56.333 -188.499 -51v58c58 -5.33301 105.167 6.16699 141.5 34.5
s54.5 68.5 54.5 120.5s-13.833 92 -41.5 120s-67.667 42 -120 42s-93.5 -17.667 -123.5 -53s-45 -80.666 -45 -135.999v-294h-65v330c-34 -56 -86 -84 -156 -84s-122.333 22.333 -157 67s-52 103.667 -52 177v190h-141v60h1075v-60zM165.997 679.998l0.00195312 -189
c0 -61.333 11.667 -107.5 35 -138.5s60.166 -46.5 110.499 -46.5s88.666 17.667 114.999 53s39.5 78.333 39.5 129v192h-300zM271.999 127.998c13.333 0 24.833 -4.83301 34.5 -14.5s14.5 -21.167 14.5 -34.5s-4.83301 -24.833 -14.5 -34.5s-21.167 -14.5 -34.5 -14.5
s-24.833 4.83301 -34.5 14.5s-14.5 21.167 -14.5 34.5s4.83301 24.833 14.5 34.5s21.167 14.5 34.5 14.5z" />
    <glyph glyph-name="uni0960" unicode="&#x960;" horiz-adv-x="966" 
d="M1004 680l-449 -0.00195312v-209h188c26.667 0 43.834 5.16699 51.501 15.5s11.5 30.166 11.5 59.499v35h65v-365h-22c-60 0 -97.667 -12 -113 -36c-7.33301 -10.667 -11 -24.167 -11 -40.5s3.5 -29.666 10.5 -39.999s17.167 -17.833 30.5 -22.5
c22 -7.33301 50 -11 84 -11h22v-56h-26c-35.333 0 -64 -7.33301 -86 -22s-33 -36.667 -33 -66c0 -58 36 -87 108 -87c18 0 37 2 57 6v-54c-20.667 -4.66699 -41 -7 -61 -7c-52.667 0 -93.334 12.667 -122.001 38s-43 58.333 -43 99c0 54 22.667 93 68 117
c-20.667 8.66699 -37.5 22.667 -50.5 42s-19.5 41.333 -19.5 66c0 42 13.833 73.333 41.5 94s61.167 31.334 100.5 32.001v156c-16 -6.66699 -36.667 -10 -62 -10h-189v-414h-65v295l-288 -295h-83v4l367 362c-8 44.667 -27 80.334 -57 107.001s-70.667 40 -122 40
s-93.833 -17.333 -127.5 -52s-50.5 -82 -50.5 -142h-65c0 76 22.167 137.333 66.5 184s102.833 70 175.5 70c84 0 145.333 -33 184 -99v206h-530v60h1044v-60z" />
    <glyph glyph-name="uni0961" unicode="&#x961;" horiz-adv-x="906" 
d="M828 279c0 -22.667 -1.33301 -43.6699 -4 -63.0029h-19c-60 0 -97.667 -12 -113 -36c-7.33301 -10.667 -11 -24.167 -11 -40.5s3.5 -29.666 10.5 -39.999s17.167 -17.833 30.5 -22.5c22 -7.33301 50 -11 84 -11h22v-56h-26c-35.333 0 -64 -7.33301 -86 -22
s-33 -36.667 -33 -66c0 -58 37 -87 111 -87c18.667 0 36.667 2.33301 54 7v-55c-20.667 -4.66699 -41 -7 -61 -7c-52.667 0 -93.334 12.667 -122.001 38s-43 58.333 -43 99c0 54 22.667 93 68 117c-20.667 8.66699 -37.5 22.667 -50.5 42s-19.5 41.333 -19.5 66
c0 42 14 73.333 42 94s61.667 31.334 101 32.001c0 122 -44.333 183 -133 183c-98 0 -144.667 -73.333 -140 -220h-64c4.66699 146.667 -42.333 220 -141 220c-88.667 0 -133 -59.667 -133 -179c0 -62 16.667 -110.5 50 -145.5s83 -50.167 149 -45.5v-60
c-80 -8 -144 11.167 -192 57.5s-72 110.5 -72 192.5c0 160 66 240 198 240c43.333 0 80.333 -11 111 -33s51.334 -53 62.001 -93c10 36.667 28.167 65.834 54.5 87.501s58.5 34.167 96.5 37.5v170h-649v60h986v-60h-272v-173c49.333 -8 87.333 -31.5 114 -70.5
s40 -91.5 40 -157.5z" />
    <glyph glyph-name="uni0962" unicode="&#x962;" horiz-adv-x="0" 
d="M532 18c40 0 69.8311 -13.332 89.498 -39.999s29.5 -62 29.5 -106c0 -13.333 -1 -27 -3 -41h-7c-47.333 0 -71 -19.667 -71 -59c0 -37.333 24 -56 72 -56c12.667 0 25.334 1.33301 38.001 4v-51c-10 -3.33301 -24 -5 -42 -5c-36 0 -66.333 8.66699 -91 26
s-37 41.5 -37 72.5s7.83301 55.167 23.5 72.5s36.5 28 62.5 32c4.66699 64 -18.333 96 -69 96c-53.333 0 -79 -41 -77 -123h-60c3.33301 81.333 -22.334 122 -77.001 122c-48.667 0 -73 -32.667 -73 -98c0 -74 38.667 -109 116 -105v-55c-52 -4 -94.333 9.16699 -127 39.5
s-49 69.666 -49 117.999s11.167 86.5 33.5 114.5s54.5 42 96.5 42c28.667 0 52.5 -7.33301 71.5 -22s31.833 -34.667 38.5 -60c6.66699 25.333 19.834 45.333 39.501 60s43.834 22 72.501 22z" />
    <glyph glyph-name="uni0963" unicode="&#x963;" horiz-adv-x="0" 
d="M640 -167c-30.667 0 -50.001 -2.8291 -58.001 -8.49609s-12 -12.334 -12 -20.001s1.16699 -13.5 3.5 -17.5s7.5 -7 15.5 -9c9.33301 -2 25.333 -3.66699 48 -5h10v-34h-7c-24 0 -41.667 -2 -53 -6s-17 -12.333 -17 -25c0 -19.333 17 -29 51 -29
c11.333 0 24.666 1.66699 39.999 5v-39c-10 -3.33301 -24 -5 -42 -5c-64 0 -96 22 -96 66c0 24 10.333 42 31 54c-20 9.33301 -30 24.666 -30 45.999s7.33301 37.166 22 47.499s32.667 15.5 54 15.5c4.66699 64.667 -19.666 97 -72.999 97s-79 -42 -77 -126h-60
c3.33301 81.333 -22.334 122 -77.001 122c-48.667 0 -73 -32.667 -73 -98c0 -74 38.667 -109 116 -105v-55c-52 -4 -94.333 9.16699 -127 39.5s-49 69.666 -49 117.999s11.167 86.5 33.5 114.5s54.5 42 96.5 42c28.667 0 52.5 -7.33301 71.5 -22s31.833 -34.667 38.5 -60
c6.66699 25.333 19.834 45.333 39.501 60s43.834 22 72.501 22c40 0 69.667 -13.333 89 -40s29 -62 29 -106c0 -12 -1 -25 -3 -39h-7z" />
    <glyph glyph-name="uni0964" unicode="&#x964;" horiz-adv-x="235" 
d="M150 741h65v-741h-65v741z" />
    <glyph glyph-name="uni0965" unicode="&#x965;" horiz-adv-x="431" 
d="M346 741h65v-741h-65v741zM150 741h65v-741h-65v741z" />
    <glyph glyph-name="uni0966" unicode="&#x966;" horiz-adv-x="632" 
d="M315 733c39.333 0 73.5 -6.33301 102.5 -19s52.333 -29.667 70 -51s31.834 -48.166 42.501 -80.499s18 -65.5 22 -99.5s6 -72.667 6 -116s-2 -82 -6 -116s-11.333 -67.167 -22 -99.5s-24.834 -59.166 -42.501 -80.499s-41 -38.333 -70 -51s-63.167 -19 -102.5 -19
s-73.5 6.33301 -102.5 19s-52.333 29.667 -70 51s-31.834 48.166 -42.501 80.499s-18 65.5 -22 99.5s-6 72.667 -6 116s2 82 6 116s11.333 67.167 22 99.5s24.834 59.166 42.501 80.499s41 38.333 70 51s63.167 19 102.5 19zM315 673c-30.667 0 -57 -5.83301 -79 -17.5
s-39.167 -26.334 -51.5 -44.001s-22 -40.667 -29 -69s-11.5 -55.666 -13.5 -81.999s-3 -57.5 -3 -93.5s1 -67.167 3 -93.5s6.5 -53.666 13.5 -81.999s16.667 -51.333 29 -69s29.5 -32.334 51.5 -44.001s48.333 -17.5 79 -17.5s57 5.83301 79 17.5s39.167 26.334 51.5 44.001
s22 40.667 29 69s11.5 55.666 13.5 81.999s3 57.5 3 93.5s-1 67.167 -3 93.5s-6.5 53.666 -13.5 81.999s-16.667 51.333 -29 69s-29.5 32.334 -51.5 44.001s-48.333 17.5 -79 17.5z" />
    <glyph glyph-name="uni0967" unicode="&#x967;" horiz-adv-x="295" 
d="M130 0v650h-71v60h136v-710h-65z" />
    <glyph glyph-name="uni0968" unicode="&#x968;" horiz-adv-x="581" 
d="M61 10l0.00195312 48l68.5 59l69.5 60l62.5 56.5c25.667 23.667 45.667 43.334 60 59.001s30.333 34.334 48 56.001s31.167 41.167 40.5 58.5c21.333 42 32 83.167 32 123.5s-12 74.666 -36 102.999s-62 42.5 -114 42.5s-91.833 -15.667 -119.5 -47
s-42.834 -72.333 -45.501 -123h-66c3.33301 73.333 25.666 130 66.999 170s94.833 60 160.5 60s118.834 -18.5 159.501 -55.5s61 -89.167 61 -156.5c0 -29.333 -6 -59.833 -18 -91.5s-25.667 -59.334 -41 -83.001s-37.333 -51 -66 -82s-51.834 -54.667 -69.501 -71
l-77.5 -69l-65 -57.5h361v-60h-472z" />
    <glyph glyph-name="uni0969" unicode="&#x969;" horiz-adv-x="585" 
d="M136 699.5c42.667 31.667 96.3281 47.499 160.995 47.499s116.167 -17.5 154.5 -52.5s57.5 -79.5 57.5 -133.5c0 -38 -11.167 -72 -33.5 -102s-52.166 -50.667 -89.499 -62v-5c42.667 -10.667 76 -33 100 -67s36 -78.333 36 -133s-19.667 -101 -59 -139
s-93.833 -57 -163.5 -57s-126.5 17.5 -170.5 52.5s-69.333 83.833 -76 146.5h65c4.66699 -40 22.834 -73.167 54.501 -99.5s73.334 -39.5 125.001 -39.5s91.334 13.667 119.001 41s41.5 63 41.5 107c0 58 -18.5 99.167 -55.5 123.5s-92.5 36.5 -166.5 36.5h-22v59h23
c138 0.666992 207 44.334 207 131.001c0 40.667 -13 73 -39 97s-62.833 36 -110.5 36s-85.667 -10.167 -114 -30.5s-45.5 -49.5 -51.5 -87.5h-67c6.66699 55.333 31.334 98.833 74.001 130.5z" />
    <glyph glyph-name="uni096A" unicode="&#x96a;" horiz-adv-x="623" 
d="M426 230v435l-298 -435h298zM426 0v170h-382v45l351 505h96v-490h102v-60h-102v-170h-65z" />
    <glyph glyph-name="uni096B" unicode="&#x96b;" horiz-adv-x="630" 
d="M89 731l426.997 -0.000976562v-60h-362v-256c15.333 24.667 39.333 45.334 72 62.001s68.667 25 108 25s74.833 -7.16699 106.5 -21.5s56.167 -33.833 73.5 -58.5c32.667 -48 49 -106.333 49 -175s-20.5 -127 -61.5 -175s-98.667 -72 -173 -72
s-132.666 17.167 -174.999 51.5s-69.166 80.5 -80.499 138.5h65c11.333 -40.667 32.833 -72.5 64.5 -95.5s70.834 -34.5 117.501 -34.5c58.667 0 103 17.833 133 53.5s45 82.5 45 140.5c0 124.667 -59.333 187 -178 187c-39.333 0 -73.5 -10.333 -102.5 -31
s-51.167 -49 -66.5 -85h-62v406z" />
    <glyph glyph-name="uni096C" unicode="&#x96c;" horiz-adv-x="646" 
d="M468.5 375.5c-29 32.333 -70 48.5 -123 48.5s-98 -15 -135 -45s-55.5 -73.667 -55.5 -131s15.5 -103 46.5 -137s75.167 -51 132.5 -51s101.333 16 132 48s46 76.5 46 133.5s-14.5 101.667 -43.5 134zM338 687c-66 0 -114.667 -23.6689 -146 -71.002
s-48 -129.666 -50 -246.999c18 36 45.5 64.333 82.5 85s79.5 31 127.5 31c66.667 0 120.667 -21.833 162 -65.5s62 -101.667 62 -174s-19.667 -131.333 -59 -177s-97.333 -68.5 -174 -68.5c-44 0 -81.833 7 -113.5 21s-56.667 32 -75 54s-32.833 50.667 -43.5 86
s-17.667 70.333 -21 105s-5 75.667 -5 123c0 112 20.5 199.667 61.5 263s104.833 95 191.5 95c61.333 0 110.5 -16.5 147.5 -49.5s58.5 -73.5 64.5 -121.5h-62c-9.33301 38.667 -25.833 66.834 -49.5 84.501s-57.167 26.5 -100.5 26.5z" />
    <glyph glyph-name="uni096D" unicode="&#x96d;" horiz-adv-x="560" 
d="M40 730h482v-53l-293 -677h-78l306 670h-417v60z" />
    <glyph glyph-name="uni096E" unicode="&#x96e;" horiz-adv-x="631" 
d="M448.5 317c-34.333 26 -78.666 39 -132.999 39s-98.666 -13 -132.999 -39s-51.5 -64.5 -51.5 -115.5s16.667 -90.833 50 -119.5s78.166 -43 134.499 -43s101.166 14.333 134.499 43s50 68.5 50 119.5s-17.167 89.5 -51.5 115.5zM315 691c-52 0 -92.5 -12 -121.5 -36
s-43.5 -57.167 -43.5 -99.5s15.333 -76.333 46 -102s70.5 -38.5 119.5 -38.5s88.833 12.833 119.5 38.5s46 59.667 46 102s-14.667 75.5 -44 99.5s-70 36 -122 36zM85 556c0 57.333 20.001 104.165 60.001 140.498s96.833 54.5 170.5 54.5s130.5 -18.167 170.5 -54.5
s60 -83.166 60 -140.499c0 -39.333 -10.5 -74 -31.5 -104s-48.167 -51.667 -81.5 -65c39.333 -12 71.166 -34.667 95.499 -68s36.5 -73.666 36.5 -120.999c0 -66.667 -22.667 -119.834 -68 -159.501s-105.833 -59.5 -181.5 -59.5s-136.167 19.833 -181.5 59.5
s-68 92.834 -68 159.501c0 48 12 88.5 36 121.5s56 55.5 96 67.5c-75.333 34.667 -113 91 -113 169z" />
    <glyph glyph-name="uni096F" unicode="&#x96f;" horiz-adv-x="634" 
d="M198 383c30 -32 72.333 -48 127 -48s96 15.5 124 46.5s42 73.5 42 127.5s-15 97.167 -45 129.5s-71 48.5 -123 48.5s-93.333 -16 -124 -48s-46 -74.667 -46 -128s15 -96 45 -128zM335 61c58 0 100.668 22.5 128.001 67.5s41 124.167 41 237.5
c-38 -61.333 -99.333 -92 -184 -92c-64.667 0 -119.5 21.333 -164.5 64s-67.5 99.667 -67.5 171s20.667 128.833 62 172.5s101.333 65.5 180 65.5s137 -29.5 175 -88.5s57 -152.5 57 -280.5s-17.167 -222.833 -51.5 -284.5s-93.833 -92.5 -178.5 -92.5
c-64 0 -115.167 16.667 -153.5 50s-61.5 75.333 -69.5 126h63c17.333 -77.333 71.666 -116 162.999 -116z" />
    <glyph glyph-name="uni0970" unicode="&#x970;" horiz-adv-x="486" 
d="M330.5 324.5c-18.333 19 -42.999 28.5 -73.999 28.5s-56.5 -9.16699 -76.5 -27.5s-30 -42.166 -30 -71.499s10.167 -53.5 30.5 -72.5s45.666 -28.5 75.999 -28.5s54.833 9.16699 73.5 27.5s28 42.166 28 71.499s-9.16699 53.5 -27.5 72.5zM139.001 365.5
c30 29 69.167 43.5 117.5 43.5s86.833 -14.667 115.5 -44s43 -67 43 -113s-14.833 -83.333 -44.5 -112s-68 -43 -115 -43s-85.667 15.167 -116 45.5s-45.5 67.833 -45.5 112.5s15 81.5 45 110.5z" />
    <glyph glyph-name="uni0972" unicode="&#x972;" horiz-adv-x="822" 
d="M657 399l0.000976562 341h205v-60h-140v-680h-65v344h-175c16 -26 24 -56 24 -90c0 -61.333 -19.167 -110.333 -57.5 -147s-88.5 -55 -150.5 -55s-112.833 18.333 -152.5 55s-59.5 85.334 -59.5 146.001h60c0 -44 14.167 -79.333 42.5 -106s65 -40 110 -40
s80.833 13.333 107.5 40s40 62 40 106s-13.333 77 -40 99s-63.334 33 -110.001 33h-40v60h33c41.333 0 75.833 10.667 103.5 32s41.5 51.5 41.5 90.5s-12.833 70 -38.5 93s-59.167 34.5 -100.5 34.5s-75.166 -11.667 -101.499 -35s-39.5 -54.333 -39.5 -93h-60
c0 55.333 18.833 99.666 56.5 132.999s85.5 50 143.5 50s105.833 -16.667 143.5 -50s56.5 -77.666 56.5 -132.999c0 -74.667 -36.333 -123.334 -109 -146.001v-6c15.333 -4 28.666 -9.33301 39.999 -16h232zM812.001 970h59.998c0 -48.667 -14.667 -88.834 -44 -120.501
s-74.666 -47.5 -135.999 -47.5s-106.666 15.833 -135.999 47.5s-44 71.834 -44 120.501h60c0 -31.333 10 -58 30 -80s50 -33 90 -33s70 11 90 33s30 48.667 30 80z" />
    <glyph glyph-name="uni200B" unicode="&#x200b;" horiz-adv-x="0" 
 />
    <glyph glyph-name="afii61664" unicode="&#x200c;" horiz-adv-x="0" 
d="M24 -230h-47v1041h47v-1041z" />
    <glyph glyph-name="afii301" unicode="&#x200d;" horiz-adv-x="0" 
d="M24 -230h-47v865l-69 -73l-33 33l93 93l-95 95l33 33l95 -95l96 95l32 -32l-96 -96l96 -95l-33 -33l-72 75v-865z" />
    <glyph glyph-name="endash" unicode="&#x2013;" horiz-adv-x="719" 
d="M100 340v60h519v-60h-519z" />
    <glyph glyph-name="emdash" unicode="&#x2014;" horiz-adv-x="919" 
d="M100 340v60h719v-60h-719z" />
    <glyph glyph-name="quoteleft" unicode="&#x2018;" horiz-adv-x="131" 
d="M110 580l-81 -0.000976562c-6 32.667 -9 64.334 -9 95.001c0 62 30.333 93 91 93v-38c-30.667 0 -46 -16.333 -46 -49v-25h45v-76z" />
    <glyph glyph-name="quoteright" unicode="&#x2019;" horiz-adv-x="131" 
d="M21 768h81c6 -33.333 9 -65.333 9 -96c0 -61.333 -30.333 -92 -91 -92v38c30.667 0 46 16.333 46 49v25h-45v76z" />
    <glyph glyph-name="quotesinglbase" unicode="&#x201a;" horiz-adv-x="172" 
d="M41 56h81c13.333 -68.667 13 -117.167 -1 -145.5s-41 -42.5 -81 -42.5v38c30.667 0 46 16.333 46 49v25h-45v76z" />
    <glyph glyph-name="quotedblleft" unicode="&#x201c;" horiz-adv-x="252" 
d="M231 580l-81 -0.000976562c-6 32.667 -9 64.334 -9 95.001c0 62 30.333 93 91 93v-38c-30.667 0 -46 -16.333 -46 -49v-25h45v-76zM110 579.999l-81 -0.000976562c-6 32.667 -9 64.334 -9 95.001c0 62 30.333 93 91 93v-38c-30.667 0 -46 -16.333 -46 -49v-25h45v-76z
" />
    <glyph glyph-name="quotedblright" unicode="&#x201d;" horiz-adv-x="252" 
d="M21 768h81c6 -33.333 9 -65.333 9 -96c0 -61.333 -30.333 -92 -91 -92v38c30.667 0 46 16.333 46 49v25h-45v76zM142 768h81c6 -33.333 9 -65.333 9 -96c0 -61.333 -30.333 -92 -91 -92v38c30.667 0 46 16.333 46 49v25h-45v76z" />
    <glyph glyph-name="quotedblbase" unicode="&#x201e;" horiz-adv-x="172" 
d="M41 56h81c13.333 -68.667 13 -117.167 -1 -145.5s-41 -42.5 -81 -42.5v38c30.667 0 46 16.333 46 49v25h-45v76z" />
    <glyph glyph-name="dagger" unicode="&#x2020;" horiz-adv-x="529" 
d="M291 538l189 8v-57l-189 8l8 -755h-69l8 755l-189 -8v57l189 -8l-8 241h69z" />
    <glyph glyph-name="daggerdbl" unicode="&#x2021;" horiz-adv-x="531" 
d="M481 546v-57l-189 8v-473l189 8v-57l-189 8l8 -241h-69l8 241l-189 -8v57l189 -8v473l-189 -8v57l189 -8l-8 241h69l-8 -241z" />
    <glyph glyph-name="bullet" unicode="&#x2022;" horiz-adv-x="431" 
d="M297.5 251.5c-22.333 -22.333 -49.666 -33.5 -81.999 -33.5s-59.666 11.167 -81.999 33.5s-33.5 49.666 -33.5 81.999s11.167 59.666 33.5 81.999s49.666 33.5 81.999 33.5s59.666 -11.167 81.999 -33.5s33.5 -49.666 33.5 -81.999s-11.167 -59.666 -33.5 -81.999z" />
    <glyph glyph-name="ellipsis" unicode="&#x2026;" horiz-adv-x="568" 
d="M109 0c-13.333 0 -24.833 4.83301 -34.5 14.5s-14.5 21.167 -14.5 34.5s4.83301 24.833 14.5 34.5s21.167 14.5 34.5 14.5s24.833 -4.83301 34.5 -14.5s14.5 -21.167 14.5 -34.5s-4.83301 -24.833 -14.5 -34.5s-21.167 -14.5 -34.5 -14.5zM459 0
c-13.333 0 -24.833 4.83301 -34.5 14.5s-14.5 21.167 -14.5 34.5s4.83301 24.833 14.5 34.5s21.167 14.5 34.5 14.5s24.833 -4.83301 34.5 -14.5s14.5 -21.167 14.5 -34.5s-4.83301 -24.833 -14.5 -34.5s-21.167 -14.5 -34.5 -14.5zM284 0
c-13.333 0 -24.833 4.83301 -34.5 14.5s-14.5 21.167 -14.5 34.5s4.83301 24.833 14.5 34.5s21.167 14.5 34.5 14.5s24.833 -4.83301 34.5 -14.5s14.5 -21.167 14.5 -34.5s-4.83301 -24.833 -14.5 -34.5s-21.167 -14.5 -34.5 -14.5z" />
    <glyph glyph-name="perthousand" unicode="&#x2030;" horiz-adv-x="970" 
d="M779.5 230c-49.667 0 -74.5 -32.5 -74.5 -97.5s24.833 -97.5 74.5 -97.5s74.5 32.5 74.5 97.5s-24.833 97.5 -74.5 97.5zM640 133c0 42.667 13.167 77 39.5 103s59.833 39 100.5 39s74.167 -13 100.5 -39s39.5 -60.333 39.5 -103s-13.167 -77.167 -39.5 -103.5
s-59.833 -39.5 -100.5 -39.5s-74.167 13.167 -100.5 39.5s-39.5 60.833 -39.5 103.5zM459.5 230c-49.667 0 -74.5 -32.5 -74.5 -97.5s24.833 -97.5 74.5 -97.5s74.5 32.5 74.5 97.5s-24.833 97.5 -74.5 97.5zM320 133c0 42.667 13.167 77 39.5 103s59.833 39 100.5 39
s74.167 -13 100.5 -39s39.5 -60.333 39.5 -103s-13.167 -77.167 -39.5 -103.5s-59.833 -39.5 -100.5 -39.5s-74.167 13.167 -100.5 39.5s-39.5 60.833 -39.5 103.5zM84 0l410 690h71l-410 -690h-71zM189.5 655c-49.667 0 -74.5 -32.5 -74.5 -97.5s24.833 -97.5 74.5 -97.5
s74.5 32.5 74.5 97.5s-24.833 97.5 -74.5 97.5zM50 558c0 42.667 13.167 77 39.5 103s59.833 39 100.5 39s74.167 -13 100.5 -39s39.5 -60.333 39.5 -103s-13.167 -77.167 -39.5 -103.5s-59.833 -39.5 -100.5 -39.5s-74.167 13.167 -100.5 39.5s-39.5 60.833 -39.5 103.5z
" />
    <glyph glyph-name="guilsinglleft" unicode="&#x2039;" 
d="M113 295l102 -175h-71l-99 175l99 175h71z" />
    <glyph glyph-name="guilsinglright" unicode="&#x203a;" 
d="M121 120h-71l102 175l-102 175h71l99 -175z" />
    <glyph glyph-name="fraction" unicode="&#x2044;" horiz-adv-x="600" 
d="M84 0l410 690h71l-410 -690h-71z" />
    <glyph glyph-name="uni20A8" unicode="&#x20a8;" horiz-adv-x="1099" 
d="M876 467.5c-21.333 21.667 -50.999 32.4941 -88.999 32.4941s-67.833 -9.33301 -89.5 -28s-32.5 -41.167 -32.5 -67.5s8 -47.166 24 -62.499s36.167 -25.666 60.5 -30.999s50.666 -11.666 78.999 -18.999s54.666 -15.166 78.999 -23.499s44.5 -23.333 60.5 -45
s24 -49.5 24 -83.5c0 -44 -18.333 -80 -55 -108s-84.834 -42 -144.501 -42s-106.834 15.333 -141.501 46s-53.667 72.334 -57 125.001h72c1.33301 -34 13.333 -61.667 36 -83s53.834 -32 93.501 -32s70.5 8.5 92.5 25.5s33 38.833 33 65.5s-8 47.667 -24 63
s-36.167 25.833 -60.5 31.5s-50.666 12.167 -78.999 19.5s-54.666 15 -78.999 23s-44.5 22.333 -60.5 43s-24 46.667 -24 78c0 45.333 18.667 83.5 56 114.5s85 46.5 143 46.5s103.167 -15.167 135.5 -45.5s50.166 -72.166 53.499 -125.499h-72
c-1.33301 33.333 -12.666 60.833 -33.999 82.5zM75.001 689.994h211c77.333 0 136 -18.5 176 -55.5s60 -83.833 60 -140.5s-15.667 -102.5 -47 -137.5s-78 -56.5 -140 -64.5l196 -292h-91l-187 289h-108v-289h-70v690zM145.001 632.994v-287h141c110 0 165 47.833 165 143.5
s-55 143.5 -165 143.5h-141z" />
    <glyph glyph-name="Euro" unicode="&#x20ac;" horiz-adv-x="795" 
d="M462 232l-259.997 -0.000976562c20 -55.333 53.167 -98.833 99.5 -130.5s97.333 -47.5 153 -47.5s103.5 11.167 143.5 33.5s70.667 53.833 92 94.5h85c-28 -61.333 -69.5 -108 -124.5 -140s-119.833 -48 -194.5 -48s-142.334 21.667 -203.001 65
s-102.334 101 -125.001 173h-98v57h85c-2.66699 16 -4 34.833 -4 56.5s1.33301 40.5 4 56.5h-85v57h98c23.333 72 65.166 129.667 125.499 173s127.833 65 202.5 65s139.5 -16 194.5 -48s96.5 -78.667 124.5 -140h-85c-21.333 40.667 -52 72 -92 94s-87.833 33 -143.5 33
s-106.667 -15.667 -153 -47s-79.5 -74.666 -99.5 -129.999h260v-57h-275c-2.66699 -24 -4 -44.833 -4 -62.5s1.33301 -34.5 4 -50.5h275v-57z" />
    <glyph glyph-name="uni20B9" unicode="&#x20b9;" horiz-adv-x="612" 
d="M446 633l-0.00195312 -56c0 -27.333 -0.666992 -47 -2 -59h142v-57h-147c-11.333 -68 -37.666 -114 -78.999 -138s-109.333 -36 -204 -36v-91c0 -99.333 43.667 -149 131 -149s131 47.333 131 142h63c-1.33301 -66 -18.5 -115.667 -51.5 -149s-81 -50 -144 -50
s-111.333 18.667 -145 56s-50.5 87.333 -50.5 150v144c110.667 0 183.834 6.83301 219.501 20.5s57.5 47.167 65.5 100.5h-333v57h337c0.666992 12.667 1 33.667 1 63v52h-338v57h544v-57h-140z" />
    <glyph glyph-name="uni20BA" unicode="&#x20ba;" horiz-adv-x="865" 
d="M646 406h72.001c0 -142 -29 -248.5 -87 -319.5s-149 -106.5 -273 -106.5c-46.667 0 -96.334 7 -149.001 21v240l-168 -45v60l168 44v107l-173 -45v58l173 46v231h72v-212l187 49v-59l-187 -49v-107l178 47v-58l-178 -48v-209c22 -4.66699 48 -7 78 -7
c98 0 170.333 29.833 217 89.5s70 150.5 70 272.5z" />
    <glyph glyph-name="uni20BD" unicode="&#x20bd;" horiz-adv-x="602" 
d="M326 289h-141v-99h234v-60h-234v-130h-70v130h-85v60h85v99h-84v57h84v344h211c77.333 0 136 -18.5 176 -55.5s60 -85.5 60 -145.5s-19.833 -108.333 -59.5 -145s-98.5 -55 -176.5 -55zM185 633v-287h141c110 0 165 47.833 165 143.5s-55 143.5 -165 143.5h-141z" />
    <glyph glyph-name="afii61289" unicode="&#x2113;" horiz-adv-x="220" 
d="M75 0v740h70v-740h-70z" />
    <glyph glyph-name="trademark" unicode="&#x2122;" horiz-adv-x="757" 
d="M687 704v-352h-58v243l-113 -243h-43l-112 243v-243h-58v352h64l128 -280l128 280h64zM20 661v43h219v-43h-81v-309h-58v309h-80z" />
    <glyph glyph-name="uni2126" unicode="&#x2126;" horiz-adv-x="782" 
d="M55 57l152.998 0.00195312c-52 25.333 -93 64.166 -123 116.499s-45 109.5 -45 171.5c0 102 33.833 186.167 101.5 252.5s150.834 99.5 249.501 99.5s181.834 -33.167 249.501 -99.5s101.5 -150.5 101.5 -252.5c0 -62 -15 -119.167 -45 -171.5s-71 -91.166 -123 -116.499
h153v-57h-276v59c65.333 12.667 118.333 44.667 159 96s61 117.666 61 198.999s-26.5 148.666 -79.5 201.999s-120 80 -201 80s-147.833 -26.833 -200.5 -80.5s-79 -121 -79 -202s20.333 -147.167 61 -198.5s93.667 -83.333 159 -96v-59h-276v57z" />
    <glyph glyph-name="estimated" unicode="&#x212e;" horiz-adv-x="764" 
d="M170 371h412.998v179c-45.333 64 -113.666 96 -204.999 96s-160.666 -36 -207.999 -108v-167zM685.998 137c-89.333 -96 -186 -144.001 -290 -144.001s-187.667 29.667 -251 89s-95 142 -95 248s29.5 193.667 88.5 263s139.833 104 242.5 104
s183.834 -31.833 243.501 -95.5s89.5 -139.5 89.5 -227.5v-61h-544v-164c53.333 -70.667 127 -106 221 -106c48.667 0 92.667 10.833 132 32.5s81.666 54.834 126.999 99.501z" />
    <glyph glyph-name="partialdiff" unicode="&#x2202;" horiz-adv-x="559" 
d="M40 216c0 88.667 26.333 167.5 79 236.5s118 103.5 196 103.5c60 0 104.667 -27 134 -81c-2.66699 66 -17.5 118.667 -44.5 158s-64.833 59 -113.5 59c-26.667 0 -53.334 -3.66699 -80.001 -11v46c30.667 8.66699 60.667 13 90 13c71.333 0 125.5 -27.667 162.5 -83
s55.5 -136.333 55.5 -243c0 -127.333 -28.667 -229.833 -86 -307.5s-128.333 -116.5 -213 -116.5c-53.333 0 -96.666 19.167 -129.999 57.5s-50 94.5 -50 168.5zM436 323c0 56.667 -11.332 100.333 -33.999 131s-54.334 46 -95.001 46c-54 0 -100.167 -27.667 -138.5 -83
s-57.5 -122.333 -57.5 -201c0 -56 10.5 -98.333 31.5 -127s50.5 -43 88.5 -43c54 0 101.667 27.833 143 83.5s62 120.167 62 193.5z" />
    <glyph glyph-name="uni2206" unicode="&#x2206;" horiz-adv-x="666" 
d="M575 55l-243 555l-241 -555h484zM646 0h-626v55l283 635h59l284 -635v-55z" />
    <glyph glyph-name="product" unicode="&#x220f;" horiz-adv-x="736" 
d="M40 633v57h656v-57h-81v-633h-69v633h-356v-633h-69v633h-81z" />
    <glyph glyph-name="summation" unicode="&#x2211;" horiz-adv-x="436" 
d="M396 690v-55h-295l267 -296v-55l-267 -289h295v-55h-356v80l269 290l-269 300v80h356z" />
    <glyph glyph-name="minus" unicode="&#x2212;" horiz-adv-x="589" 
d="M100 340v60h389v-60h-389z" />
    <glyph glyph-name="uni2215" unicode="&#x2215;" horiz-adv-x="562" 
d="M101 -166l274 1106h71l-275 -1106h-70z" />
    <glyph glyph-name="uni2219" unicode="&#x2219;" horiz-adv-x="218" 
d="M109 300c-13.333 0 -24.833 4.83301 -34.5 14.5s-14.5 21.167 -14.5 34.5s4.83301 24.833 14.5 34.5s21.167 14.5 34.5 14.5s24.833 -4.83301 34.5 -14.5s14.5 -21.167 14.5 -34.5s-4.83301 -24.833 -14.5 -34.5s-21.167 -14.5 -34.5 -14.5z" />
    <glyph glyph-name="radical" unicode="&#x221a;" horiz-adv-x="750" 
d="M681 859h64l-484 -903h-39l-118 207l-60 -36l-22 39l116 70l107 -189z" />
    <glyph glyph-name="infinity" unicode="&#x221e;" horiz-adv-x="643" 
d="M576 450.5c28 -25.667 42.001 -59.998 42.001 -102.998s-14.167 -77.5 -42.5 -103.5s-63.166 -39 -104.499 -39c-28 0 -53.667 8.66699 -77 26s-47.666 41.666 -72.999 72.999c-16 -29.333 -37.667 -53.333 -65 -72s-59 -27.667 -95 -27s-67.667 13.667 -95 39
s-41 59.666 -41 102.999s14.167 78 42.5 104s63.166 39 104.499 39c28 0 53.667 -8.66699 77 -26s47.666 -41.666 72.999 -72.999c16 29.333 37.667 53.333 65 72s58.666 27.667 93.999 27s67 -13.834 95 -39.501zM111.001 284.502c15.333 -15 35 -22.499 59 -22.499
s46.5 7.5 67.5 22.5s38.5 34.5 52.5 58.5c-22.667 29.333 -43 51.666 -61 66.999s-38.333 23 -61 23s-41.667 -7.66699 -57 -23s-23 -36.333 -23 -63s7.66699 -47.5 23 -62.5zM413.501 285.003c17.667 -15.333 37.999 -23.001 60.999 -23.001s42.167 7.66699 57.5 23
s23 36.333 23 63s-7.66699 47.5 -23 62.5s-35 22.5 -59 22.5s-46.5 -7.5 -67.5 -22.5s-38.5 -34.5 -52.5 -58.5c22.667 -29.333 42.834 -51.666 60.501 -66.999z" />
    <glyph glyph-name="integral" unicode="&#x222b;" horiz-adv-x="253" 
d="M274 911h25l-6 -55h-16c-20 0 -35 -5.5 -45 -16.5s-16.333 -30.167 -19 -57.5l-93 -832c-5.33301 -45.333 -18.166 -78.166 -38.499 -98.499s-51.166 -30.5 -92.499 -30.5h-25l6 55h16c20 0 35 5.66699 45 17s16.333 30.333 19 57l93 832
c5.33301 45.333 18.166 78.166 38.499 98.499s51.166 30.5 92.499 30.5z" />
    <glyph glyph-name="approxequal" unicode="&#x2248;" horiz-adv-x="491" 
d="M87 519c23.333 20.667 49.666 31 78.999 31s58.833 -10.667 88.5 -32s53.167 -32 70.5 -32s33.166 5.5 47.499 16.5s22.833 25.5 25.5 43.5h53c-8 -41.333 -23.667 -72.333 -47 -93s-49.666 -31 -78.999 -31s-58.666 10.667 -87.999 32s-52.833 32 -70.5 32
s-33.667 -5.5 -48 -16.5s-22.833 -25.5 -25.5 -43.5h-53c8 41.333 23.667 72.333 47 93zM87 319c23.333 20.667 49.666 31 78.999 31s58.833 -10.667 88.5 -32s53.167 -32 70.5 -32s33.166 5.5 47.499 16.5s22.833 25.5 25.5 43.5h53c-8 -41.333 -23.667 -72.333 -47 -93
s-49.666 -31 -78.999 -31s-58.666 10.667 -87.999 32s-52.833 32 -70.5 32s-33.667 -5.5 -48 -16.5s-22.833 -25.5 -25.5 -43.5h-53c8 41.333 23.667 72.333 47 93z" />
    <glyph glyph-name="notequal" unicode="&#x2260;" horiz-adv-x="770" 
d="M639 503v-60h-149l-136 -146h285v-60h-341l-94 -100h-74l93 100h-93v60h149l137 146h-286v60h342l93 100h75l-94 -100h93z" />
    <glyph glyph-name="lessequal" unicode="&#x2264;" horiz-adv-x="550" 
d="M450 602l-252 -194l252 -194h-98l-252 194l252 194h98zM100 120v51h346v-51h-346z" />
    <glyph glyph-name="greaterequal" unicode="&#x2265;" horiz-adv-x="550" 
d="M104 120v51h346v-51h-346zM198 214h-98l252 194l-252 194h98l252 -194z" />
    <glyph glyph-name="lozenge" unicode="&#x25ca;" horiz-adv-x="551" 
d="M431 349l-155 156l-156 -156l155 -156zM40 349l236 236l235 -236l-236 -236z" />
    <glyph glyph-name="uni25CC" unicode="&#x25cc;" horiz-adv-x="660" 
d="M257 560c0 13.333 4.16699 24 12.5 32s18.833 12 31.5 12s23.167 -4 31.5 -12s12.5 -18.667 12.5 -32s-4.16699 -24 -12.5 -32s-18.833 -12 -31.5 -12s-23.167 4 -31.5 12s-12.5 18.667 -12.5 32zM396 514c-8.66699 8.66699 -13.001 19.168 -13.001 31.501
s4.16699 22.833 12.5 31.5s19 13 32 13s23.5 -4.16699 31.5 -12.5s12 -18.833 12 -31.5s-4.16699 -23.334 -12.5 -32.001s-18.666 -13 -30.999 -13s-22.833 4.33301 -31.5 13zM477.999 477.001c0 12.667 4.16699 23.333 12.5 32s18.833 13 31.5 13
s23.167 -4.16699 31.5 -12.5s12.5 -19 12.5 -32s-4.16699 -23.667 -12.5 -32s-18.833 -12.5 -31.5 -12.5s-23.167 4.16699 -31.5 12.5s-12.5 18.833 -12.5 31.5zM527.999 359c0 12.667 4 23.167 12 31.5s18.5 12.5 31.5 12.5s23.667 -4.16699 32 -12.5
s12.5 -18.833 12.5 -31.5s-4.16699 -23.167 -12.5 -31.5s-19 -12.5 -32 -12.5s-23.5 4.16699 -31.5 12.5s-12 18.833 -12 31.5zM517.999 225c0 12.667 4.33301 23.334 13 32.001s19.167 13 31.5 13s22.666 -4.33301 30.999 -13s12.5 -19.334 12.5 -32.001
s-4.16699 -23.167 -12.5 -31.5s-18.666 -12.5 -30.999 -12.5s-22.833 4.16699 -31.5 12.5s-13 18.833 -13 31.5zM444.999 127c0 12.667 4.16699 23.167 12.5 31.5s18.833 12.5 31.5 12.5s23.334 -4.16699 32.001 -12.5s13 -18.833 13 -31.5s-4.33301 -23.167 -13 -31.5
s-19.334 -12.5 -32.001 -12.5s-23.167 4.16699 -31.5 12.5s-12.5 18.833 -12.5 31.5zM323.999 74c0 13.333 4 24 12 32s18.667 12 32 12s24.166 -4.16699 32.499 -12.5s12.5 -18.833 12.5 -31.5s-4.16699 -23.167 -12.5 -31.5s-19.166 -12.5 -32.499 -12.5s-24 4 -32 12
s-12 18.667 -12 32zM209.999 57c-8.66699 8.66699 -13 19.334 -13 32.001s4.33301 23.334 13 32.001s19.334 13 32.001 13s23.167 -4.33301 31.5 -13s12.5 -19.334 12.5 -32.001s-4.16699 -23.334 -12.5 -32.001s-18.833 -13 -31.5 -13s-23.334 4.33301 -32.001 13z
M95.999 165c0 12.667 4.16699 23.167 12.5 31.5s18.833 12.5 31.5 12.5s23.167 -4.16699 31.5 -12.5s12.5 -18.833 12.5 -31.5s-4.16699 -23.167 -12.5 -31.5s-19 -12.5 -32 -12.5s-23.5 4.16699 -31.5 12.5s-12 18.833 -12 31.5zM43.999 281
c0 12.667 4.16699 23.333 12.5 32s18.833 13 31.5 13s23.167 -4.16699 31.5 -12.5s12.5 -19 12.5 -32s-4.16699 -23.5 -12.5 -31.5s-18.833 -12 -31.5 -12s-23.167 4 -31.5 12s-12.5 18.333 -12.5 31zM56.999 406.999c0 12.667 4.33301 23.167 13 31.5
s19.334 12.5 32.001 12.5s23.334 -4.16699 32.001 -12.5s13 -18.833 13 -31.5s-4.33301 -23.167 -13 -31.5s-19.334 -12.5 -32.001 -12.5s-23.334 4.16699 -32.001 12.5s-13 18.833 -13 31.5zM151.499 484.499c-8.33301 8.33301 -12.5 19 -12.5 32s4.16699 23.667 12.5 32
s18.833 12.5 31.5 12.5s23.167 -4.16699 31.5 -12.5s12.5 -19 12.5 -32s-4.16699 -23.667 -12.5 -32s-18.833 -12.5 -31.5 -12.5s-23.167 4.16699 -31.5 12.5z" />
    <glyph glyph-name="uniF6C3" unicode="&#xf6c3;" horiz-adv-x="111" 
d="M11 -50h81c6 -33.333 9 -65.333 9 -96c0 -61.333 -30.333 -92 -91 -92v38c30.667 0 46 16.333 46 49v25h-45v76z" />
    <glyph glyph-name="uF0001" unicode="&#xf0001;" horiz-adv-x="0" 
 />
    <glyph glyph-name="uF0002" unicode="&#xf0002;" horiz-adv-x="333" 
 />
    <glyph glyph-name="uF01B6" unicode="&#xf01b6;" horiz-adv-x="765" 
d="M600 740l205 -0.000976562v-60h-140v-680h-65v381h-272c-36.667 -18 -67.5 -35 -92.5 -51s-40.333 -27.333 -46 -34l-21.5 -26c-16 -18.667 -24 -43 -24 -73s10.5 -55.333 31.5 -76s52 -31 93 -31s72.5 11.667 94.5 35s33 53.333 33 90h57v-246h-65v121
c-10 -16 -26.333 -30 -49 -42s-51 -18 -85 -18c-52.667 0 -95 15.167 -127 45.5s-48 69.5 -48 117.5c0 51.333 19 94 57 128c33.333 29.333 71.666 55 114.999 77c-46.667 10 -83.5 30.833 -110.5 62.5s-40.5 72.334 -40.5 122.001s18.333 90 55 121
s82.834 46.5 138.501 46.5s100 -16.5 133 -49.5s49.5 -72.167 49.5 -117.5c0 -58 -23.333 -106 -70 -144h194v301zM413 575.999c0 38 -11.168 66.6689 -33.501 86.002s-51.833 29 -88.5 29s-67 -9.83301 -91 -29.5s-36 -50.834 -36 -93.501s15.333 -74.834 46 -96.501
s69.334 -32.5 116.001 -32.5c58 35.333 87 81 87 137z" />
    <glyph glyph-name="uF01B7" unicode="&#xf01b7;" horiz-adv-x="783" 
d="M-40 740l863 0.000976562v-60h-140v-680h-65v475h-214c62.667 -32.667 94 -85.667 94 -159c0 -58.667 -17.5 -106.5 -52.5 -143.5s-82.5 -55.5 -142.5 -55.5c-40 0 -75 8 -105 24s-51.667 35.333 -65 58v-149h-65v286h61c4 -50.667 21.167 -89.834 51.5 -117.501
s68.5 -41.5 114.5 -41.5s80.5 12.667 103.5 38s34.5 62 34.5 110s-17.833 85 -53.5 111s-82.167 39 -139.5 39h-1v57h379v148h-658v60z" />
    <glyph glyph-name="uF01B8" unicode="&#xf01b8;" horiz-adv-x="789" 
d="M943 680h-390.998v-198c33.333 59.333 89 89 167 89c68 0 122 -21.333 162 -64s60 -98.667 60 -168h-64c0 54 -14.5 96.167 -43.5 126.5s-70 45.5 -123 45.5s-92.667 -16.833 -119 -50.5s-39.5 -80.834 -39.5 -141.501v-319h-65v195c-36 -57.333 -94 -86 -174 -86
c-66.667 0 -120.834 21.167 -162.501 63.5s-62.5 97.833 -62.5 166.5s20.667 124.334 62 167.001s95.666 64 162.999 64c80 0 138 -28.667 174 -86v196h-527v60h983v-60zM197.502 213.5c29.667 -29.667 71.168 -44.499 124.501 -44.499s94.166 15.167 122.499 45.5
s42.5 72.166 42.5 125.499s-14.5 95 -43.5 125s-70.167 45 -123.5 45s-94.5 -15 -123.5 -45s-43.5 -72 -43.5 -126s14.833 -95.833 44.5 -125.5z" />
    <glyph glyph-name="uF01B9" unicode="&#xf01b9;" horiz-adv-x="656" 
d="M337 680l-0.00390625 -99.002c0 -90 -12.833 -150.5 -38.5 -181.5s-75.167 -46.5 -148.5 -46.5v-123c0 -58 14 -101 42 -129s67.667 -42 119 -42c102 0 160.667 36.667 176 110c-68.667 33.333 -103 93.333 -103 180c0 63.333 19.5 113.166 58.5 149.499
s90.5 54.5 154.5 54.5s115.5 -18.167 154.5 -54.5s58.5 -86.166 58.5 -149.499s-19.5 -113.166 -58.5 -149.499s-90.5 -54.5 -154.5 -54.5c-18.667 0 -34.667 1.33301 -48 4c-12.667 -48 -39.667 -85 -81 -111s-90.666 -39 -147.999 -39c-72 0 -129.167 20.333 -171.5 61
s-63.5 96.667 -63.5 168v179h37c36.667 0 63.334 1.16699 80.001 3.5s31.334 9.83301 44.001 22.5s20.334 29.834 23.001 51.501s4 54.167 4 97.5v98h-316v60h853v-60h-473zM704.496 453.998c-27 26 -62.833 39 -107.5 39s-80.5 -13 -107.5 -39s-40.5 -61 -40.5 -105
s13.5 -79 40.5 -105s62.833 -39 107.5 -39s80.5 13 107.5 39s40.5 61 40.5 105s-13.5 79 -40.5 105z" />
    <glyph glyph-name="uF01BA" unicode="&#xf01ba;" horiz-adv-x="422" 
d="M472 740l-0.00390625 -60h-171v-255c0 -63.333 -10.5 -110.5 -31.5 -141.5s-56.5 -46.5 -106.5 -46.5s-86.667 16.5 -110 49.5s-33.666 79.167 -30.999 138.5h64c0 -40.667 3.16699 -69.167 9.5 -85.5s14.833 -27.5 25.5 -33.5s24.334 -9 41.001 -9s30.334 3 41.001 9
s18.334 15.667 23.001 29c7.33301 20.667 11 50.667 11 90v255h-277v60h512z" />
    <glyph glyph-name="uF01BB" unicode="&#xf01bb;" horiz-adv-x="411" 
d="M529 355l59 0.00195312c0 -81.333 -24.5 -142.5 -73.5 -183.5s-110.5 -61.5 -184.5 -61.5s-134.5 15.667 -181.5 47s-70.5 76.333 -70.5 135c0 36.667 9.5 68 28.5 94s44.167 45.667 75.5 59v6c-34.667 15.333 -57.667 37.666 -69 66.999s-17 70.666 -17 123.999v38h-136
v60h627v-60h-425v-38c0 -63.333 9.5 -107 28.5 -131s57.5 -36 115.5 -36h33v-59h-33c-48 0 -87.167 -10.333 -117.5 -31s-45.5 -52.167 -45.5 -94.5s17.333 -73 52 -92s81 -28.5 139 -28.5s105 15.833 141 47.5s54 77.5 54 137.5z" />
    <glyph glyph-name="uF01BC" unicode="&#xf01bc;" horiz-adv-x="662" 
d="M-40 740h725.003v-60h-216v-179h-164c-44.667 0 -79.667 -6.33301 -105 -19s-38 -37.167 -38 -73.5s11.833 -60.833 35.5 -73.5s55 -19 94 -19s70.167 -1.83301 93.5 -5.5s47 -10.5 71 -20.5c48.667 -22 73 -66.667 73 -134c0 -48 -18.667 -87.667 -56 -119
s-89.833 -47 -157.5 -47s-123.334 18.5 -167.001 55.5s-65.834 89.167 -66.501 156.5h64c6.66699 -101.333 65 -152 175 -152c44.667 0 79.667 9.16699 105 27.5s38 46.5 38 84.5c0 42.667 -16 70 -48 82c-24.667 9.33301 -58.334 14 -101.001 14
c-69.333 0 -123 11.167 -161 33.5s-57 61.833 -57 118.5c0 100.667 69 151 207 151h100v119h-444v60zM566.003 433c13.333 0 24.833 -4.83301 34.5 -14.5s14.5 -21.167 14.5 -34.5s-4.83301 -24.833 -14.5 -34.5s-21.167 -14.5 -34.5 -14.5s-24.833 4.83301 -34.5 14.5
s-14.5 21.167 -14.5 34.5s4.83301 24.833 14.5 34.5s21.167 14.5 34.5 14.5zM283.003 -83h65l110 -152h-76z" />
    </font>
</defs>
</svg>
